<svg xmlns="http://www.w3.org/2000/svg" xmlns:oryx="http://oryx-editor.org" id="_F35C8ED6-3695-4C8B-AE8E-4C520772572B" width="728" height="234" xmlns:xlink="http://www.w3.org/1999/xlink" xmlns:svg="http://www.w3.org/2000/svg"><defs><marker id="_56170101-C6F5-4B8E-93B1-7D63491466BBstart" refX="1" refY="5" markerUnits="userSpaceOnUse" markerWidth="17" markerHeight="11" orient="auto" fill="#000000" stroke="#000000"> 	  		<path id="_56170101-C6F5-4B8E-93B1-7D63491466BBconditional" d="M 0 5 L 8 0 L 16 5 L 8 10 L 0 5" fill="white" stroke="#000000" stroke-width="1" display="none"/> 			<path id="_56170101-C6F5-4B8E-93B1-7D63491466BBdefault" d="M 5 0 L 11 10" fill="white" stroke="#000000" stroke-width="1" display="none"/> 	  	</marker><marker id="_56170101-C6F5-4B8E-93B1-7D63491466BBend" refX="15" refY="6" markerUnits="userSpaceOnUse" markerWidth="15" markerHeight="12" orient="auto" fill="#000000" stroke="#000000"> 	  		<path id="_56170101-C6F5-4B8E-93B1-7D63491466BBframe2" d="M 0 1 L 15 6 L 0 11z" fill="#000000" stroke="#000000" stroke-linejoin="round" stroke-width="2"/> 	  	</marker><marker id="_529EBFCC-5678-46A6-B730-ED031434CDB7start" refX="1" refY="5" markerUnits="userSpaceOnUse" markerWidth="17" markerHeight="11" orient="auto" fill="#000000" stroke="#000000"> 	  		<path id="_529EBFCC-5678-46A6-B730-ED031434CDB7conditional" d="M 0 5 L 8 0 L 16 5 L 8 10 L 0 5" fill="white" stroke="#000000" stroke-width="1" display="none"/> 			<path id="_529EBFCC-5678-46A6-B730-ED031434CDB7default" d="M 5 0 L 11 10" fill="white" stroke="#000000" stroke-width="1" display="none"/> 	  	</marker><marker id="_529EBFCC-5678-46A6-B730-ED031434CDB7end" refX="15" refY="6" markerUnits="userSpaceOnUse" markerWidth="15" markerHeight="12" orient="auto" fill="#000000" stroke="#000000"> 	  		<path id="_529EBFCC-5678-46A6-B730-ED031434CDB7frame2" d="M 0 1 L 15 6 L 0 11z" fill="#000000" stroke="#000000" stroke-linejoin="round" stroke-width="2"/> 	  	</marker><marker id="_57CD24E1-FAD3-403C-B365-78124359D5CCstart" refX="1" refY="5" markerUnits="userSpaceOnUse" markerWidth="17" markerHeight="11" orient="auto" fill="#000000" stroke="#000000"> 	  		<path id="_57CD24E1-FAD3-403C-B365-78124359D5CCconditional" d="M 0 5 L 8 0 L 16 5 L 8 10 L 0 5" fill="white" stroke="#000000" stroke-width="1" display="none"/> 			<path id="_57CD24E1-FAD3-403C-B365-78124359D5CCdefault" d="M 5 0 L 11 10" fill="white" stroke="#000000" stroke-width="1" display="none"/> 	  	</marker><marker id="_57CD24E1-FAD3-403C-B365-78124359D5CCend" refX="15" refY="6" markerUnits="userSpaceOnUse" markerWidth="15" markerHeight="12" orient="auto" fill="#000000" stroke="#000000"> 	  		<path id="_57CD24E1-FAD3-403C-B365-78124359D5CCframe2" d="M 0 1 L 15 6 L 0 11z" fill="#000000" stroke="#000000" stroke-linejoin="round" stroke-width="2"/> 	  	</marker></defs><g stroke="none" font-family="Verdana, sans-serif" font-size-adjust="none" font-style="normal" font-variant="normal" font-weight="normal" line-heigth="normal" font-size="12"><g class="stencils" transform="translate(15, 16)"><g class="me"/><g class="children"><g id="_C8BCA381-7F4F-49D6-82AD-CED53191423D" bpmn2nodeid="processStartEvent"><g class="stencils" transform="translate(210, 135)"><g class="me"><g pointer-events="fill" id="_C8BCA381-7F4F-49D6-82AD-CED53191423D">        <defs id="_C8BCA381-7F4F-49D6-82AD-CED53191423D__C8BCA381-7F4F-49D6-82AD-CED53191423D_5"> 		<radialGradient id="_C8BCA381-7F4F-49D6-82AD-CED53191423Dbackground" cx="10%" cy="10%" r="100%" fx="10%" fy="10%"> 			<stop offset="0%" stop-color="#ffffff" stop-opacity="1" id="_C8BCA381-7F4F-49D6-82AD-CED53191423D__C8BCA381-7F4F-49D6-82AD-CED53191423D_6"/> 			<stop id="_C8BCA381-7F4F-49D6-82AD-CED53191423Dfill_el" offset="100%" stop-color="#9acd32" stop-opacity="1"/> 		</radialGradient> 	</defs> 	     <circle id="_C8BCA381-7F4F-49D6-82AD-CED53191423Dbg_frame" cx="15" cy="15" r="15" stroke="#000000" fill="url(#_C8BCA381-7F4F-49D6-82AD-CED53191423Dbackground) white" stroke-width="1" style="stroke-dasharray: 5.5, 3"/>      <circle id="_C8BCA381-7F4F-49D6-82AD-CED53191423Dframe" cx="15" cy="15" r="15" stroke="#000000" fill="none" stroke-width="1" display="inherit"/>  	<text font-size="11" id="_C8BCA381-7F4F-49D6-82AD-CED53191423Dtext_name" x="15" y="32" oryx:align="top center" stroke="black" stroke-width="0pt" letter-spacing="-0.01px" fill="#000000" text-anchor="middle" transform="rotate(0 15 32)" visibility="inherit" oryx:fontSize="11"/>   </g></g><g class="children" style="overflow:hidden"/><g class="edge"/></g><g class="controls"><g class="dockers"/><g class="magnets" transform="translate(210, 135)"><g pointer-events="all" display="none" transform="translate(7, 7)"><circle cx="8" cy="8" r="4" stroke="none" fill="red" fill-opacity="0.3"/></g></g></g></g><g id="_9551EBD6-DE27-43C8-B9D9-132AF24BB29A" bpmn2nodeid="_8E4F77F0-83F1-4C6C-BA8B-98B93D3FBE30"><g class="stencils" transform="translate(300, 110)"><g class="me"><g pointer-events="fill" oryx:minimumSize="50 40" id="_9551EBD6-DE27-43C8-B9D9-132AF24BB29A">   	<defs id="_9551EBD6-DE27-43C8-B9D9-132AF24BB29A__9551EBD6-DE27-43C8-B9D9-132AF24BB29A_17"> 		<radialGradient id="_9551EBD6-DE27-43C8-B9D9-132AF24BB29Abackground" cx="10%" cy="10%" r="100%" fx="10%" fy="10%"> 			<stop offset="0%" stop-color="#ffffff" stop-opacity="1" id="_9551EBD6-DE27-43C8-B9D9-132AF24BB29A__9551EBD6-DE27-43C8-B9D9-132AF24BB29A_18"/> 			<stop id="_9551EBD6-DE27-43C8-B9D9-132AF24BB29Afill_el" offset="100%" stop-color="#fafad2" stop-opacity="1"/> 		</radialGradient> 		<radialGradient id="_9551EBD6-DE27-43C8-B9D9-132AF24BB29Aborderbackground" cx="10%" cy="10%" r="100%" fx="10%" fy="10%"> 			<stop offset="0%" stop-color="#ffffff" stop-opacity="1" id="_9551EBD6-DE27-43C8-B9D9-132AF24BB29A__9551EBD6-DE27-43C8-B9D9-132AF24BB29A_19"/> 			<stop id="_9551EBD6-DE27-43C8-B9D9-132AF24BB29Afill_border" offset="100%" stop-color="#000000" stop-opacity="1" stroke="#000000"/> 		</radialGradient> 	</defs> 	 	<rect id="_9551EBD6-DE27-43C8-B9D9-132AF24BB29Atext_frame" oryx:anchors="bottom top right left" x="1" y="1" width="94" height="79" rx="10" ry="10" stroke="none" stroke-width="0" fill="none"/> 	<rect id="_9551EBD6-DE27-43C8-B9D9-132AF24BB29Abg_frame" oryx:resize="vertical horizontal" x="0" y="0" width="100" height="80" rx="10" ry="10" stroke="#000000" stroke-width="1" fill="url(#_9551EBD6-DE27-43C8-B9D9-132AF24BB29Abackground) #ffffcc"/> 		<text font-size="12" id="_9551EBD6-DE27-43C8-B9D9-132AF24BB29Atext_name" x="50" y="40" oryx:align="middle center" oryx:fittoelem="text_frame" stroke="black" text-anchor="middle" stroke-width="0pt" letter-spacing="-0.01px" fill="#000000" transform="rotate(0 50 40)" visibility="inherit" oryx:fontSize="12"><tspan x="50" y="40" dy="-1" id="ext-gen1390">ingresar </tspan><tspan x="50" y="40" dy="11" id="ext-gen1434">nombre</tspan></text>     <g id="_9551EBD6-DE27-43C8-B9D9-132AF24BB29AmanualTask" transform="scale(0.7,0.7) translate(8,8)" display="none">     	<path oryx:anchors="top left" id="_9551EBD6-DE27-43C8-B9D9-132AF24BB29Aframe" style="opacity:1;fill:none;fill-opacity:1;stroke-width:1" d="M0.5,3.751l4.083-3.25c0,0,11.166,0.083,12.083,0.083s-2.417,2.917-1.5,2.917     s11.667,0,12.584,0c1.166,1.708-0.168,3.167-0.834,3.667s0.875,1.917-1,4.417c-0.75,0.25,0.75,1.875-1.333,3.333     c-1.167,0.583,0.583,1.542-1.25,2.833c-1.167,0-20.833,0.083-20.833,0.083l-2-1.333V3.751z" stroke="#000000"/> 		<path id="_9551EBD6-DE27-43C8-B9D9-132AF24BB29Aframe2" oryx:anchors="top left" style="opacity:1;fill:none;stroke-width:2" d="M 13.5 7 L 27 7" stroke="#000000"/> 		<path id="_9551EBD6-DE27-43C8-B9D9-132AF24BB29Aframe3" oryx:anchors="top left" style="opacity:1;fill:none;stroke-width:2" d="M 13.5 11 L 26 11" stroke="#000000"/> 		<path id="_9551EBD6-DE27-43C8-B9D9-132AF24BB29Aframe4" oryx:anchors="top left" style="opacity:1;fill:none;stroke-width:1.5" d="M 14 14.5 L 25 14.5" stroke="#000000"/> 		<path id="_9551EBD6-DE27-43C8-B9D9-132AF24BB29Aframe5" oryx:anchors="top left" style="opacity:1;fill:none;stroke-width:1.5" d="M 8.2 3.1 L 15 3.1" stroke="#000000"/> 	</g> 	 	<g id="_9551EBD6-DE27-43C8-B9D9-132AF24BB29AbusinessRuleTask" transform="scale(0.7,0.7) translate(8,8)" display="none"> 		<rect id="_9551EBD6-DE27-43C8-B9D9-132AF24BB29Aframe6" oryx:anchors="top left" x="0" y="0" width="22" height="4" style="opacity:1;fill:#B3B1B3;fill-opacity:1;" stroke="#000000"/> 		<rect id="_9551EBD6-DE27-43C8-B9D9-132AF24BB29Aframe7" oryx:anchors="top left" x="0" y="4" style="opacity:1;fill:none;" width="22" height="12" stroke="#000000"/> 		<path id="_9551EBD6-DE27-43C8-B9D9-132AF24BB29Aframe8" oryx:anchors="top left" style="opacity:1;fill:none;" d="M 0 10 L 22 10" stroke="#000000"/> 		<path id="_9551EBD6-DE27-43C8-B9D9-132AF24BB29Aframe9" oryx:anchors="top left" style="opacity:1; fill:none;" d="M 7 4 L 7 16" stroke="#000000"/> 	</g> 	 	<g id="_9551EBD6-DE27-43C8-B9D9-132AF24BB29AscriptTask" transform="scale(0.7,0.7) translate(8,8)" display="none"> 		<path oryx:anchors="top left" id="_9551EBD6-DE27-43C8-B9D9-132AF24BB29Aframe10" style="opacity:1;fill:none;" stroke="#000000" d="M6.402,0.5h14.5c0,0-5.833,2.833-5.833,5.583s4.417,6,4.417,9.167    s-4.167,5.083-4.167,5.083H0.235c0,0,5-2.667,5-5s-4.583-6.75-4.583-9.25S6.402,0.5,6.402,0.5z"/> 		<path oryx:anchors="top left" id="_9551EBD6-DE27-43C8-B9D9-132AF24BB29Aframe11" style="opacity:1;fill:none;stroke-width:1.5" d="M 3.5 4.5 L 13.5 4.5" stroke="#000000"/> 		<path oryx:anchors="top left" id="_9551EBD6-DE27-43C8-B9D9-132AF24BB29Aframe12" style="opacity:1;fill:none;stroke-width:1.5" d="M 3.8 8.5 L 13.8 8.5" stroke="#000000"/> 		<path oryx:anchors="top left" id="_9551EBD6-DE27-43C8-B9D9-132AF24BB29Aframe13" style="opacity:1;fill:none;stroke-width:1.5" d="M 6.3 12.5 L 16.3 12.5" stroke="#000000"/> 		<path oryx:anchors="top left" id="_9551EBD6-DE27-43C8-B9D9-132AF24BB29Aframe14" style="opacity:1;fill:none;stroke-width:1.5" d="M 6.5 16.5 L 16.5 16.5" stroke="#000000"/> 	</g> 	 	<g id="_9551EBD6-DE27-43C8-B9D9-132AF24BB29AuserTask" transform="scale(0.7,0.7) translate(8,8)" display="inherit"> 		<path id="_9551EBD6-DE27-43C8-B9D9-132AF24BB29Aframe15" oryx:anchors="top left" style="opacity:1;fill:#F4F6F7" stroke="#000000" d="M0.585,24.167h24.083v-7.833c0,0-2.333-3.917-7.083-5.167h-9.25    c-4.417,1.333-7.833,5.75-7.833,5.75L0.585,24.167z"/> 		<path id="_9551EBD6-DE27-43C8-B9D9-132AF24BB29Aframe16" oryx:anchors="top left" style="opacity:1;fill:none" d="M 6 20 L 6 24" stroke="#000000"/> 		<path id="_9551EBD6-DE27-43C8-B9D9-132AF24BB29Aframe17" oryx:anchors="top left" style="opacity:1;fill:none" d="M 20 20 L 20 24" stroke="#000000"/> 		<circle id="_9551EBD6-DE27-43C8-B9D9-132AF24BB29Aframe18" oryx:anchors="top left" fill="black" cx="13.002" cy="5.916" r="5.417" stroke="#000000"/> 		<path id="_9551EBD6-DE27-43C8-B9D9-132AF24BB29Aframe19" oryx:anchors="top left" style="opacity:1;fill:#F0EFF0;" stroke="#000000" d="M8.043,7.083c0,0,2.814-2.426,5.376-1.807s4.624-0.693,4.624-0.693    c0.25,1.688,0.042,3.75-1.458,5.584c0,0,1.083,0.75,1.083,1.5s0.125,1.875-1,3s-5.5,1.25-6.75,0S8.668,12.834,8.668,12    s0.583-1.25,1.25-1.917C8.835,9.5,7.419,7.708,8.043,7.083z"/> 	</g> 	 	<g id="_9551EBD6-DE27-43C8-B9D9-132AF24BB29AserviceTask" transform="scale(0.7,0.7) translate(8,8)" display="none"> 		<polygon oryx:anchors="top left" id="_9551EBD6-DE27-43C8-B9D9-132AF24BB29Aframe20" style="opacity:1;fill:#ffffff" stroke="#000000" points="15.392,5.064 17.954,2.502 20.347,4.895 17.786,7.455     18.729,9.732 22.353,9.732 22.353,13.115 18.731,13.115 17.788,15.392 20.351,17.955 17.958,20.347 15.397,17.786 13.12,18.729     13.12,22.353 9.737,22.353 9.737,18.731 7.46,17.788 4.897,20.35 2.506,17.958 5.066,15.397 4.124,13.12 0.5,13.12 0.5,9.737     4.121,9.737 5.065,7.461 2.503,4.898 4.895,2.506 7.455,5.066 9.732,4.125 9.732,0.5 13.116,0.5 13.116,4.121 "/> 		<circle oryx:anchors="top left" id="_9551EBD6-DE27-43C8-B9D9-132AF24BB29Aframe21" style="opacity:1;fill:none" stroke="#000000" cx="11.427" cy="11.426" r="3.714"/> 		<polygon oryx:anchors="top left" id="_9551EBD6-DE27-43C8-B9D9-132AF24BB29Aframe22" style="opacity:1;fill:#ffffff" stroke="#000000" points="21.392,11.064 23.954,8.502 26.347,10.895 23.786,13.455     24.729,15.732 28.353,15.732 28.353,19.115 24.731,19.115 23.788,21.392 26.351,23.955 23.958,26.347 21.397,23.786 19.12,24.729     19.12,28.353 15.737,28.353 15.737,24.731 13.46,23.788 10.897,26.35 8.506,23.958 11.066,21.397 10.124,19.12 6.5,19.12     6.5,15.737 10.121,15.737 11.065,13.461 8.503,10.898 10.895,8.506 13.455,11.066 15.732,10.125 15.732,6.5 19.116,6.5     19.116,10.121 "/> 		<circle oryx:anchors="top left" id="_9551EBD6-DE27-43C8-B9D9-132AF24BB29Aframe23" style="opacity:1;fill:none;" stroke="#000000" cx="17.427" cy="17.426" r="3.714"/> 	</g> 	 	<g id="_9551EBD6-DE27-43C8-B9D9-132AF24BB29AsendTask" display="none"> 		<path id="_9551EBD6-DE27-43C8-B9D9-132AF24BB29Astframe24" oryx:anchors="left top" stroke="#FFFFFF" fill="black" stroke-width="1" d="M8,11 L8,21 L24,21 L24,11 L16,17z"/> 		<path id="_9551EBD6-DE27-43C8-B9D9-132AF24BB29Astframe25" oryx:anchors="left top" stroke="#FFFFFF" fill="black" stroke-width="1" d="M7,10 L16,17 L25 10z"/> 	</g> 	 	<g id="_9551EBD6-DE27-43C8-B9D9-132AF24BB29AreceiveTask" display="none"> 		<path id="_9551EBD6-DE27-43C8-B9D9-132AF24BB29Aframe26" oryx:anchors="left top" stroke="#000000" fill="none" stroke-width="1" d="M8,11 L8,21 L24,21 L24,11z M8,11 L16,17 L24,11"/> 	</g> 	 	<g id="_9551EBD6-DE27-43C8-B9D9-132AF24BB29Anone" display="none"/>  	<g id="_9551EBD6-DE27-43C8-B9D9-132AF24BB29Asequential" display="none">         <path oryx:anchors="bottom" fill="none" stroke="#000000" stroke-width="2" d="M46,76h10M46,72h10 M46,68h10" id="_9551EBD6-DE27-43C8-B9D9-132AF24BB29A__9551EBD6-DE27-43C8-B9D9-132AF24BB29A_20"/>     </g>   </g></g><g class="children" style="overflow:hidden"/><g class="edge"/></g><g class="controls"><g class="dockers"/><g class="magnets" transform="translate(300, 110)"><g pointer-events="all" display="none" transform="translate(-7, 12)"><circle cx="8" cy="8" r="4" stroke="none" fill="red" fill-opacity="0.3"/></g><g pointer-events="all" display="none" transform="translate(-7, 32)"><circle cx="8" cy="8" r="4" stroke="none" fill="red" fill-opacity="0.3"/></g><g pointer-events="all" display="none" transform="translate(-7, 52)"><circle cx="8" cy="8" r="4" stroke="none" fill="red" fill-opacity="0.3"/></g><g pointer-events="all" display="none" transform="translate(17, 71)"><circle cx="8" cy="8" r="4" stroke="none" fill="red" fill-opacity="0.3"/></g><g pointer-events="all" display="none" transform="translate(42, 71)"><circle cx="8" cy="8" r="4" stroke="none" fill="red" fill-opacity="0.3"/></g><g pointer-events="all" display="none" transform="translate(67, 71)"><circle cx="8" cy="8" r="4" stroke="none" fill="red" fill-opacity="0.3"/></g><g pointer-events="all" display="none" transform="translate(91, 12)"><circle cx="8" cy="8" r="4" stroke="none" fill="red" fill-opacity="0.3"/></g><g pointer-events="all" display="none" transform="translate(91, 32)"><circle cx="8" cy="8" r="4" stroke="none" fill="red" fill-opacity="0.3"/></g><g pointer-events="all" display="none" transform="translate(91, 52)"><circle cx="8" cy="8" r="4" stroke="none" fill="red" fill-opacity="0.3"/></g><g pointer-events="all" display="none" transform="translate(17, -7)"><circle cx="8" cy="8" r="4" stroke="none" fill="red" fill-opacity="0.3"/></g><g pointer-events="all" display="none" transform="translate(42, -7)"><circle cx="8" cy="8" r="4" stroke="none" fill="red" fill-opacity="0.3"/></g><g pointer-events="all" display="none" transform="translate(67, -7)"><circle cx="8" cy="8" r="4" stroke="none" fill="red" fill-opacity="0.3"/></g><g pointer-events="all" display="none" transform="translate(42, 32)"><circle cx="8" cy="8" r="4" stroke="none" fill="red" fill-opacity="0.3"/></g></g></g></g><g id="_1F8C6D4C-B084-4896-AB95-53E5B2BA3A3E" bpmn2nodeid="_8BBEE628-051D-408A-B2EC-AE19006ACE18"><g class="stencils" transform="translate(660, 135)"><g class="me"><g pointer-events="fill" id="_1F8C6D4C-B084-4896-AB95-53E5B2BA3A3E">      <defs id="_1F8C6D4C-B084-4896-AB95-53E5B2BA3A3E__1F8C6D4C-B084-4896-AB95-53E5B2BA3A3E_5"> 		<radialGradient id="_1F8C6D4C-B084-4896-AB95-53E5B2BA3A3Ebackground" cx="10%" cy="10%" r="100%" fx="10%" fy="10%"> 			<stop offset="0%" stop-color="#ffffff" stop-opacity="1" id="_1F8C6D4C-B084-4896-AB95-53E5B2BA3A3E__1F8C6D4C-B084-4896-AB95-53E5B2BA3A3E_6"/> 			<stop id="_1F8C6D4C-B084-4896-AB95-53E5B2BA3A3Efill_el" offset="100%" stop-color="#ff6347" stop-opacity="1"/> 		</radialGradient> 	</defs> 	     <circle id="_1F8C6D4C-B084-4896-AB95-53E5B2BA3A3Ebg_frame" cx="14" cy="14" r="14" stroke="#000000" fill="url(#_1F8C6D4C-B084-4896-AB95-53E5B2BA3A3Ebackground) white" stroke-width="3"/> 	<text font-size="11" id="_1F8C6D4C-B084-4896-AB95-53E5B2BA3A3Etext_name" x="14" y="30" oryx:align="top center" stroke="black" stroke-width="0pt" letter-spacing="-0.01px" fill="#000000" text-anchor="middle" transform="rotate(0 14 30)" visibility="inherit" oryx:fontSize="11"/>   </g></g><g class="children" style="overflow:hidden"/><g class="edge"/></g><g class="controls"><g class="dockers"/><g class="magnets" transform="translate(660, 135)"><g pointer-events="all" display="none" transform="translate(6, 6)"><circle cx="8" cy="8" r="4" stroke="none" fill="red" fill-opacity="0.3"/></g></g></g></g><g id="_3ED13F1A-140F-463E-9BA7-DD07EBBB1F20" bpmn2nodeid="_E33362E6-3DDC-4A24-8A88-817F5854E61D"><g class="stencils" transform="translate(465, 109)"><g class="me"><g pointer-events="fill" oryx:minimumSize="50 40" id="_3ED13F1A-140F-463E-9BA7-DD07EBBB1F20">   	<defs id="_3ED13F1A-140F-463E-9BA7-DD07EBBB1F20__3ED13F1A-140F-463E-9BA7-DD07EBBB1F20_17"> 		<radialGradient id="_3ED13F1A-140F-463E-9BA7-DD07EBBB1F20background" cx="10%" cy="10%" r="100%" fx="10%" fy="10%"> 			<stop offset="0%" stop-color="#ffffff" stop-opacity="1" id="_3ED13F1A-140F-463E-9BA7-DD07EBBB1F20__3ED13F1A-140F-463E-9BA7-DD07EBBB1F20_18"/> 			<stop id="_3ED13F1A-140F-463E-9BA7-DD07EBBB1F20fill_el" offset="100%" stop-color="#fafad2" stop-opacity="1"/> 		</radialGradient> 		<radialGradient id="_3ED13F1A-140F-463E-9BA7-DD07EBBB1F20borderbackground" cx="10%" cy="10%" r="100%" fx="10%" fy="10%"> 			<stop offset="0%" stop-color="#ffffff" stop-opacity="1" id="_3ED13F1A-140F-463E-9BA7-DD07EBBB1F20__3ED13F1A-140F-463E-9BA7-DD07EBBB1F20_19"/> 			<stop id="_3ED13F1A-140F-463E-9BA7-DD07EBBB1F20fill_border" offset="100%" stop-color="#000000" stop-opacity="1" stroke="#000000"/> 		</radialGradient> 	</defs> 	 	<rect id="_3ED13F1A-140F-463E-9BA7-DD07EBBB1F20text_frame" oryx:anchors="bottom top right left" x="1" y="1" width="94" height="79" rx="10" ry="10" stroke="none" stroke-width="0" fill="none"/> 	<rect id="_3ED13F1A-140F-463E-9BA7-DD07EBBB1F20bg_frame" oryx:resize="vertical horizontal" x="0" y="0" width="100" height="80" rx="10" ry="10" stroke="#000000" stroke-width="1" fill="url(#_3ED13F1A-140F-463E-9BA7-DD07EBBB1F20background) #ffffcc"/> 		<text font-size="12" id="_3ED13F1A-140F-463E-9BA7-DD07EBBB1F20text_name" x="50" y="40" oryx:align="middle center" oryx:fittoelem="text_frame" stroke="black" text-anchor="middle" stroke-width="0pt" letter-spacing="-0.01px" fill="#000000" transform="rotate(0 50 40)" visibility="inherit" oryx:fontSize="12"><tspan x="50" y="40" dy="5">imprimir</tspan></text>     <g id="_3ED13F1A-140F-463E-9BA7-DD07EBBB1F20manualTask" transform="scale(0.7,0.7) translate(8,8)" display="none">     	<path oryx:anchors="top left" id="_3ED13F1A-140F-463E-9BA7-DD07EBBB1F20frame" style="opacity:1;fill:none;fill-opacity:1;stroke-width:1" d="M0.5,3.751l4.083-3.25c0,0,11.166,0.083,12.083,0.083s-2.417,2.917-1.5,2.917     s11.667,0,12.584,0c1.166,1.708-0.168,3.167-0.834,3.667s0.875,1.917-1,4.417c-0.75,0.25,0.75,1.875-1.333,3.333     c-1.167,0.583,0.583,1.542-1.25,2.833c-1.167,0-20.833,0.083-20.833,0.083l-2-1.333V3.751z" stroke="#000000"/> 		<path id="_3ED13F1A-140F-463E-9BA7-DD07EBBB1F20frame2" oryx:anchors="top left" style="opacity:1;fill:none;stroke-width:2" d="M 13.5 7 L 27 7" stroke="#000000"/> 		<path id="_3ED13F1A-140F-463E-9BA7-DD07EBBB1F20frame3" oryx:anchors="top left" style="opacity:1;fill:none;stroke-width:2" d="M 13.5 11 L 26 11" stroke="#000000"/> 		<path id="_3ED13F1A-140F-463E-9BA7-DD07EBBB1F20frame4" oryx:anchors="top left" style="opacity:1;fill:none;stroke-width:1.5" d="M 14 14.5 L 25 14.5" stroke="#000000"/> 		<path id="_3ED13F1A-140F-463E-9BA7-DD07EBBB1F20frame5" oryx:anchors="top left" style="opacity:1;fill:none;stroke-width:1.5" d="M 8.2 3.1 L 15 3.1" stroke="#000000"/> 	</g> 	 	<g id="_3ED13F1A-140F-463E-9BA7-DD07EBBB1F20businessRuleTask" transform="scale(0.7,0.7) translate(8,8)" display="none"> 		<rect id="_3ED13F1A-140F-463E-9BA7-DD07EBBB1F20frame6" oryx:anchors="top left" x="0" y="0" width="22" height="4" style="opacity:1;fill:#B3B1B3;fill-opacity:1;" stroke="#000000"/> 		<rect id="_3ED13F1A-140F-463E-9BA7-DD07EBBB1F20frame7" oryx:anchors="top left" x="0" y="4" style="opacity:1;fill:none;" width="22" height="12" stroke="#000000"/> 		<path id="_3ED13F1A-140F-463E-9BA7-DD07EBBB1F20frame8" oryx:anchors="top left" style="opacity:1;fill:none;" d="M 0 10 L 22 10" stroke="#000000"/> 		<path id="_3ED13F1A-140F-463E-9BA7-DD07EBBB1F20frame9" oryx:anchors="top left" style="opacity:1; fill:none;" d="M 7 4 L 7 16" stroke="#000000"/> 	</g> 	 	<g id="_3ED13F1A-140F-463E-9BA7-DD07EBBB1F20scriptTask" transform="scale(0.7,0.7) translate(8,8)" display="inherit"> 		<path oryx:anchors="top left" id="_3ED13F1A-140F-463E-9BA7-DD07EBBB1F20frame10" style="opacity:1;fill:none;" stroke="#000000" d="M6.402,0.5h14.5c0,0-5.833,2.833-5.833,5.583s4.417,6,4.417,9.167    s-4.167,5.083-4.167,5.083H0.235c0,0,5-2.667,5-5s-4.583-6.75-4.583-9.25S6.402,0.5,6.402,0.5z"/> 		<path oryx:anchors="top left" id="_3ED13F1A-140F-463E-9BA7-DD07EBBB1F20frame11" style="opacity:1;fill:none;stroke-width:1.5" d="M 3.5 4.5 L 13.5 4.5" stroke="#000000"/> 		<path oryx:anchors="top left" id="_3ED13F1A-140F-463E-9BA7-DD07EBBB1F20frame12" style="opacity:1;fill:none;stroke-width:1.5" d="M 3.8 8.5 L 13.8 8.5" stroke="#000000"/> 		<path oryx:anchors="top left" id="_3ED13F1A-140F-463E-9BA7-DD07EBBB1F20frame13" style="opacity:1;fill:none;stroke-width:1.5" d="M 6.3 12.5 L 16.3 12.5" stroke="#000000"/> 		<path oryx:anchors="top left" id="_3ED13F1A-140F-463E-9BA7-DD07EBBB1F20frame14" style="opacity:1;fill:none;stroke-width:1.5" d="M 6.5 16.5 L 16.5 16.5" stroke="#000000"/> 	</g> 	 	<g id="_3ED13F1A-140F-463E-9BA7-DD07EBBB1F20userTask" transform="scale(0.7,0.7) translate(8,8)" display="none"> 		<path id="_3ED13F1A-140F-463E-9BA7-DD07EBBB1F20frame15" oryx:anchors="top left" style="opacity:1;fill:#F4F6F7" stroke="#000000" d="M0.585,24.167h24.083v-7.833c0,0-2.333-3.917-7.083-5.167h-9.25    c-4.417,1.333-7.833,5.75-7.833,5.75L0.585,24.167z"/> 		<path id="_3ED13F1A-140F-463E-9BA7-DD07EBBB1F20frame16" oryx:anchors="top left" style="opacity:1;fill:none" d="M 6 20 L 6 24" stroke="#000000"/> 		<path id="_3ED13F1A-140F-463E-9BA7-DD07EBBB1F20frame17" oryx:anchors="top left" style="opacity:1;fill:none" d="M 20 20 L 20 24" stroke="#000000"/> 		<circle id="_3ED13F1A-140F-463E-9BA7-DD07EBBB1F20frame18" oryx:anchors="top left" fill="black" cx="13.002" cy="5.916" r="5.417" stroke="#000000"/> 		<path id="_3ED13F1A-140F-463E-9BA7-DD07EBBB1F20frame19" oryx:anchors="top left" style="opacity:1;fill:#F0EFF0;" stroke="#000000" d="M8.043,7.083c0,0,2.814-2.426,5.376-1.807s4.624-0.693,4.624-0.693    c0.25,1.688,0.042,3.75-1.458,5.584c0,0,1.083,0.75,1.083,1.5s0.125,1.875-1,3s-5.5,1.25-6.75,0S8.668,12.834,8.668,12    s0.583-1.25,1.25-1.917C8.835,9.5,7.419,7.708,8.043,7.083z"/> 	</g> 	 	<g id="_3ED13F1A-140F-463E-9BA7-DD07EBBB1F20serviceTask" transform="scale(0.7,0.7) translate(8,8)" display="none"> 		<polygon oryx:anchors="top left" id="_3ED13F1A-140F-463E-9BA7-DD07EBBB1F20frame20" style="opacity:1;fill:#ffffff" stroke="#000000" points="15.392,5.064 17.954,2.502 20.347,4.895 17.786,7.455     18.729,9.732 22.353,9.732 22.353,13.115 18.731,13.115 17.788,15.392 20.351,17.955 17.958,20.347 15.397,17.786 13.12,18.729     13.12,22.353 9.737,22.353 9.737,18.731 7.46,17.788 4.897,20.35 2.506,17.958 5.066,15.397 4.124,13.12 0.5,13.12 0.5,9.737     4.121,9.737 5.065,7.461 2.503,4.898 4.895,2.506 7.455,5.066 9.732,4.125 9.732,0.5 13.116,0.5 13.116,4.121 "/> 		<circle oryx:anchors="top left" id="_3ED13F1A-140F-463E-9BA7-DD07EBBB1F20frame21" style="opacity:1;fill:none" stroke="#000000" cx="11.427" cy="11.426" r="3.714"/> 		<polygon oryx:anchors="top left" id="_3ED13F1A-140F-463E-9BA7-DD07EBBB1F20frame22" style="opacity:1;fill:#ffffff" stroke="#000000" points="21.392,11.064 23.954,8.502 26.347,10.895 23.786,13.455     24.729,15.732 28.353,15.732 28.353,19.115 24.731,19.115 23.788,21.392 26.351,23.955 23.958,26.347 21.397,23.786 19.12,24.729     19.12,28.353 15.737,28.353 15.737,24.731 13.46,23.788 10.897,26.35 8.506,23.958 11.066,21.397 10.124,19.12 6.5,19.12     6.5,15.737 10.121,15.737 11.065,13.461 8.503,10.898 10.895,8.506 13.455,11.066 15.732,10.125 15.732,6.5 19.116,6.5     19.116,10.121 "/> 		<circle oryx:anchors="top left" id="_3ED13F1A-140F-463E-9BA7-DD07EBBB1F20frame23" style="opacity:1;fill:none;" stroke="#000000" cx="17.427" cy="17.426" r="3.714"/> 	</g> 	 	<g id="_3ED13F1A-140F-463E-9BA7-DD07EBBB1F20sendTask" display="none"> 		<path id="_3ED13F1A-140F-463E-9BA7-DD07EBBB1F20stframe24" oryx:anchors="left top" stroke="#FFFFFF" fill="black" stroke-width="1" d="M8,11 L8,21 L24,21 L24,11 L16,17z"/> 		<path id="_3ED13F1A-140F-463E-9BA7-DD07EBBB1F20stframe25" oryx:anchors="left top" stroke="#FFFFFF" fill="black" stroke-width="1" d="M7,10 L16,17 L25 10z"/> 	</g> 	 	<g id="_3ED13F1A-140F-463E-9BA7-DD07EBBB1F20receiveTask" display="none"> 		<path id="_3ED13F1A-140F-463E-9BA7-DD07EBBB1F20frame26" oryx:anchors="left top" stroke="#000000" fill="none" stroke-width="1" d="M8,11 L8,21 L24,21 L24,11z M8,11 L16,17 L24,11"/> 	</g> 	 	<g id="_3ED13F1A-140F-463E-9BA7-DD07EBBB1F20none" display="none"/>  	<g id="_3ED13F1A-140F-463E-9BA7-DD07EBBB1F20sequential" display="none">         <path oryx:anchors="bottom" fill="none" stroke="#000000" stroke-width="2" d="M46,76h10M46,72h10 M46,68h10" id="_3ED13F1A-140F-463E-9BA7-DD07EBBB1F20__3ED13F1A-140F-463E-9BA7-DD07EBBB1F20_20"/>     </g>   </g></g><g class="children" style="overflow:hidden"/><g class="edge"/></g><g class="controls"><g class="dockers"/><g class="magnets" transform="translate(465, 109)"><g pointer-events="all" display="none" transform="translate(-7, 12)"><circle cx="8" cy="8" r="4" stroke="none" fill="red" fill-opacity="0.3"/></g><g pointer-events="all" display="none" transform="translate(-7, 32)"><circle cx="8" cy="8" r="4" stroke="none" fill="red" fill-opacity="0.3"/></g><g pointer-events="all" display="none" transform="translate(-7, 52)"><circle cx="8" cy="8" r="4" stroke="none" fill="red" fill-opacity="0.3"/></g><g pointer-events="all" display="none" transform="translate(17, 71)"><circle cx="8" cy="8" r="4" stroke="none" fill="red" fill-opacity="0.3"/></g><g pointer-events="all" display="none" transform="translate(42, 71)"><circle cx="8" cy="8" r="4" stroke="none" fill="red" fill-opacity="0.3"/></g><g pointer-events="all" display="none" transform="translate(67, 71)"><circle cx="8" cy="8" r="4" stroke="none" fill="red" fill-opacity="0.3"/></g><g pointer-events="all" display="none" transform="translate(91, 12)"><circle cx="8" cy="8" r="4" stroke="none" fill="red" fill-opacity="0.3"/></g><g pointer-events="all" display="none" transform="translate(91, 32)"><circle cx="8" cy="8" r="4" stroke="none" fill="red" fill-opacity="0.3"/></g><g pointer-events="all" display="none" transform="translate(91, 52)"><circle cx="8" cy="8" r="4" stroke="none" fill="red" fill-opacity="0.3"/></g><g pointer-events="all" display="none" transform="translate(17, -7)"><circle cx="8" cy="8" r="4" stroke="none" fill="red" fill-opacity="0.3"/></g><g pointer-events="all" display="none" transform="translate(42, -7)"><circle cx="8" cy="8" r="4" stroke="none" fill="red" fill-opacity="0.3"/></g><g pointer-events="all" display="none" transform="translate(67, -7)"><circle cx="8" cy="8" r="4" stroke="none" fill="red" fill-opacity="0.3"/></g><g pointer-events="all" display="none" transform="translate(42, 32)"><circle cx="8" cy="8" r="4" stroke="none" fill="red" fill-opacity="0.3"/></g></g></g></g></g><g class="edge"><g id="_56170101-C6F5-4B8E-93B1-7D63491466BB" bpmn2nodeid="_A9A4802D-19CE-45F2-9173-3705182C241E"><g class="stencils"><g class="me"><g pointer-events="painted" bpmn2nodeid="_A9A4802D-19CE-45F2-9173-3705182C241E"><path id="_56170101-C6F5-4B8E-93B1-7D63491466BB_1" d="M240.6484375 150L299.1953125 150 " stroke="#000000" fill="none" stroke-width="2" stroke-linecap="round" stroke-linejoin="round" marker-start="url(#_56170101-C6F5-4B8E-93B1-7D63491466BBstart)" marker-end="url(#_56170101-C6F5-4B8E-93B1-7D63491466BBend)"/></g><text id="_56170101-C6F5-4B8E-93B1-7D63491466BBtext_name" font-size="12" x="254.6484375" y="136" oryx:edgePosition="startTop" stroke-width="0pt" letter-spacing="-0.01px" fill="#000000" text-anchor="start" transform="rotate(360 240.6484375 150)" visibility="inherit" oryx:fontSize="12"/></g><g class="children" style="overflow:hidden"/><g class="edge"/></g><g class="controls"><g class="dockers"/><g class="magnets"/></g></g><g id="_529EBFCC-5678-46A6-B730-ED031434CDB7" bpmn2nodeid="_3F03C82C-F1DE-40F0-8B00-083BDFD40E0B"><g class="stencils"><g class="me"><g pointer-events="painted" bpmn2nodeid="_3F03C82C-F1DE-40F0-8B00-083BDFD40E0B"><path id="_529EBFCC-5678-46A6-B730-ED031434CDB7_1" d="M400.628887885033 149.69315825524222L464.371112114967 149.30684174475778 " stroke="#000000" fill="none" stroke-width="2" stroke-linecap="round" stroke-linejoin="round" marker-start="url(#_529EBFCC-5678-46A6-B730-ED031434CDB7start)" marker-end="url(#_529EBFCC-5678-46A6-B730-ED031434CDB7end)"/></g><text id="_529EBFCC-5678-46A6-B730-ED031434CDB7text_name" font-size="12" x="414.628887885033" y="135.69315825524222" oryx:edgePosition="startTop" stroke-width="0pt" letter-spacing="-0.01px" fill="#000000" text-anchor="start" transform="rotate(359.6527571029142 400.628887885033 149.69315825524222)" visibility="inherit" oryx:fontSize="12"/></g><g class="children" style="overflow:hidden"/><g class="edge"/></g><g class="controls"><g class="dockers"/><g class="magnets"/></g></g><g id="_57CD24E1-FAD3-403C-B365-78124359D5CC" bpmn2nodeid="_FFDD29C6-A627-4EE1-8872-AE8C37536BEF"><g class="stencils"><g class="me"><g pointer-events="painted" bpmn2nodeid="_FFDD29C6-A627-4EE1-8872-AE8C37536BEF"><path id="_57CD24E1-FAD3-403C-B365-78124359D5CC_1" d="M565.6875 149L659.3359375 149 " stroke="#000000" fill="none" stroke-width="2" stroke-linecap="round" stroke-linejoin="round" marker-start="url(#_57CD24E1-FAD3-403C-B365-78124359D5CCstart)" marker-end="url(#_57CD24E1-FAD3-403C-B365-78124359D5CCend)"/></g><text id="_57CD24E1-FAD3-403C-B365-78124359D5CCtext_name" font-size="12" x="579.6875" y="135" oryx:edgePosition="startTop" stroke-width="0pt" letter-spacing="-0.01px" fill="#000000" text-anchor="start" transform="rotate(360 565.6875 149)" visibility="inherit" oryx:fontSize="12"/></g><g class="children" style="overflow:hidden"/><g class="edge"/></g><g class="controls"><g class="dockers"/><g class="magnets"/></g></g></g><text id="_F6E7E49F-E3F3-4327-87D2-2081FE1E2109" style="stroke-width:1;fill:rgb(177,194,214);font-family:arial;font-weight:bold" font-size="12" onclick="ORYX.Plugins.CanvasTitle.openTextualAnalysis()" onmouseover="ORYX.Plugins.CanvasTitle.addToolTip('_F6E7E49F-E3F3-4327-87D2-2081FE1E2109')" transform="translate(10, 20)">PocConsummer v.1.0 (co.com.soaint.bpm.process.PocConsummer)</text></g></g></svg>