<svg xmlns="http://www.w3.org/2000/svg" xmlns:oryx="http://oryx-editor.org" id="_D1F0A0D6-0371-4E09-BD99-79F24A371AD5" width="841" height="423" xmlns:xlink="http://www.w3.org/1999/xlink" xmlns:svg="http://www.w3.org/2000/svg"><defs><marker id="_54790F9A-EDC0-48E3-BF22-124137B8DA71start" refX="1" refY="5" markerUnits="userSpaceOnUse" markerWidth="17" markerHeight="11" orient="auto" fill="#000000" stroke="#000000"> 	  		<path id="_54790F9A-EDC0-48E3-BF22-124137B8DA71conditional" d="M 0 5 L 8 0 L 16 5 L 8 10 L 0 5" fill="white" stroke="#000000" stroke-width="1" display="none"/> 			<path id="_54790F9A-EDC0-48E3-BF22-124137B8DA71default" d="M 5 0 L 11 10" fill="white" stroke="#000000" stroke-width="1" display="none"/> 	  	</marker><marker id="_54790F9A-EDC0-48E3-BF22-124137B8DA71end" refX="15" refY="6" markerUnits="userSpaceOnUse" markerWidth="15" markerHeight="12" orient="auto" fill="#000000" stroke="#000000"> 	  		<path id="_54790F9A-EDC0-48E3-BF22-124137B8DA71frame2" d="M 0 1 L 15 6 L 0 11z" fill="#000000" stroke="#000000" stroke-linejoin="round" stroke-width="2"/> 	  	</marker><marker id="_FDE7B2EC-F68E-4B74-AD44-3820A85971B0start" refX="1" refY="5" markerUnits="userSpaceOnUse" markerWidth="17" markerHeight="11" orient="auto" fill="#000000" stroke="#000000"> 	  		<path id="_FDE7B2EC-F68E-4B74-AD44-3820A85971B0conditional" d="M 0 5 L 8 0 L 16 5 L 8 10 L 0 5" fill="white" stroke="#000000" stroke-width="1" display="none"/> 			<path id="_FDE7B2EC-F68E-4B74-AD44-3820A85971B0default" d="M 5 0 L 11 10" fill="white" stroke="#000000" stroke-width="1" display="none"/> 	  	</marker><marker id="_FDE7B2EC-F68E-4B74-AD44-3820A85971B0end" refX="15" refY="6" markerUnits="userSpaceOnUse" markerWidth="15" markerHeight="12" orient="auto" fill="#000000" stroke="#000000"> 	  		<path id="_FDE7B2EC-F68E-4B74-AD44-3820A85971B0frame2" d="M 0 1 L 15 6 L 0 11z" fill="#000000" stroke="#000000" stroke-linejoin="round" stroke-width="2"/> 	  	</marker><marker id="_81891591-021F-4200-9F67-F62136A9C9EDstart" refX="1" refY="5" markerUnits="userSpaceOnUse" markerWidth="17" markerHeight="11" orient="auto" fill="#000000" stroke="#000000"> 	  		<path id="_81891591-021F-4200-9F67-F62136A9C9EDconditional" d="M 0 5 L 8 0 L 16 5 L 8 10 L 0 5" fill="white" stroke="#000000" stroke-width="1" display="none"/> 			<path id="_81891591-021F-4200-9F67-F62136A9C9EDdefault" d="M 5 0 L 11 10" fill="white" stroke="#000000" stroke-width="1" display="none"/> 	  	</marker><marker id="_81891591-021F-4200-9F67-F62136A9C9EDend" refX="15" refY="6" markerUnits="userSpaceOnUse" markerWidth="15" markerHeight="12" orient="auto" fill="#000000" stroke="#000000"> 	  		<path id="_81891591-021F-4200-9F67-F62136A9C9EDframe2" d="M 0 1 L 15 6 L 0 11z" fill="#000000" stroke="#000000" stroke-linejoin="round" stroke-width="2"/> 	  	</marker><marker id="_0A7B185E-FD7D-41DD-9306-9D013E7E0576start" refX="1" refY="5" markerUnits="userSpaceOnUse" markerWidth="17" markerHeight="11" orient="auto" fill="#000000" stroke="#000000"> 	  		<path id="_0A7B185E-FD7D-41DD-9306-9D013E7E0576conditional" d="M 0 5 L 8 0 L 16 5 L 8 10 L 0 5" fill="white" stroke="#000000" stroke-width="1" display="none"/> 			<path id="_0A7B185E-FD7D-41DD-9306-9D013E7E0576default" d="M 5 0 L 11 10" fill="white" stroke="#000000" stroke-width="1" display="none"/> 	  	</marker><marker id="_0A7B185E-FD7D-41DD-9306-9D013E7E0576end" refX="15" refY="6" markerUnits="userSpaceOnUse" markerWidth="15" markerHeight="12" orient="auto" fill="#000000" stroke="#000000"> 	  		<path id="_0A7B185E-FD7D-41DD-9306-9D013E7E0576frame2" d="M 0 1 L 15 6 L 0 11z" fill="#000000" stroke="#000000" stroke-linejoin="round" stroke-width="2"/> 	  	</marker><marker id="_5BA2A795-DE1D-4A17-B914-5009D402E422start" refX="1" refY="5" markerUnits="userSpaceOnUse" markerWidth="17" markerHeight="11" orient="auto" fill="#000000" stroke="#000000"> 	  		<path id="_5BA2A795-DE1D-4A17-B914-5009D402E422conditional" d="M 0 5 L 8 0 L 16 5 L 8 10 L 0 5" fill="white" stroke="#000000" stroke-width="1" display="none"/> 			<path id="_5BA2A795-DE1D-4A17-B914-5009D402E422default" d="M 5 0 L 11 10" fill="white" stroke="#000000" stroke-width="1" display="none"/> 	  	</marker><marker id="_5BA2A795-DE1D-4A17-B914-5009D402E422end" refX="15" refY="6" markerUnits="userSpaceOnUse" markerWidth="15" markerHeight="12" orient="auto" fill="#000000" stroke="#000000"> 	  		<path id="_5BA2A795-DE1D-4A17-B914-5009D402E422frame2" d="M 0 1 L 15 6 L 0 11z" fill="#000000" stroke="#000000" stroke-linejoin="round" stroke-width="2"/> 	  	</marker></defs><g stroke="none" font-family="Verdana, sans-serif" font-size-adjust="none" font-style="normal" font-variant="normal" font-weight="normal" line-heigth="normal" font-size="12"><g class="stencils" transform="translate(15, 17)"><g class="me"/><g class="children"><g id="_23DE1852-1E0E-4261-B67F-C184D1B4E9E0" bpmn2nodeid="_62A89253-A259-49F0-AC09-5C9091DB87CA"><g class="stencils" transform="translate(10, 40)"><g class="me"><g pointer-events="painted" id="_23DE1852-1E0E-4261-B67F-C184D1B4E9E0">         <defs id="_23DE1852-1E0E-4261-B67F-C184D1B4E9E0__23DE1852-1E0E-4261-B67F-C184D1B4E9E0_3"> 		<radialGradient id="_23DE1852-1E0E-4261-B67F-C184D1B4E9E0background" cx="0%" cy="10%" r="100%" fx="20%" fy="10%"> 			<stop offset="0%" stop-color="#ffffff" stop-opacity="1" id="_23DE1852-1E0E-4261-B67F-C184D1B4E9E0__23DE1852-1E0E-4261-B67F-C184D1B4E9E0_4"/> 			<stop id="_23DE1852-1E0E-4261-B67F-C184D1B4E9E0fill_el" offset="100%" stop-color="#ffffff" stop-opacity="1"/> 		</radialGradient> 	</defs> 	   	 	<rect id="_23DE1852-1E0E-4261-B67F-C184D1B4E9E0border" oryx:resize="vertical horizontal" x="0" y="0" width="791" height="150" stroke="#000000" stroke-width="1" fill="url(#_23DE1852-1E0E-4261-B67F-C184D1B4E9E0background) white"/> 	 	 	 	<path id="_23DE1852-1E0E-4261-B67F-C184D1B4E9E0frame2" style="fill:none;stroke-width:1" d=" M0 0  L0 150 " oryx:anchors="left top bottom" stroke="#000000"/> 	 	undefined 	     <text x="50" y="75" oryx:rotate="270" font-size="12" id="_23DE1852-1E0E-4261-B67F-C184D1B4E9E0text_name" oryx:align="middle center" oryx:anchors="left" oryx:fittoelem="frame" stroke="black" stroke-width="0pt" letter-spacing="-0.01px" fill="#000000" text-anchor="middle" transform="rotate(270 50 75)" visibility="inherit" oryx:fontSize="12"><tspan x="50" y="75" dy="5">Proyector</tspan></text>   </g></g><g class="children" style="overflow:hidden"><g id="_159816F0-6A18-465F-9C00-4EF3AAC08C82" bpmn2nodeid="_5527A555-9D48-44F0-839A-38A657219A80"><g class="stencils" transform="translate(110, 51)"><g class="me"><g pointer-events="fill" id="_159816F0-6A18-465F-9C00-4EF3AAC08C82">        <defs id="_159816F0-6A18-465F-9C00-4EF3AAC08C82__159816F0-6A18-465F-9C00-4EF3AAC08C82_5"> 		<radialGradient id="_159816F0-6A18-465F-9C00-4EF3AAC08C82background" cx="10%" cy="10%" r="100%" fx="10%" fy="10%"> 			<stop offset="0%" stop-color="#ffffff" stop-opacity="1" id="_159816F0-6A18-465F-9C00-4EF3AAC08C82__159816F0-6A18-465F-9C00-4EF3AAC08C82_6"/> 			<stop id="_159816F0-6A18-465F-9C00-4EF3AAC08C82fill_el" offset="100%" stop-color="#9acd32" stop-opacity="1"/> 		</radialGradient> 	</defs> 	     <circle id="_159816F0-6A18-465F-9C00-4EF3AAC08C82bg_frame" cx="15" cy="15" r="15" stroke="#000000" fill="url(#_159816F0-6A18-465F-9C00-4EF3AAC08C82background) white" stroke-width="1" style="stroke-dasharray: 5.5, 3"/>      <circle id="_159816F0-6A18-465F-9C00-4EF3AAC08C82frame" cx="15" cy="15" r="15" stroke="#000000" fill="none" stroke-width="1" display="inherit"/>  	<text font-size="11" id="_159816F0-6A18-465F-9C00-4EF3AAC08C82text_name" x="15" y="32" oryx:align="top center" stroke="black" stroke-width="0pt" letter-spacing="-0.01px" fill="#000000" text-anchor="middle" transform="rotate(0 15 32)" visibility="inherit" oryx:fontSize="11"><tspan x="15" y="32" dy="11">Iniciar</tspan></text>   </g></g><g class="children" style="overflow:hidden"/><g class="edge"/></g><g class="controls"><g class="dockers"/><g class="magnets" transform="translate(110, 51)"><g pointer-events="all" display="none" transform="translate(7, 7)"><circle cx="8" cy="8" r="4" stroke="none" fill="red" fill-opacity="0.3"/></g></g></g></g><g id="_A423F174-2257-481C-8C82-CD05384DF50F" bpmn2nodeid="_8A996FB9-F905-4C22-90E4-7418CE790566"><g class="stencils" transform="translate(350, 33)"><g class="me"><g pointer-events="fill" oryx:minimumSize="50 40" id="_A423F174-2257-481C-8C82-CD05384DF50F">   	<defs id="_A423F174-2257-481C-8C82-CD05384DF50F__A423F174-2257-481C-8C82-CD05384DF50F_17"> 		<radialGradient id="_A423F174-2257-481C-8C82-CD05384DF50Fbackground" cx="10%" cy="10%" r="100%" fx="10%" fy="10%"> 			<stop offset="0%" stop-color="#ffffff" stop-opacity="1" id="_A423F174-2257-481C-8C82-CD05384DF50F__A423F174-2257-481C-8C82-CD05384DF50F_18"/> 			<stop id="_A423F174-2257-481C-8C82-CD05384DF50Ffill_el" offset="100%" stop-color="#3366FF" stop-opacity="1"/> 		</radialGradient> 		<radialGradient id="_A423F174-2257-481C-8C82-CD05384DF50Fborderbackground" cx="10%" cy="10%" r="100%" fx="10%" fy="10%"> 			<stop offset="0%" stop-color="#ffffff" stop-opacity="1" id="_A423F174-2257-481C-8C82-CD05384DF50F__A423F174-2257-481C-8C82-CD05384DF50F_19"/> 			<stop id="_A423F174-2257-481C-8C82-CD05384DF50Ffill_border" offset="100%" stop-color="#000000" stop-opacity="1" stroke="#000000"/> 		</radialGradient> 	</defs> 	 	<rect id="_A423F174-2257-481C-8C82-CD05384DF50Ftext_frame" oryx:anchors="bottom top right left" x="1" y="1" width="164" height="65" rx="10" ry="10" stroke="none" stroke-width="0" fill="none"/> 	<rect id="_A423F174-2257-481C-8C82-CD05384DF50Fbg_frame" oryx:resize="vertical horizontal" x="0" y="0" width="170" height="66" rx="10" ry="10" stroke="#000000" stroke-width="1" fill="url(#_A423F174-2257-481C-8C82-CD05384DF50Fbackground) #ffffcc"/> 		<text font-size="12" id="_A423F174-2257-481C-8C82-CD05384DF50Ftext_name" x="85" y="33" oryx:align="middle center" oryx:fittoelem="text_frame" stroke="black" text-anchor="middle" stroke-width="0pt" letter-spacing="-0.01px" fill="#000000" transform="rotate(0 85 33)" visibility="inherit" oryx:fontSize="12"><tspan x="85" y="33" dy="-1" id="ext-gen608">Gestión Producción </tspan><tspan x="85" y="33" dy="11" id="ext-gen609">Múltiples Documentos</tspan></text>     <g id="_A423F174-2257-481C-8C82-CD05384DF50FmanualTask" transform="scale(0.7,0.7) translate(8,8)" display="none">     	<path oryx:anchors="top left" id="_A423F174-2257-481C-8C82-CD05384DF50Fframe" style="opacity:1;fill:none;fill-opacity:1;stroke-width:1" d="M0.5,3.751l4.083-3.25c0,0,11.166,0.083,12.083,0.083s-2.417,2.917-1.5,2.917     s11.667,0,12.584,0c1.166,1.708-0.168,3.167-0.834,3.667s0.875,1.917-1,4.417c-0.75,0.25,0.75,1.875-1.333,3.333     c-1.167,0.583,0.583,1.542-1.25,2.833c-1.167,0-20.833,0.083-20.833,0.083l-2-1.333V3.751z" stroke="#000000"/> 		<path id="_A423F174-2257-481C-8C82-CD05384DF50Fframe2" oryx:anchors="top left" style="opacity:1;fill:none;stroke-width:2" d="M 13.5 7 L 27 7" stroke="#000000"/> 		<path id="_A423F174-2257-481C-8C82-CD05384DF50Fframe3" oryx:anchors="top left" style="opacity:1;fill:none;stroke-width:2" d="M 13.5 11 L 26 11" stroke="#000000"/> 		<path id="_A423F174-2257-481C-8C82-CD05384DF50Fframe4" oryx:anchors="top left" style="opacity:1;fill:none;stroke-width:1.5" d="M 14 14.5 L 25 14.5" stroke="#000000"/> 		<path id="_A423F174-2257-481C-8C82-CD05384DF50Fframe5" oryx:anchors="top left" style="opacity:1;fill:none;stroke-width:1.5" d="M 8.2 3.1 L 15 3.1" stroke="#000000"/> 	</g> 	 	<g id="_A423F174-2257-481C-8C82-CD05384DF50FbusinessRuleTask" transform="scale(0.7,0.7) translate(8,8)" display="none"> 		<rect id="_A423F174-2257-481C-8C82-CD05384DF50Fframe6" oryx:anchors="top left" x="0" y="0" width="22" height="4" style="opacity:1;fill:#B3B1B3;fill-opacity:1;" stroke="#000000"/> 		<rect id="_A423F174-2257-481C-8C82-CD05384DF50Fframe7" oryx:anchors="top left" x="0" y="4" style="opacity:1;fill:none;" width="22" height="12" stroke="#000000"/> 		<path id="_A423F174-2257-481C-8C82-CD05384DF50Fframe8" oryx:anchors="top left" style="opacity:1;fill:none;" d="M 0 10 L 22 10" stroke="#000000"/> 		<path id="_A423F174-2257-481C-8C82-CD05384DF50Fframe9" oryx:anchors="top left" style="opacity:1; fill:none;" d="M 7 4 L 7 16" stroke="#000000"/> 	</g> 	 	<g id="_A423F174-2257-481C-8C82-CD05384DF50FscriptTask" transform="scale(0.7,0.7) translate(8,8)" display="none"> 		<path oryx:anchors="top left" id="_A423F174-2257-481C-8C82-CD05384DF50Fframe10" style="opacity:1;fill:none;" stroke="#000000" d="M6.402,0.5h14.5c0,0-5.833,2.833-5.833,5.583s4.417,6,4.417,9.167    s-4.167,5.083-4.167,5.083H0.235c0,0,5-2.667,5-5s-4.583-6.75-4.583-9.25S6.402,0.5,6.402,0.5z"/> 		<path oryx:anchors="top left" id="_A423F174-2257-481C-8C82-CD05384DF50Fframe11" style="opacity:1;fill:none;stroke-width:1.5" d="M 3.5 4.5 L 13.5 4.5" stroke="#000000"/> 		<path oryx:anchors="top left" id="_A423F174-2257-481C-8C82-CD05384DF50Fframe12" style="opacity:1;fill:none;stroke-width:1.5" d="M 3.8 8.5 L 13.8 8.5" stroke="#000000"/> 		<path oryx:anchors="top left" id="_A423F174-2257-481C-8C82-CD05384DF50Fframe13" style="opacity:1;fill:none;stroke-width:1.5" d="M 6.3 12.5 L 16.3 12.5" stroke="#000000"/> 		<path oryx:anchors="top left" id="_A423F174-2257-481C-8C82-CD05384DF50Fframe14" style="opacity:1;fill:none;stroke-width:1.5" d="M 6.5 16.5 L 16.5 16.5" stroke="#000000"/> 	</g> 	 	<g id="_A423F174-2257-481C-8C82-CD05384DF50FuserTask" transform="scale(0.7,0.7) translate(8,8)" display="inherit"> 		<path id="_A423F174-2257-481C-8C82-CD05384DF50Fframe15" oryx:anchors="top left" style="opacity:1;fill:#F4F6F7" stroke="#000000" d="M0.585,24.167h24.083v-7.833c0,0-2.333-3.917-7.083-5.167h-9.25    c-4.417,1.333-7.833,5.75-7.833,5.75L0.585,24.167z"/> 		<path id="_A423F174-2257-481C-8C82-CD05384DF50Fframe16" oryx:anchors="top left" style="opacity:1;fill:none" d="M 6 20 L 6 24" stroke="#000000"/> 		<path id="_A423F174-2257-481C-8C82-CD05384DF50Fframe17" oryx:anchors="top left" style="opacity:1;fill:none" d="M 20 20 L 20 24" stroke="#000000"/> 		<circle id="_A423F174-2257-481C-8C82-CD05384DF50Fframe18" oryx:anchors="top left" fill="black" cx="13.002" cy="5.916" r="5.417" stroke="#000000"/> 		<path id="_A423F174-2257-481C-8C82-CD05384DF50Fframe19" oryx:anchors="top left" style="opacity:1;fill:#F0EFF0;" stroke="#000000" d="M8.043,7.083c0,0,2.814-2.426,5.376-1.807s4.624-0.693,4.624-0.693    c0.25,1.688,0.042,3.75-1.458,5.584c0,0,1.083,0.75,1.083,1.5s0.125,1.875-1,3s-5.5,1.25-6.75,0S8.668,12.834,8.668,12    s0.583-1.25,1.25-1.917C8.835,9.5,7.419,7.708,8.043,7.083z"/> 	</g> 	 	<g id="_A423F174-2257-481C-8C82-CD05384DF50FserviceTask" transform="scale(0.7,0.7) translate(8,8)" display="none"> 		<polygon oryx:anchors="top left" id="_A423F174-2257-481C-8C82-CD05384DF50Fframe20" style="opacity:1;fill:#ffffff" stroke="#000000" points="15.392,5.064 17.954,2.502 20.347,4.895 17.786,7.455     18.729,9.732 22.353,9.732 22.353,13.115 18.731,13.115 17.788,15.392 20.351,17.955 17.958,20.347 15.397,17.786 13.12,18.729     13.12,22.353 9.737,22.353 9.737,18.731 7.46,17.788 4.897,20.35 2.506,17.958 5.066,15.397 4.124,13.12 0.5,13.12 0.5,9.737     4.121,9.737 5.065,7.461 2.503,4.898 4.895,2.506 7.455,5.066 9.732,4.125 9.732,0.5 13.116,0.5 13.116,4.121 "/> 		<circle oryx:anchors="top left" id="_A423F174-2257-481C-8C82-CD05384DF50Fframe21" style="opacity:1;fill:none" stroke="#000000" cx="11.427" cy="11.426" r="3.714"/> 		<polygon oryx:anchors="top left" id="_A423F174-2257-481C-8C82-CD05384DF50Fframe22" style="opacity:1;fill:#ffffff" stroke="#000000" points="21.392,11.064 23.954,8.502 26.347,10.895 23.786,13.455     24.729,15.732 28.353,15.732 28.353,19.115 24.731,19.115 23.788,21.392 26.351,23.955 23.958,26.347 21.397,23.786 19.12,24.729     19.12,28.353 15.737,28.353 15.737,24.731 13.46,23.788 10.897,26.35 8.506,23.958 11.066,21.397 10.124,19.12 6.5,19.12     6.5,15.737 10.121,15.737 11.065,13.461 8.503,10.898 10.895,8.506 13.455,11.066 15.732,10.125 15.732,6.5 19.116,6.5     19.116,10.121 "/> 		<circle oryx:anchors="top left" id="_A423F174-2257-481C-8C82-CD05384DF50Fframe23" style="opacity:1;fill:none;" stroke="#000000" cx="17.427" cy="17.426" r="3.714"/> 	</g> 	 	<g id="_A423F174-2257-481C-8C82-CD05384DF50FsendTask" display="none"> 		<path id="_A423F174-2257-481C-8C82-CD05384DF50Fstframe24" oryx:anchors="left top" stroke="#FFFFFF" fill="black" stroke-width="1" d="M8,11 L8,21 L24,21 L24,11 L16,17z"/> 		<path id="_A423F174-2257-481C-8C82-CD05384DF50Fstframe25" oryx:anchors="left top" stroke="#FFFFFF" fill="black" stroke-width="1" d="M7,10 L16,17 L25 10z"/> 	</g> 	 	<g id="_A423F174-2257-481C-8C82-CD05384DF50FreceiveTask" display="none"> 		<path id="_A423F174-2257-481C-8C82-CD05384DF50Fframe26" oryx:anchors="left top" stroke="#000000" fill="none" stroke-width="1" d="M8,11 L8,21 L24,21 L24,11z M8,11 L16,17 L24,11"/> 	</g> 	 	<g id="_A423F174-2257-481C-8C82-CD05384DF50Fnone" display="inherit"/>  	<g id="_A423F174-2257-481C-8C82-CD05384DF50Fsequential" display="none">         <path oryx:anchors="bottom" fill="none" stroke="#000000" stroke-width="2" d=" M81.7 62  h10  M81.7 58  h10  M81.7 54  h10 " id="_A423F174-2257-481C-8C82-CD05384DF50F__A423F174-2257-481C-8C82-CD05384DF50F_20"/>     </g>   </g></g><g class="children" style="overflow:hidden"/><g class="edge"/></g><g class="controls"><g class="dockers"/><g class="magnets" transform="translate(350, 33)"><g pointer-events="all" display="none" transform="translate(-7, 8.5)"><circle cx="8" cy="8" r="4" stroke="none" fill="red" fill-opacity="0.3"/></g><g pointer-events="all" display="none" transform="translate(-7, 25)"><circle cx="8" cy="8" r="4" stroke="none" fill="red" fill-opacity="0.3"/></g><g pointer-events="all" display="none" transform="translate(-7, 41.5)"><circle cx="8" cy="8" r="4" stroke="none" fill="red" fill-opacity="0.3"/></g><g pointer-events="all" display="none" transform="translate(34.5, 57)"><circle cx="8" cy="8" r="4" stroke="none" fill="red" fill-opacity="0.3"/></g><g pointer-events="all" display="none" transform="translate(77, 57)"><circle cx="8" cy="8" r="4" stroke="none" fill="red" fill-opacity="0.3"/></g><g pointer-events="all" display="none" transform="translate(119.5, 57)"><circle cx="8" cy="8" r="4" stroke="none" fill="red" fill-opacity="0.3"/></g><g pointer-events="all" display="none" transform="translate(161, 8.5)"><circle cx="8" cy="8" r="4" stroke="none" fill="red" fill-opacity="0.3"/></g><g pointer-events="all" display="none" transform="translate(161, 25)"><circle cx="8" cy="8" r="4" stroke="none" fill="red" fill-opacity="0.3"/></g><g pointer-events="all" display="none" transform="translate(161, 41.5)"><circle cx="8" cy="8" r="4" stroke="none" fill="red" fill-opacity="0.3"/></g><g pointer-events="all" display="none" transform="translate(34.5, -7)"><circle cx="8" cy="8" r="4" stroke="none" fill="red" fill-opacity="0.3"/></g><g pointer-events="all" display="none" transform="translate(77, -7)"><circle cx="8" cy="8" r="4" stroke="none" fill="red" fill-opacity="0.3"/></g><g pointer-events="all" display="none" transform="translate(119.5, -7)"><circle cx="8" cy="8" r="4" stroke="none" fill="red" fill-opacity="0.3"/></g><g pointer-events="all" display="none" transform="translate(77, 25)"><circle cx="8" cy="8" r="4" stroke="none" fill="red" fill-opacity="0.3"/></g></g></g></g><g id="_B51FD1E1-3334-4650-AECC-9620743C2DB4" bpmn2nodeid="_86A5CA88-0676-424E-AB3D-AFFCE0F25F3D"><g class="stencils" transform="translate(695, 52)"><g class="me"><g pointer-events="fill" id="_B51FD1E1-3334-4650-AECC-9620743C2DB4">      <defs id="_B51FD1E1-3334-4650-AECC-9620743C2DB4__B51FD1E1-3334-4650-AECC-9620743C2DB4_5"> 		<radialGradient id="_B51FD1E1-3334-4650-AECC-9620743C2DB4background" cx="10%" cy="10%" r="100%" fx="10%" fy="10%"> 			<stop offset="0%" stop-color="#ffffff" stop-opacity="1" id="_B51FD1E1-3334-4650-AECC-9620743C2DB4__B51FD1E1-3334-4650-AECC-9620743C2DB4_6"/> 			<stop id="_B51FD1E1-3334-4650-AECC-9620743C2DB4fill_el" offset="100%" stop-color="#ff6347" stop-opacity="1"/> 		</radialGradient> 	</defs> 	     <circle id="_B51FD1E1-3334-4650-AECC-9620743C2DB4bg_frame" cx="14" cy="14" r="14" stroke="#000000" fill="url(#_B51FD1E1-3334-4650-AECC-9620743C2DB4background) white" stroke-width="3"/> 	<text font-size="11" id="_B51FD1E1-3334-4650-AECC-9620743C2DB4text_name" x="14" y="30" oryx:align="top center" stroke="black" stroke-width="0pt" letter-spacing="-0.01px" fill="#000000" text-anchor="middle" transform="rotate(0 14 30)" visibility="inherit" oryx:fontSize="11"><tspan x="14" y="30" dy="11">Finalizar</tspan></text>   </g></g><g class="children" style="overflow:hidden"/><g class="edge"/></g><g class="controls"><g class="dockers"/><g class="magnets" transform="translate(695, 52)"><g pointer-events="all" display="none" transform="translate(6, 6)"><circle cx="8" cy="8" r="4" stroke="none" fill="red" fill-opacity="0.3"/></g></g></g></g><g id="_8CC0B397-D27E-4C2A-96F0-65F68177537F" bpmn2nodeid="_57208718-D2BE-47FA-8B4C-25AB27E76A89"><g class="stencils" transform="translate(255, 46)"><g class="me"><g id="_8CC0B397-D27E-4C2A-96F0-65F68177537F">        <defs id="_8CC0B397-D27E-4C2A-96F0-65F68177537F__8CC0B397-D27E-4C2A-96F0-65F68177537F_4"> 		<radialGradient id="_8CC0B397-D27E-4C2A-96F0-65F68177537Fbackground" cx="10%" cy="10%" r="100%" fx="10%" fy="10%"> 			<stop offset="0%" stop-color="#ffffff" stop-opacity="1" id="_8CC0B397-D27E-4C2A-96F0-65F68177537F__8CC0B397-D27E-4C2A-96F0-65F68177537F_5"/> 			<stop id="_8CC0B397-D27E-4C2A-96F0-65F68177537Ffill_el" offset="100%" stop-color="#f0e68c" stop-opacity="1"/> 		</radialGradient> 		<radialGradient id="_8CC0B397-D27E-4C2A-96F0-65F68177537Fborderbackground" cx="10%" cy="10%" r="100%" fx="10%" fy="10%"> 			<stop offset="0%" stop-color="#ffffff" stop-opacity="1" id="_8CC0B397-D27E-4C2A-96F0-65F68177537F__8CC0B397-D27E-4C2A-96F0-65F68177537F_6"/> 			<stop id="_8CC0B397-D27E-4C2A-96F0-65F68177537Ffill_border" offset="100%" stop-color="#a67f00" stop-opacity="1" stroke="#a67f00"/> 		</radialGradient> 	</defs> 	     <path d=" M0 20.5  L20.5 0  L40 20.5  L20.5 40  z" id="_8CC0B397-D27E-4C2A-96F0-65F68177537Fbg_frame" fill="url(#_8CC0B397-D27E-4C2A-96F0-65F68177537Fbackground) white" style="stroke-width:1" stroke="#a67f00"/>     <g id="_8CC0B397-D27E-4C2A-96F0-65F68177537Fframe" stroke="#a67f00">       <path id="_8CC0B397-D27E-4C2A-96F0-65F68177537Fframe2" d=" M13.25 12.05  L17.25 12.05  L27.65 28.95  L23.75 28.95  z" style="stroke-width:1" stroke="#a67f00" fill="url(#_8CC0B397-D27E-4C2A-96F0-65F68177537Fborderbackground)"/>       <path id="_8CC0B397-D27E-4C2A-96F0-65F68177537Fframe3" d=" M13.25 28.95  L23.75 12.05  L27.65 12.05  L17.25 28.95  z" style="stroke-width:1" stroke="#a67f00" fill="url(#_8CC0B397-D27E-4C2A-96F0-65F68177537Fborderbackground)"/>     </g> 	 	<text id="_8CC0B397-D27E-4C2A-96F0-65F68177537Ftext_name" x="30.5" y="30.5" oryx:align="left top" stroke-width="0pt" letter-spacing="-0.01px" fill="#000000" text-anchor="start" transform="rotate(0 30.5 30.5)" visibility="inherit" oryx:fontSize="12"/> 	   </g></g><g class="children" style="overflow:hidden"/><g class="edge"/></g><g class="controls"><g class="dockers"/><g class="magnets" transform="translate(255, 46)"><g pointer-events="all" display="none" transform="translate(12.5, 12.5)"><circle cx="8" cy="8" r="4" stroke="none" fill="red" fill-opacity="0.3"/></g></g></g></g></g><g class="edge"/></g><g class="controls"><g class="dockers"/><g class="magnets" transform="translate(10, 40)"><g pointer-events="all" display="none" transform="translate(387.5, 67)"><circle cx="8" cy="8" r="4" stroke="none" fill="red" fill-opacity="0.3"/></g></g></g></g><g id="_112A39E2-FA27-469A-A8FA-7439DB4EFE68" bpmn2nodeid="_017D9D9F-7E0F-4526-9577-C668621A2C39"><g class="stencils" transform="translate(10, 210)"><g class="me"><g pointer-events="painted" id="_112A39E2-FA27-469A-A8FA-7439DB4EFE68">         <defs id="_112A39E2-FA27-469A-A8FA-7439DB4EFE68__112A39E2-FA27-469A-A8FA-7439DB4EFE68_3"> 		<radialGradient id="_112A39E2-FA27-469A-A8FA-7439DB4EFE68background" cx="0%" cy="10%" r="100%" fx="20%" fy="10%"> 			<stop offset="0%" stop-color="#ffffff" stop-opacity="1" id="_112A39E2-FA27-469A-A8FA-7439DB4EFE68__112A39E2-FA27-469A-A8FA-7439DB4EFE68_4"/> 			<stop id="_112A39E2-FA27-469A-A8FA-7439DB4EFE68fill_el" offset="100%" stop-color="#ffffff" stop-opacity="1"/> 		</radialGradient> 	</defs> 	   	 	<rect id="_112A39E2-FA27-469A-A8FA-7439DB4EFE68border" oryx:resize="vertical horizontal" x="0" y="0" width="791" height="171" stroke="#000000" stroke-width="1" fill="url(#_112A39E2-FA27-469A-A8FA-7439DB4EFE68background) white"/> 	 	 	 	<path id="_112A39E2-FA27-469A-A8FA-7439DB4EFE68frame2" style="fill:none;stroke-width:1" d=" M0 0  L0 171 " oryx:anchors="left top bottom" stroke="#000000"/> 	 	undefined 	     <text x="50" y="85.5" oryx:rotate="270" font-size="12" id="_112A39E2-FA27-469A-A8FA-7439DB4EFE68text_name" oryx:align="middle center" oryx:anchors="left" oryx:fittoelem="frame" stroke="black" stroke-width="0pt" letter-spacing="-0.01px" fill="#000000" text-anchor="middle" transform="rotate(270 50 85.5)" visibility="inherit" oryx:fontSize="12"><tspan x="50" y="85.5" dy="5">Sistema</tspan></text>   </g></g><g class="children" style="overflow:hidden"><g id="_2011ED50-DAC5-4C89-959B-07AC120615B4" bpmn2nodeid="_1CDAED6A-D71F-4CCF-B45F-97611D592F86"><g class="stencils" transform="translate(110, 65)"><g class="me"><g pointer-events="fill" id="_2011ED50-DAC5-4C89-959B-07AC120615B4">      <defs id="_2011ED50-DAC5-4C89-959B-07AC120615B4__2011ED50-DAC5-4C89-959B-07AC120615B4_5"> 		<radialGradient id="_2011ED50-DAC5-4C89-959B-07AC120615B4background" cx="10%" cy="10%" r="100%" fx="10%" fy="10%"> 			<stop offset="0%" stop-color="#ffffff" stop-opacity="1" id="_2011ED50-DAC5-4C89-959B-07AC120615B4__2011ED50-DAC5-4C89-959B-07AC120615B4_6"/> 			<stop id="_2011ED50-DAC5-4C89-959B-07AC120615B4fill_el" offset="100%" stop-color="#9acd32" stop-opacity="1"/> 		</radialGradient> 	</defs> 	     <circle id="_2011ED50-DAC5-4C89-959B-07AC120615B4bg_frame" cx="15" cy="15" r="15" stroke="#000000" fill="url(#_2011ED50-DAC5-4C89-959B-07AC120615B4background) white" stroke-width="1" style="stroke-dasharray: 5.5, 3"/>      <circle id="_2011ED50-DAC5-4C89-959B-07AC120615B4frame" cx="15" cy="15" r="15" stroke="#000000" fill="none" stroke-width="1" display="inherit"/>      <path id="_2011ED50-DAC5-4C89-959B-07AC120615B4body" d=" M7.7124971 20.247342  L22.333334 20.247342  L15.022915000000001 7.575951200000001  L7.7124971 20.247342  z" stroke="black" style="fill:none;stroke-width:1.4;stroke-miterlimit:4;stroke-dasharray:none"/> 	<text font-size="11" id="_2011ED50-DAC5-4C89-959B-07AC120615B4text_name" x="15" y="32" oryx:align="top center" stroke="black" stroke-width="0pt" letter-spacing="-0.01px" fill="#000000" text-anchor="middle" transform="rotate(0 15 32)" visibility="inherit" oryx:fontSize="11"><tspan x="15" y="32" dy="11">Inicio Doc Respuesta</tspan></text>   </g></g><g class="children" style="overflow:hidden"/><g class="edge"/></g><g class="controls"><g class="dockers"/><g class="magnets" transform="translate(110, 65)"><g pointer-events="all" display="none" transform="translate(7, 7)"><circle cx="8" cy="8" r="4" stroke="none" fill="red" fill-opacity="0.3"/></g></g></g></g><g id="_E7A694A4-E94E-4C5F-A3DB-C17804654783" bpmn2nodeid="_0E5D9609-93F1-4530-A016-6CD208E5759A"><g class="stencils" transform="translate(220, 55)"><g class="me"><g pointer-events="fill" oryx:minimumSize="50 40" id="_E7A694A4-E94E-4C5F-A3DB-C17804654783">   	<defs id="_E7A694A4-E94E-4C5F-A3DB-C17804654783__E7A694A4-E94E-4C5F-A3DB-C17804654783_17"> 		<radialGradient id="_E7A694A4-E94E-4C5F-A3DB-C17804654783background" cx="10%" cy="10%" r="100%" fx="10%" fy="10%"> 			<stop offset="0%" stop-color="#ffffff" stop-opacity="1" id="_E7A694A4-E94E-4C5F-A3DB-C17804654783__E7A694A4-E94E-4C5F-A3DB-C17804654783_18"/> 			<stop id="_E7A694A4-E94E-4C5F-A3DB-C17804654783fill_el" offset="100%" stop-color="#C0C0C0" stop-opacity="1"/> 		</radialGradient> 		<radialGradient id="_E7A694A4-E94E-4C5F-A3DB-C17804654783borderbackground" cx="10%" cy="10%" r="100%" fx="10%" fy="10%"> 			<stop offset="0%" stop-color="#ffffff" stop-opacity="1" id="_E7A694A4-E94E-4C5F-A3DB-C17804654783__E7A694A4-E94E-4C5F-A3DB-C17804654783_19"/> 			<stop id="_E7A694A4-E94E-4C5F-A3DB-C17804654783fill_border" offset="100%" stop-color="#000000" stop-opacity="1" stroke="#000000"/> 		</radialGradient> 	</defs> 	 	<rect id="_E7A694A4-E94E-4C5F-A3DB-C17804654783text_frame" oryx:anchors="bottom top right left" x="1" y="1" width="104" height="49" rx="10" ry="10" stroke="none" stroke-width="0" fill="none"/> 	<rect id="_E7A694A4-E94E-4C5F-A3DB-C17804654783bg_frame" oryx:resize="vertical horizontal" x="0" y="0" width="110.00000000000001" height="50" rx="10" ry="10" stroke="#000000" stroke-width="1" fill="url(#_E7A694A4-E94E-4C5F-A3DB-C17804654783background) #ffffcc"/> 		<text font-size="12" id="_E7A694A4-E94E-4C5F-A3DB-C17804654783text_name" x="55.00000000000001" y="25" oryx:align="middle center" oryx:fittoelem="text_frame" stroke="black" text-anchor="middle" stroke-width="0pt" letter-spacing="-0.01px" fill="#000000" transform="rotate(0 55.00000000000001 25)" visibility="inherit" oryx:fontSize="12"><tspan x="55.00000000000001" y="25" dy="5" id="ext-gen698">Iniciar Variables</tspan></text>     <g id="_E7A694A4-E94E-4C5F-A3DB-C17804654783manualTask" transform="scale(0.7,0.7) translate(8,8)" display="none">     	<path oryx:anchors="top left" id="_E7A694A4-E94E-4C5F-A3DB-C17804654783frame" style="opacity:1;fill:none;fill-opacity:1;stroke-width:1" d="M0.5,3.751l4.083-3.25c0,0,11.166,0.083,12.083,0.083s-2.417,2.917-1.5,2.917     s11.667,0,12.584,0c1.166,1.708-0.168,3.167-0.834,3.667s0.875,1.917-1,4.417c-0.75,0.25,0.75,1.875-1.333,3.333     c-1.167,0.583,0.583,1.542-1.25,2.833c-1.167,0-20.833,0.083-20.833,0.083l-2-1.333V3.751z" stroke="#000000"/> 		<path id="_E7A694A4-E94E-4C5F-A3DB-C17804654783frame2" oryx:anchors="top left" style="opacity:1;fill:none;stroke-width:2" d="M 13.5 7 L 27 7" stroke="#000000"/> 		<path id="_E7A694A4-E94E-4C5F-A3DB-C17804654783frame3" oryx:anchors="top left" style="opacity:1;fill:none;stroke-width:2" d="M 13.5 11 L 26 11" stroke="#000000"/> 		<path id="_E7A694A4-E94E-4C5F-A3DB-C17804654783frame4" oryx:anchors="top left" style="opacity:1;fill:none;stroke-width:1.5" d="M 14 14.5 L 25 14.5" stroke="#000000"/> 		<path id="_E7A694A4-E94E-4C5F-A3DB-C17804654783frame5" oryx:anchors="top left" style="opacity:1;fill:none;stroke-width:1.5" d="M 8.2 3.1 L 15 3.1" stroke="#000000"/> 	</g> 	 	<g id="_E7A694A4-E94E-4C5F-A3DB-C17804654783businessRuleTask" transform="scale(0.7,0.7) translate(8,8)" display="none"> 		<rect id="_E7A694A4-E94E-4C5F-A3DB-C17804654783frame6" oryx:anchors="top left" x="0" y="0" width="22" height="4" style="opacity:1;fill:#B3B1B3;fill-opacity:1;" stroke="#000000"/> 		<rect id="_E7A694A4-E94E-4C5F-A3DB-C17804654783frame7" oryx:anchors="top left" x="0" y="4" style="opacity:1;fill:none;" width="22" height="12" stroke="#000000"/> 		<path id="_E7A694A4-E94E-4C5F-A3DB-C17804654783frame8" oryx:anchors="top left" style="opacity:1;fill:none;" d="M 0 10 L 22 10" stroke="#000000"/> 		<path id="_E7A694A4-E94E-4C5F-A3DB-C17804654783frame9" oryx:anchors="top left" style="opacity:1; fill:none;" d="M 7 4 L 7 16" stroke="#000000"/> 	</g> 	 	<g id="_E7A694A4-E94E-4C5F-A3DB-C17804654783scriptTask" transform="scale(0.7,0.7) translate(8,8)" display="inherit"> 		<path oryx:anchors="top left" id="_E7A694A4-E94E-4C5F-A3DB-C17804654783frame10" style="opacity:1;fill:none;" stroke="#000000" d="M6.402,0.5h14.5c0,0-5.833,2.833-5.833,5.583s4.417,6,4.417,9.167    s-4.167,5.083-4.167,5.083H0.235c0,0,5-2.667,5-5s-4.583-6.75-4.583-9.25S6.402,0.5,6.402,0.5z"/> 		<path oryx:anchors="top left" id="_E7A694A4-E94E-4C5F-A3DB-C17804654783frame11" style="opacity:1;fill:none;stroke-width:1.5" d="M 3.5 4.5 L 13.5 4.5" stroke="#000000"/> 		<path oryx:anchors="top left" id="_E7A694A4-E94E-4C5F-A3DB-C17804654783frame12" style="opacity:1;fill:none;stroke-width:1.5" d="M 3.8 8.5 L 13.8 8.5" stroke="#000000"/> 		<path oryx:anchors="top left" id="_E7A694A4-E94E-4C5F-A3DB-C17804654783frame13" style="opacity:1;fill:none;stroke-width:1.5" d="M 6.3 12.5 L 16.3 12.5" stroke="#000000"/> 		<path oryx:anchors="top left" id="_E7A694A4-E94E-4C5F-A3DB-C17804654783frame14" style="opacity:1;fill:none;stroke-width:1.5" d="M 6.5 16.5 L 16.5 16.5" stroke="#000000"/> 	</g> 	 	<g id="_E7A694A4-E94E-4C5F-A3DB-C17804654783userTask" transform="scale(0.7,0.7) translate(8,8)" display="none"> 		<path id="_E7A694A4-E94E-4C5F-A3DB-C17804654783frame15" oryx:anchors="top left" style="opacity:1;fill:#F4F6F7" stroke="#000000" d="M0.585,24.167h24.083v-7.833c0,0-2.333-3.917-7.083-5.167h-9.25    c-4.417,1.333-7.833,5.75-7.833,5.75L0.585,24.167z"/> 		<path id="_E7A694A4-E94E-4C5F-A3DB-C17804654783frame16" oryx:anchors="top left" style="opacity:1;fill:none" d="M 6 20 L 6 24" stroke="#000000"/> 		<path id="_E7A694A4-E94E-4C5F-A3DB-C17804654783frame17" oryx:anchors="top left" style="opacity:1;fill:none" d="M 20 20 L 20 24" stroke="#000000"/> 		<circle id="_E7A694A4-E94E-4C5F-A3DB-C17804654783frame18" oryx:anchors="top left" fill="black" cx="13.002" cy="5.916" r="5.417" stroke="#000000"/> 		<path id="_E7A694A4-E94E-4C5F-A3DB-C17804654783frame19" oryx:anchors="top left" style="opacity:1;fill:#F0EFF0;" stroke="#000000" d="M8.043,7.083c0,0,2.814-2.426,5.376-1.807s4.624-0.693,4.624-0.693    c0.25,1.688,0.042,3.75-1.458,5.584c0,0,1.083,0.75,1.083,1.5s0.125,1.875-1,3s-5.5,1.25-6.75,0S8.668,12.834,8.668,12    s0.583-1.25,1.25-1.917C8.835,9.5,7.419,7.708,8.043,7.083z"/> 	</g> 	 	<g id="_E7A694A4-E94E-4C5F-A3DB-C17804654783serviceTask" transform="scale(0.7,0.7) translate(8,8)" display="none"> 		<polygon oryx:anchors="top left" id="_E7A694A4-E94E-4C5F-A3DB-C17804654783frame20" style="opacity:1;fill:#ffffff" stroke="#000000" points="15.392,5.064 17.954,2.502 20.347,4.895 17.786,7.455     18.729,9.732 22.353,9.732 22.353,13.115 18.731,13.115 17.788,15.392 20.351,17.955 17.958,20.347 15.397,17.786 13.12,18.729     13.12,22.353 9.737,22.353 9.737,18.731 7.46,17.788 4.897,20.35 2.506,17.958 5.066,15.397 4.124,13.12 0.5,13.12 0.5,9.737     4.121,9.737 5.065,7.461 2.503,4.898 4.895,2.506 7.455,5.066 9.732,4.125 9.732,0.5 13.116,0.5 13.116,4.121 "/> 		<circle oryx:anchors="top left" id="_E7A694A4-E94E-4C5F-A3DB-C17804654783frame21" style="opacity:1;fill:none" stroke="#000000" cx="11.427" cy="11.426" r="3.714"/> 		<polygon oryx:anchors="top left" id="_E7A694A4-E94E-4C5F-A3DB-C17804654783frame22" style="opacity:1;fill:#ffffff" stroke="#000000" points="21.392,11.064 23.954,8.502 26.347,10.895 23.786,13.455     24.729,15.732 28.353,15.732 28.353,19.115 24.731,19.115 23.788,21.392 26.351,23.955 23.958,26.347 21.397,23.786 19.12,24.729     19.12,28.353 15.737,28.353 15.737,24.731 13.46,23.788 10.897,26.35 8.506,23.958 11.066,21.397 10.124,19.12 6.5,19.12     6.5,15.737 10.121,15.737 11.065,13.461 8.503,10.898 10.895,8.506 13.455,11.066 15.732,10.125 15.732,6.5 19.116,6.5     19.116,10.121 "/> 		<circle oryx:anchors="top left" id="_E7A694A4-E94E-4C5F-A3DB-C17804654783frame23" style="opacity:1;fill:none;" stroke="#000000" cx="17.427" cy="17.426" r="3.714"/> 	</g> 	 	<g id="_E7A694A4-E94E-4C5F-A3DB-C17804654783sendTask" display="none"> 		<path id="_E7A694A4-E94E-4C5F-A3DB-C17804654783stframe24" oryx:anchors="left top" stroke="#FFFFFF" fill="black" stroke-width="1" d="M8,11 L8,21 L24,21 L24,11 L16,17z"/> 		<path id="_E7A694A4-E94E-4C5F-A3DB-C17804654783stframe25" oryx:anchors="left top" stroke="#FFFFFF" fill="black" stroke-width="1" d="M7,10 L16,17 L25 10z"/> 	</g> 	 	<g id="_E7A694A4-E94E-4C5F-A3DB-C17804654783receiveTask" display="none"> 		<path id="_E7A694A4-E94E-4C5F-A3DB-C17804654783frame26" oryx:anchors="left top" stroke="#000000" fill="none" stroke-width="1" d="M8,11 L8,21 L24,21 L24,11z M8,11 L16,17 L24,11"/> 	</g> 	 	<g id="_E7A694A4-E94E-4C5F-A3DB-C17804654783none" display="inherit"/>  	<g id="_E7A694A4-E94E-4C5F-A3DB-C17804654783sequential" display="none">         <path oryx:anchors="bottom" fill="none" stroke="#000000" stroke-width="2" d=" M51.1 46  h10  M51.1 42  h10  M51.1 38  h10 " id="_E7A694A4-E94E-4C5F-A3DB-C17804654783__E7A694A4-E94E-4C5F-A3DB-C17804654783_20"/>     </g>   </g></g><g class="children" style="overflow:hidden"/><g class="edge"/></g><g class="controls"><g class="dockers"/><g class="magnets" transform="translate(220, 55)"><g pointer-events="all" display="none" transform="translate(-7, 4.5)"><circle cx="8" cy="8" r="4" stroke="none" fill="red" fill-opacity="0.3"/></g><g pointer-events="all" display="none" transform="translate(-7, 17)"><circle cx="8" cy="8" r="4" stroke="none" fill="red" fill-opacity="0.3"/></g><g pointer-events="all" display="none" transform="translate(-7, 29.5)"><circle cx="8" cy="8" r="4" stroke="none" fill="red" fill-opacity="0.3"/></g><g pointer-events="all" display="none" transform="translate(19.500000000000004, 41)"><circle cx="8" cy="8" r="4" stroke="none" fill="red" fill-opacity="0.3"/></g><g pointer-events="all" display="none" transform="translate(47.00000000000001, 41)"><circle cx="8" cy="8" r="4" stroke="none" fill="red" fill-opacity="0.3"/></g><g pointer-events="all" display="none" transform="translate(74.5, 41)"><circle cx="8" cy="8" r="4" stroke="none" fill="red" fill-opacity="0.3"/></g><g pointer-events="all" display="none" transform="translate(101, 4.5)"><circle cx="8" cy="8" r="4" stroke="none" fill="red" fill-opacity="0.3"/></g><g pointer-events="all" display="none" transform="translate(101, 17)"><circle cx="8" cy="8" r="4" stroke="none" fill="red" fill-opacity="0.3"/></g><g pointer-events="all" display="none" transform="translate(101, 29.5)"><circle cx="8" cy="8" r="4" stroke="none" fill="red" fill-opacity="0.3"/></g><g pointer-events="all" display="none" transform="translate(19.500000000000004, -7)"><circle cx="8" cy="8" r="4" stroke="none" fill="red" fill-opacity="0.3"/></g><g pointer-events="all" display="none" transform="translate(47.00000000000001, -7)"><circle cx="8" cy="8" r="4" stroke="none" fill="red" fill-opacity="0.3"/></g><g pointer-events="all" display="none" transform="translate(74.5, -7)"><circle cx="8" cy="8" r="4" stroke="none" fill="red" fill-opacity="0.3"/></g><g pointer-events="all" display="none" transform="translate(47.00000000000001, 17)"><circle cx="8" cy="8" r="4" stroke="none" fill="red" fill-opacity="0.3"/></g></g></g></g></g><g class="edge"/></g><g class="controls"><g class="dockers"/><g class="magnets" transform="translate(10, 210)"><g pointer-events="all" display="none" transform="translate(387.5, 77.5)"><circle cx="8" cy="8" r="4" stroke="none" fill="red" fill-opacity="0.3"/></g></g></g></g></g><g class="edge"><g id="_54790F9A-EDC0-48E3-BF22-124137B8DA71" bpmn2nodeid="_C21FCBB6-5B81-43ED-A728-F142A36509DB"><g class="stencils"><g class="me"><g pointer-events="painted" bpmn2nodeid="_639AEF7B-EEE9-481C-9462-29B656E6271F"><path id="_54790F9A-EDC0-48E3-BF22-124137B8DA71_1" d="M150.0625 106L265.25 106 " stroke="#000000" fill="none" stroke-width="2" stroke-linecap="round" stroke-linejoin="round" marker-start="url(#_54790F9A-EDC0-48E3-BF22-124137B8DA71start)" marker-end="url(#_54790F9A-EDC0-48E3-BF22-124137B8DA71end)"/></g><text id="_54790F9A-EDC0-48E3-BF22-124137B8DA71text_name" font-size="12" x="164.0625" y="92" oryx:edgePosition="startTop" stroke-width="0pt" letter-spacing="-0.01px" fill="#000000" text-anchor="start" transform="rotate(360 150.0625 106)" visibility="inherit" oryx:fontSize="12"/></g><g class="children" style="overflow:hidden"/><g class="edge"/></g><g class="controls"><g class="dockers"/><g class="magnets"/></g></g><g id="_FDE7B2EC-F68E-4B74-AD44-3820A85971B0" bpmn2nodeid="_B1E9C93E-7A7F-44DB-B16B-8B5FF773D0D3"><g class="stencils"><g class="me"><g pointer-events="painted" bpmn2nodeid="_BC3920FD-2293-4CA9-B762-E102B4311C67"><path id="_FDE7B2EC-F68E-4B74-AD44-3820A85971B0_1" d="M304.75 106L359.625 106 " stroke="#000000" fill="none" stroke-width="2" stroke-linecap="round" stroke-linejoin="round" marker-start="url(#_FDE7B2EC-F68E-4B74-AD44-3820A85971B0start)" marker-end="url(#_FDE7B2EC-F68E-4B74-AD44-3820A85971B0end)"/></g><text id="_FDE7B2EC-F68E-4B74-AD44-3820A85971B0text_name" font-size="12" x="318.75" y="92" oryx:edgePosition="startTop" stroke-width="0pt" letter-spacing="-0.01px" fill="#000000" text-anchor="start" transform="rotate(360 304.75 106)" visibility="inherit" oryx:fontSize="12"/></g><g class="children" style="overflow:hidden"/><g class="edge"/></g><g class="controls"><g class="dockers"/><g class="magnets"/></g></g><g id="_81891591-021F-4200-9F67-F62136A9C9ED" bpmn2nodeid="_CD0A34A8-D071-4738-8EC7-AC6AB84B2763"><g class="stencils"><g class="me"><g pointer-events="painted" bpmn2nodeid="_D9459D18-E9FE-4CB6-9FA8-A3FC90BCDAD4"><path id="_81891591-021F-4200-9F67-F62136A9C9ED_1" d="M530.5546875 106L704.0859375 106 " stroke="#000000" fill="none" stroke-width="2" stroke-linecap="round" stroke-linejoin="round" marker-start="url(#_81891591-021F-4200-9F67-F62136A9C9EDstart)" marker-end="url(#_81891591-021F-4200-9F67-F62136A9C9EDend)"/></g><text id="_81891591-021F-4200-9F67-F62136A9C9EDtext_name" font-size="12" x="544.5546875" y="92" oryx:edgePosition="startTop" stroke-width="0pt" letter-spacing="-0.01px" fill="#000000" text-anchor="start" transform="rotate(360 530.5546875 106)" visibility="inherit" oryx:fontSize="12"/></g><g class="children" style="overflow:hidden"/><g class="edge"/></g><g class="controls"><g class="dockers"/><g class="magnets"/></g></g><g id="_0A7B185E-FD7D-41DD-9306-9D013E7E0576" bpmn2nodeid="_0151CFC9-31E3-4B06-8BAC-077CE8CDAA28"><g class="stencils"><g class="me"><g pointer-events="painted" bpmn2nodeid="_74A79BBB-98EA-4B66-B796-2006CFC709EF"><path id="_0A7B185E-FD7D-41DD-9306-9D013E7E0576_1" d="M150.0625 290L229.5078125 290 " stroke="#000000" fill="none" stroke-width="2" stroke-linecap="round" stroke-linejoin="round" marker-start="url(#_0A7B185E-FD7D-41DD-9306-9D013E7E0576start)" marker-end="url(#_0A7B185E-FD7D-41DD-9306-9D013E7E0576end)"/></g><text id="_0A7B185E-FD7D-41DD-9306-9D013E7E0576text_name" font-size="12" x="164.0625" y="276" oryx:edgePosition="startTop" stroke-width="0pt" letter-spacing="-0.01px" fill="#000000" text-anchor="start" transform="rotate(360 150.0625 290)" visibility="inherit" oryx:fontSize="12"/></g><g class="children" style="overflow:hidden"/><g class="edge"/></g><g class="controls"><g class="dockers"/><g class="magnets"/></g></g><g id="_5BA2A795-DE1D-4A17-B914-5009D402E422" bpmn2nodeid="_E9141CD8-78AA-475D-BE77-41BD05608DE1"><g class="stencils"><g class="me"><g pointer-events="painted" bpmn2nodeid="_99AF144E-62D5-4AAB-85DC-86A5DCCF4B4F"><path id="_5BA2A795-DE1D-4A17-B914-5009D402E422_1" d="M285 264.5625L285 125.6875 " stroke="#000000" fill="none" stroke-width="2" stroke-linecap="round" stroke-linejoin="round" marker-start="url(#_5BA2A795-DE1D-4A17-B914-5009D402E422start)" marker-end="url(#_5BA2A795-DE1D-4A17-B914-5009D402E422end)"/></g><text id="_5BA2A795-DE1D-4A17-B914-5009D402E422text_name" font-size="12" x="299" y="250.5625" oryx:edgePosition="startTop" stroke-width="0pt" letter-spacing="-0.01px" fill="#000000" text-anchor="start" transform="rotate(270 285 264.5625)" visibility="inherit" oryx:fontSize="12"/></g><g class="children" style="overflow:hidden"/><g class="edge"/></g><g class="controls"><g class="dockers"/><g class="magnets"/></g></g></g><text id="_6169EE90-8774-42BD-9C49-069E2FF3FC47" style="stroke-width:1;fill:rgb(177,194,214);font-family:arial;font-weight:bold" font-size="12" onclick="ORYX.Plugins.CanvasTitle.openTextualAnalysis()" onmouseover="ORYX.Plugins.CanvasTitle.addToolTip('_6169EE90-8774-42BD-9C49-069E2FF3FC47')" transform="translate(10, 20)">produccion-multiples-documentos v.1.0 (proceso.produccion-multiples-documentos)</text></g></g></svg>