<svg xmlns="http://www.w3.org/2000/svg" xmlns:oryx="http://oryx-editor.org" id="_E6089BC9-F087-4D7F-9628-BAE7969ED9B9" width="731" height="221" xmlns:xlink="http://www.w3.org/1999/xlink" xmlns:svg="http://www.w3.org/2000/svg"><defs><marker id="_59174554-DFCB-49C2-940D-C8F71A33C3CBstart" refX="1" refY="5" markerUnits="userSpaceOnUse" markerWidth="17" markerHeight="11" orient="auto" fill="#000000" stroke="#000000"> 	  		<path id="_59174554-DFCB-49C2-940D-C8F71A33C3CBconditional" d="M 0 5 L 8 0 L 16 5 L 8 10 L 0 5" fill="white" stroke="#000000" stroke-width="1" display="none"/> 			<path id="_59174554-DFCB-49C2-940D-C8F71A33C3CBdefault" d="M 5 0 L 11 10" fill="white" stroke="#000000" stroke-width="1" display="none"/> 	  	</marker><marker id="_59174554-DFCB-49C2-940D-C8F71A33C3CBend" refX="15" refY="6" markerUnits="userSpaceOnUse" markerWidth="15" markerHeight="12" orient="auto" fill="#000000" stroke="#000000"> 	  		<path id="_59174554-DFCB-49C2-940D-C8F71A33C3CBframe2" d="M 0 1 L 15 6 L 0 11z" fill="#000000" stroke="#000000" stroke-linejoin="round" stroke-width="2"/> 	  	</marker><marker id="_0C98A914-0C84-475E-BA28-AAF7048D4228start" refX="1" refY="5" markerUnits="userSpaceOnUse" markerWidth="17" markerHeight="11" orient="auto" fill="#000000" stroke="#000000"> 	  		<path id="_0C98A914-0C84-475E-BA28-AAF7048D4228conditional" d="M 0 5 L 8 0 L 16 5 L 8 10 L 0 5" fill="white" stroke="#000000" stroke-width="1" display="none"/> 			<path id="_0C98A914-0C84-475E-BA28-AAF7048D4228default" d="M 5 0 L 11 10" fill="white" stroke="#000000" stroke-width="1" display="none"/> 	  	</marker><marker id="_0C98A914-0C84-475E-BA28-AAF7048D4228end" refX="15" refY="6" markerUnits="userSpaceOnUse" markerWidth="15" markerHeight="12" orient="auto" fill="#000000" stroke="#000000"> 	  		<path id="_0C98A914-0C84-475E-BA28-AAF7048D4228frame2" d="M 0 1 L 15 6 L 0 11z" fill="#000000" stroke="#000000" stroke-linejoin="round" stroke-width="2"/> 	  	</marker></defs><g stroke="none" font-family="Verdana, sans-serif" font-size-adjust="none" font-style="normal" font-variant="normal" font-weight="normal" line-heigth="normal" font-size="12"><g class="stencils" transform="translate(25, 25)"><g class="me"/><g class="children"><g id="_C9244DB1-B208-46D7-B3AB-512694102A56" bpmn2nodeid="_00983327-8882-4493-B862-1EDB9518CAB7"><g class="stencils" transform="translate(0, 0)"><g class="me"><g pointer-events="painted" id="_C9244DB1-B208-46D7-B3AB-512694102A56">         <defs id="_C9244DB1-B208-46D7-B3AB-512694102A56__C9244DB1-B208-46D7-B3AB-512694102A56_3"> 		<radialGradient id="_C9244DB1-B208-46D7-B3AB-512694102A56background" cx="0%" cy="10%" r="100%" fx="20%" fy="10%"> 			<stop offset="0%" stop-color="#ffffff" stop-opacity="1" id="_C9244DB1-B208-46D7-B3AB-512694102A56__C9244DB1-B208-46D7-B3AB-512694102A56_4"/> 			<stop id="_C9244DB1-B208-46D7-B3AB-512694102A56fill_el" offset="100%" stop-color="#ffffff" stop-opacity="1"/> 		</radialGradient> 	</defs> 	   	 	<rect id="_C9244DB1-B208-46D7-B3AB-512694102A56border" oryx:resize="vertical horizontal" x="0" y="0" width="681" height="171" stroke="#000000" stroke-width="1" fill="url(#_C9244DB1-B208-46D7-B3AB-512694102A56background) white"/> 	 	 	 	<path id="_C9244DB1-B208-46D7-B3AB-512694102A56frame2" style="fill:none;stroke-width:1" d=" M0 0  L0 171 " oryx:anchors="left top bottom" stroke="#000000"/> 	 	undefined 	     <text x="50" y="85.5" oryx:rotate="270" font-size="12" id="_C9244DB1-B208-46D7-B3AB-512694102A56text_name" oryx:align="middle center" oryx:anchors="left" oryx:fittoelem="frame" stroke="black" stroke-width="0pt" letter-spacing="-0.01px" fill="#000000" text-anchor="middle" transform="rotate(270 50 85.5)" visibility="inherit" oryx:fontSize="12"><tspan x="50" y="85.5" dy="5">Archivista</tspan></text>   </g></g><g class="children" style="overflow:hidden"><g id="_4BD52AEF-2676-4CA6-8F53-347C8BB53409" bpmn2nodeid="_9A6C1AC7-7338-474D-B348-0E16369AAB81"><g class="stencils" transform="translate(225, 60)"><g class="me"><g pointer-events="fill" oryx:minimumSize="50 40" id="_4BD52AEF-2676-4CA6-8F53-347C8BB53409">   	<defs id="_4BD52AEF-2676-4CA6-8F53-347C8BB53409__4BD52AEF-2676-4CA6-8F53-347C8BB53409_17"> 		<radialGradient id="_4BD52AEF-2676-4CA6-8F53-347C8BB53409background" cx="10%" cy="10%" r="100%" fx="10%" fy="10%"> 			<stop offset="0%" stop-color="#ffffff" stop-opacity="1" id="_4BD52AEF-2676-4CA6-8F53-347C8BB53409__4BD52AEF-2676-4CA6-8F53-347C8BB53409_18"/> 			<stop id="_4BD52AEF-2676-4CA6-8F53-347C8BB53409fill_el" offset="100%" stop-color="#3366FF" stop-opacity="1"/> 		</radialGradient> 		<radialGradient id="_4BD52AEF-2676-4CA6-8F53-347C8BB53409borderbackground" cx="10%" cy="10%" r="100%" fx="10%" fy="10%"> 			<stop offset="0%" stop-color="#ffffff" stop-opacity="1" id="_4BD52AEF-2676-4CA6-8F53-347C8BB53409__4BD52AEF-2676-4CA6-8F53-347C8BB53409_19"/> 			<stop id="_4BD52AEF-2676-4CA6-8F53-347C8BB53409fill_border" offset="100%" stop-color="#000000" stop-opacity="1" stroke="#000000"/> 		</radialGradient> 	</defs> 	 	<rect id="_4BD52AEF-2676-4CA6-8F53-347C8BB53409text_frame" oryx:anchors="bottom top right left" x="1" y="1" width="104" height="49" rx="10" ry="10" stroke="none" stroke-width="0" fill="none"/> 	<rect id="_4BD52AEF-2676-4CA6-8F53-347C8BB53409bg_frame" oryx:resize="vertical horizontal" x="0" y="0" width="110.00000000000001" height="50" rx="10" ry="10" stroke="#000000" stroke-width="1" fill="url(#_4BD52AEF-2676-4CA6-8F53-347C8BB53409background) #ffffcc"/> 		<text font-size="12" id="_4BD52AEF-2676-4CA6-8F53-347C8BB53409text_name" x="55.00000000000001" y="25" oryx:align="middle center" oryx:fittoelem="text_frame" stroke="black" text-anchor="middle" stroke-width="0pt" letter-spacing="-0.01px" fill="#000000" transform="rotate(0 55.00000000000001 25)" visibility="inherit" oryx:fontSize="12"><tspan x="55.00000000000001" y="25" dy="-7" id="ext-gen688">Gestionar </tspan><tspan x="55.00000000000001" y="25" dy="5" id="ext-gen675">unidades </tspan><tspan x="55.00000000000001" y="25" dy="17" id="ext-gen674">documentales</tspan></text>     <g id="_4BD52AEF-2676-4CA6-8F53-347C8BB53409manualTask" transform="scale(0.7,0.7) translate(8,8)" display="none">     	<path oryx:anchors="top left" id="_4BD52AEF-2676-4CA6-8F53-347C8BB53409frame" style="opacity:1;fill:none;fill-opacity:1;stroke-width:1" d="M0.5,3.751l4.083-3.25c0,0,11.166,0.083,12.083,0.083s-2.417,2.917-1.5,2.917     s11.667,0,12.584,0c1.166,1.708-0.168,3.167-0.834,3.667s0.875,1.917-1,4.417c-0.75,0.25,0.75,1.875-1.333,3.333     c-1.167,0.583,0.583,1.542-1.25,2.833c-1.167,0-20.833,0.083-20.833,0.083l-2-1.333V3.751z" stroke="#000000"/> 		<path id="_4BD52AEF-2676-4CA6-8F53-347C8BB53409frame2" oryx:anchors="top left" style="opacity:1;fill:none;stroke-width:2" d="M 13.5 7 L 27 7" stroke="#000000"/> 		<path id="_4BD52AEF-2676-4CA6-8F53-347C8BB53409frame3" oryx:anchors="top left" style="opacity:1;fill:none;stroke-width:2" d="M 13.5 11 L 26 11" stroke="#000000"/> 		<path id="_4BD52AEF-2676-4CA6-8F53-347C8BB53409frame4" oryx:anchors="top left" style="opacity:1;fill:none;stroke-width:1.5" d="M 14 14.5 L 25 14.5" stroke="#000000"/> 		<path id="_4BD52AEF-2676-4CA6-8F53-347C8BB53409frame5" oryx:anchors="top left" style="opacity:1;fill:none;stroke-width:1.5" d="M 8.2 3.1 L 15 3.1" stroke="#000000"/> 	</g> 	 	<g id="_4BD52AEF-2676-4CA6-8F53-347C8BB53409businessRuleTask" transform="scale(0.7,0.7) translate(8,8)" display="none"> 		<rect id="_4BD52AEF-2676-4CA6-8F53-347C8BB53409frame6" oryx:anchors="top left" x="0" y="0" width="22" height="4" style="opacity:1;fill:#B3B1B3;fill-opacity:1;" stroke="#000000"/> 		<rect id="_4BD52AEF-2676-4CA6-8F53-347C8BB53409frame7" oryx:anchors="top left" x="0" y="4" style="opacity:1;fill:none;" width="22" height="12" stroke="#000000"/> 		<path id="_4BD52AEF-2676-4CA6-8F53-347C8BB53409frame8" oryx:anchors="top left" style="opacity:1;fill:none;" d="M 0 10 L 22 10" stroke="#000000"/> 		<path id="_4BD52AEF-2676-4CA6-8F53-347C8BB53409frame9" oryx:anchors="top left" style="opacity:1; fill:none;" d="M 7 4 L 7 16" stroke="#000000"/> 	</g> 	 	<g id="_4BD52AEF-2676-4CA6-8F53-347C8BB53409scriptTask" transform="scale(0.7,0.7) translate(8,8)" display="none"> 		<path oryx:anchors="top left" id="_4BD52AEF-2676-4CA6-8F53-347C8BB53409frame10" style="opacity:1;fill:none;" stroke="#000000" d="M6.402,0.5h14.5c0,0-5.833,2.833-5.833,5.583s4.417,6,4.417,9.167    s-4.167,5.083-4.167,5.083H0.235c0,0,5-2.667,5-5s-4.583-6.75-4.583-9.25S6.402,0.5,6.402,0.5z"/> 		<path oryx:anchors="top left" id="_4BD52AEF-2676-4CA6-8F53-347C8BB53409frame11" style="opacity:1;fill:none;stroke-width:1.5" d="M 3.5 4.5 L 13.5 4.5" stroke="#000000"/> 		<path oryx:anchors="top left" id="_4BD52AEF-2676-4CA6-8F53-347C8BB53409frame12" style="opacity:1;fill:none;stroke-width:1.5" d="M 3.8 8.5 L 13.8 8.5" stroke="#000000"/> 		<path oryx:anchors="top left" id="_4BD52AEF-2676-4CA6-8F53-347C8BB53409frame13" style="opacity:1;fill:none;stroke-width:1.5" d="M 6.3 12.5 L 16.3 12.5" stroke="#000000"/> 		<path oryx:anchors="top left" id="_4BD52AEF-2676-4CA6-8F53-347C8BB53409frame14" style="opacity:1;fill:none;stroke-width:1.5" d="M 6.5 16.5 L 16.5 16.5" stroke="#000000"/> 	</g> 	 	<g id="_4BD52AEF-2676-4CA6-8F53-347C8BB53409userTask" transform="scale(0.7,0.7) translate(8,8)" display="inherit"> 		<path id="_4BD52AEF-2676-4CA6-8F53-347C8BB53409frame15" oryx:anchors="top left" style="opacity:1;fill:#F4F6F7" stroke="#000000" d="M0.585,24.167h24.083v-7.833c0,0-2.333-3.917-7.083-5.167h-9.25    c-4.417,1.333-7.833,5.75-7.833,5.75L0.585,24.167z"/> 		<path id="_4BD52AEF-2676-4CA6-8F53-347C8BB53409frame16" oryx:anchors="top left" style="opacity:1;fill:none" d="M 6 20 L 6 24" stroke="#000000"/> 		<path id="_4BD52AEF-2676-4CA6-8F53-347C8BB53409frame17" oryx:anchors="top left" style="opacity:1;fill:none" d="M 20 20 L 20 24" stroke="#000000"/> 		<circle id="_4BD52AEF-2676-4CA6-8F53-347C8BB53409frame18" oryx:anchors="top left" fill="black" cx="13.002" cy="5.916" r="5.417" stroke="#000000"/> 		<path id="_4BD52AEF-2676-4CA6-8F53-347C8BB53409frame19" oryx:anchors="top left" style="opacity:1;fill:#F0EFF0;" stroke="#000000" d="M8.043,7.083c0,0,2.814-2.426,5.376-1.807s4.624-0.693,4.624-0.693    c0.25,1.688,0.042,3.75-1.458,5.584c0,0,1.083,0.75,1.083,1.5s0.125,1.875-1,3s-5.5,1.25-6.75,0S8.668,12.834,8.668,12    s0.583-1.25,1.25-1.917C8.835,9.5,7.419,7.708,8.043,7.083z"/> 	</g> 	 	<g id="_4BD52AEF-2676-4CA6-8F53-347C8BB53409serviceTask" transform="scale(0.7,0.7) translate(8,8)" display="none"> 		<polygon oryx:anchors="top left" id="_4BD52AEF-2676-4CA6-8F53-347C8BB53409frame20" style="opacity:1;fill:#ffffff" stroke="#000000" points="15.392,5.064 17.954,2.502 20.347,4.895 17.786,7.455     18.729,9.732 22.353,9.732 22.353,13.115 18.731,13.115 17.788,15.392 20.351,17.955 17.958,20.347 15.397,17.786 13.12,18.729     13.12,22.353 9.737,22.353 9.737,18.731 7.46,17.788 4.897,20.35 2.506,17.958 5.066,15.397 4.124,13.12 0.5,13.12 0.5,9.737     4.121,9.737 5.065,7.461 2.503,4.898 4.895,2.506 7.455,5.066 9.732,4.125 9.732,0.5 13.116,0.5 13.116,4.121 "/> 		<circle oryx:anchors="top left" id="_4BD52AEF-2676-4CA6-8F53-347C8BB53409frame21" style="opacity:1;fill:none" stroke="#000000" cx="11.427" cy="11.426" r="3.714"/> 		<polygon oryx:anchors="top left" id="_4BD52AEF-2676-4CA6-8F53-347C8BB53409frame22" style="opacity:1;fill:#ffffff" stroke="#000000" points="21.392,11.064 23.954,8.502 26.347,10.895 23.786,13.455     24.729,15.732 28.353,15.732 28.353,19.115 24.731,19.115 23.788,21.392 26.351,23.955 23.958,26.347 21.397,23.786 19.12,24.729     19.12,28.353 15.737,28.353 15.737,24.731 13.46,23.788 10.897,26.35 8.506,23.958 11.066,21.397 10.124,19.12 6.5,19.12     6.5,15.737 10.121,15.737 11.065,13.461 8.503,10.898 10.895,8.506 13.455,11.066 15.732,10.125 15.732,6.5 19.116,6.5     19.116,10.121 "/> 		<circle oryx:anchors="top left" id="_4BD52AEF-2676-4CA6-8F53-347C8BB53409frame23" style="opacity:1;fill:none;" stroke="#000000" cx="17.427" cy="17.426" r="3.714"/> 	</g> 	 	<g id="_4BD52AEF-2676-4CA6-8F53-347C8BB53409sendTask" display="none"> 		<path id="_4BD52AEF-2676-4CA6-8F53-347C8BB53409stframe24" oryx:anchors="left top" stroke="#FFFFFF" fill="black" stroke-width="1" d="M8,11 L8,21 L24,21 L24,11 L16,17z"/> 		<path id="_4BD52AEF-2676-4CA6-8F53-347C8BB53409stframe25" oryx:anchors="left top" stroke="#FFFFFF" fill="black" stroke-width="1" d="M7,10 L16,17 L25 10z"/> 	</g> 	 	<g id="_4BD52AEF-2676-4CA6-8F53-347C8BB53409receiveTask" display="none"> 		<path id="_4BD52AEF-2676-4CA6-8F53-347C8BB53409frame26" oryx:anchors="left top" stroke="#000000" fill="none" stroke-width="1" d="M8,11 L8,21 L24,21 L24,11z M8,11 L16,17 L24,11"/> 	</g> 	 	<g id="_4BD52AEF-2676-4CA6-8F53-347C8BB53409none" display="inherit"/>  	<g id="_4BD52AEF-2676-4CA6-8F53-347C8BB53409sequential" display="none">         <path oryx:anchors="bottom" fill="none" stroke="#000000" stroke-width="2" d=" M51.1 46  h10  M51.1 42  h10  M51.1 38  h10 " id="_4BD52AEF-2676-4CA6-8F53-347C8BB53409__4BD52AEF-2676-4CA6-8F53-347C8BB53409_20"/>     </g>   </g></g><g class="children" style="overflow:hidden"/><g class="edge"/></g><g class="controls"><g class="dockers"/><g class="magnets" transform="translate(225, 60)"><g pointer-events="all" display="none" transform="translate(-7, 4.5)"><circle cx="8" cy="8" r="4" stroke="none" fill="red" fill-opacity="0.3"/></g><g pointer-events="all" display="none" transform="translate(-7, 17)"><circle cx="8" cy="8" r="4" stroke="none" fill="red" fill-opacity="0.3"/></g><g pointer-events="all" display="none" transform="translate(-7, 29.5)"><circle cx="8" cy="8" r="4" stroke="none" fill="red" fill-opacity="0.3"/></g><g pointer-events="all" display="none" transform="translate(19.500000000000004, 41)"><circle cx="8" cy="8" r="4" stroke="none" fill="red" fill-opacity="0.3"/></g><g pointer-events="all" display="none" transform="translate(47.00000000000001, 41)"><circle cx="8" cy="8" r="4" stroke="none" fill="red" fill-opacity="0.3"/></g><g pointer-events="all" display="none" transform="translate(74.5, 41)"><circle cx="8" cy="8" r="4" stroke="none" fill="red" fill-opacity="0.3"/></g><g pointer-events="all" display="none" transform="translate(101, 4.5)"><circle cx="8" cy="8" r="4" stroke="none" fill="red" fill-opacity="0.3"/></g><g pointer-events="all" display="none" transform="translate(101, 17)"><circle cx="8" cy="8" r="4" stroke="none" fill="red" fill-opacity="0.3"/></g><g pointer-events="all" display="none" transform="translate(101, 29.5)"><circle cx="8" cy="8" r="4" stroke="none" fill="red" fill-opacity="0.3"/></g><g pointer-events="all" display="none" transform="translate(19.500000000000004, -7)"><circle cx="8" cy="8" r="4" stroke="none" fill="red" fill-opacity="0.3"/></g><g pointer-events="all" display="none" transform="translate(47.00000000000001, -7)"><circle cx="8" cy="8" r="4" stroke="none" fill="red" fill-opacity="0.3"/></g><g pointer-events="all" display="none" transform="translate(74.5, -7)"><circle cx="8" cy="8" r="4" stroke="none" fill="red" fill-opacity="0.3"/></g><g pointer-events="all" display="none" transform="translate(47.00000000000001, 17)"><circle cx="8" cy="8" r="4" stroke="none" fill="red" fill-opacity="0.3"/></g></g></g></g><g id="_186A8E99-9467-4167-B9BC-6C8157F1CD56" bpmn2nodeid="_6BB5A65B-A2DE-42B0-8C41-5935656EFC08"><g class="stencils" transform="translate(90, 70.5)"><g class="me"><g pointer-events="fill" id="_186A8E99-9467-4167-B9BC-6C8157F1CD56">        <defs id="_186A8E99-9467-4167-B9BC-6C8157F1CD56__186A8E99-9467-4167-B9BC-6C8157F1CD56_5"> 		<radialGradient id="_186A8E99-9467-4167-B9BC-6C8157F1CD56background" cx="10%" cy="10%" r="100%" fx="10%" fy="10%"> 			<stop offset="0%" stop-color="#ffffff" stop-opacity="1" id="_186A8E99-9467-4167-B9BC-6C8157F1CD56__186A8E99-9467-4167-B9BC-6C8157F1CD56_6"/> 			<stop id="_186A8E99-9467-4167-B9BC-6C8157F1CD56fill_el" offset="100%" stop-color="#9acd32" stop-opacity="1"/> 		</radialGradient> 	</defs> 	     <circle id="_186A8E99-9467-4167-B9BC-6C8157F1CD56bg_frame" cx="15" cy="15" r="15" stroke="#000000" fill="url(#_186A8E99-9467-4167-B9BC-6C8157F1CD56background) white" stroke-width="1" style="stroke-dasharray: 5.5, 3"/>      <circle id="_186A8E99-9467-4167-B9BC-6C8157F1CD56frame" cx="15" cy="15" r="15" stroke="#000000" fill="none" stroke-width="1" display="inherit"/>  	<text font-size="11" id="_186A8E99-9467-4167-B9BC-6C8157F1CD56text_name" x="15" y="32" oryx:align="top center" stroke="black" stroke-width="0pt" letter-spacing="-0.01px" fill="#000000" text-anchor="middle" transform="rotate(0 15 32)" visibility="inherit" oryx:fontSize="11"><tspan x="15" y="32" dy="11" id="ext-gen651">Inicio</tspan></text>   </g></g><g class="children" style="overflow:hidden"/><g class="edge"/></g><g class="controls"><g class="dockers"/><g class="magnets" transform="translate(90, 70.5)"><g pointer-events="all" display="none" transform="translate(7, 7)"><circle cx="8" cy="8" r="4" stroke="none" fill="red" fill-opacity="0.3"/></g></g></g></g><g id="_57081E43-DAA7-432C-810C-1E4F5C5757A7" bpmn2nodeid="_AF577ED2-5715-4EC7-A056-F79787FD3EA8"><g class="stencils" transform="translate(489, 71)"><g class="me"><g pointer-events="fill" id="_57081E43-DAA7-432C-810C-1E4F5C5757A7">      <defs id="_57081E43-DAA7-432C-810C-1E4F5C5757A7__57081E43-DAA7-432C-810C-1E4F5C5757A7_5"> 		<radialGradient id="_57081E43-DAA7-432C-810C-1E4F5C5757A7background" cx="10%" cy="10%" r="100%" fx="10%" fy="10%"> 			<stop offset="0%" stop-color="#ffffff" stop-opacity="1" id="_57081E43-DAA7-432C-810C-1E4F5C5757A7__57081E43-DAA7-432C-810C-1E4F5C5757A7_6"/> 			<stop id="_57081E43-DAA7-432C-810C-1E4F5C5757A7fill_el" offset="100%" stop-color="#ff6347" stop-opacity="1"/> 		</radialGradient> 	</defs> 	     <circle id="_57081E43-DAA7-432C-810C-1E4F5C5757A7bg_frame" cx="14" cy="14" r="14" stroke="#000000" fill="url(#_57081E43-DAA7-432C-810C-1E4F5C5757A7background) white" stroke-width="3"/> 	<text font-size="11" id="_57081E43-DAA7-432C-810C-1E4F5C5757A7text_name" x="14" y="30" oryx:align="top center" stroke="black" stroke-width="0pt" letter-spacing="-0.01px" fill="#000000" text-anchor="middle" transform="rotate(0 14 30)" visibility="inherit" oryx:fontSize="11"><tspan x="14" y="30" dy="11">Fin</tspan></text>   </g></g><g class="children" style="overflow:hidden"/><g class="edge"/></g><g class="controls"><g class="dockers"/><g class="magnets" transform="translate(489, 71)"><g pointer-events="all" display="none" transform="translate(6, 6)"><circle cx="8" cy="8" r="4" stroke="none" fill="red" fill-opacity="0.3"/></g></g></g></g></g><g class="edge"/></g><g class="controls"><g class="dockers"/><g class="magnets" transform="translate(0, 0)"><g pointer-events="all" display="none" transform="translate(332.5, 77.5)"><circle cx="8" cy="8" r="4" stroke="none" fill="red" fill-opacity="0.3"/></g></g></g></g></g><g class="edge"><g id="_59174554-DFCB-49C2-940D-C8F71A33C3CB" bpmn2nodeid="_A546B304-B53D-4D7B-8D3C-65D5F2387A7D"><g class="stencils"><g class="me"><g pointer-events="painted" bpmn2nodeid="_DB56CC69-A0D9-4931-A68D-9CA6CA7254BF"><path id="_59174554-DFCB-49C2-940D-C8F71A33C3CB_1" d="M120.35546466839233 85.45612724380459L224.31250408160767 85.15910713119541 " stroke="#000000" fill="none" stroke-width="2" stroke-linecap="round" stroke-linejoin="round" marker-start="url(#_59174554-DFCB-49C2-940D-C8F71A33C3CBstart)" marker-end="url(#_59174554-DFCB-49C2-940D-C8F71A33C3CBend)"/></g><text id="_59174554-DFCB-49C2-940D-C8F71A33C3CBtext_name" font-size="12" x="134.35546466839233" y="71.45612724380459" oryx:edgePosition="startTop" stroke-width="0pt" letter-spacing="-0.01px" fill="#000000" text-anchor="start" transform="rotate(359.8362982182658 120.35546466839233 85.45612724380459)" visibility="inherit" oryx:fontSize="12"/></g><g class="children" style="overflow:hidden"/><g class="edge"/></g><g class="controls"><g class="dockers"/><g class="magnets"/></g></g><g id="_0C98A914-0C84-475E-BA28-AAF7048D4228" bpmn2nodeid="_495309E4-B785-430E-A752-654641C3AF2C"><g class="stencils"><g class="me"><g pointer-events="painted" bpmn2nodeid="_38733D16-037C-4451-BAF0-4B060999099C"><path id="_0C98A914-0C84-475E-BA28-AAF7048D4228_1" d="M335.0078125 85L488.0625 85 " stroke="#000000" fill="none" stroke-width="2" stroke-linecap="round" stroke-linejoin="round" marker-start="url(#_0C98A914-0C84-475E-BA28-AAF7048D4228start)" marker-end="url(#_0C98A914-0C84-475E-BA28-AAF7048D4228end)"/></g><text id="_0C98A914-0C84-475E-BA28-AAF7048D4228text_name" font-size="12" x="349.0078125" y="71" oryx:edgePosition="startTop" stroke-width="0pt" letter-spacing="-0.01px" fill="#000000" text-anchor="start" transform="rotate(360 335.0078125 85)" visibility="inherit" oryx:fontSize="12"/></g><g class="children" style="overflow:hidden"/><g class="edge"/></g><g class="controls"><g class="dockers"/><g class="magnets"/></g></g></g><text id="_82CE9A66-7939-4FDD-915C-CC61ECBAD8FD" style="stroke-width:1;fill:rgb(177,194,214);font-family:arial;font-weight:bold" font-size="12" onclick="ORYX.Plugins.CanvasTitle.openTextualAnalysis()" onmouseover="ORYX.Plugins.CanvasTitle.addToolTip('_82CE9A66-7939-4FDD-915C-CC61ECBAD8FD')" transform="translate(10, 20)">gestion-unidades-documentales v.1.0 (proceso.gestion-unidades-documentales)</text></g></g></svg>