<svg xmlns="http://www.w3.org/2000/svg" xmlns:oryx="http://oryx-editor.org" id="_7FDA4540-9789-45DE-842C-D509B3A540EF" width="712" height="231" xmlns:xlink="http://www.w3.org/1999/xlink" xmlns:svg="http://www.w3.org/2000/svg"><defs><marker id="_DB53E0B7-32BB-4AEE-975A-3219C393159Estart" refX="1" refY="5" markerUnits="userSpaceOnUse" markerWidth="17" markerHeight="11" orient="auto" fill="#000000" stroke="#000000"> 	  		<path id="_DB53E0B7-32BB-4AEE-975A-3219C393159Econditional" d="M 0 5 L 8 0 L 16 5 L 8 10 L 0 5" fill="white" stroke="#000000" stroke-width="1" display="none"/> 			<path id="_DB53E0B7-32BB-4AEE-975A-3219C393159Edefault" d="M 5 0 L 11 10" fill="white" stroke="#000000" stroke-width="1" display="none"/> 	  	</marker><marker id="_DB53E0B7-32BB-4AEE-975A-3219C393159Eend" refX="15" refY="6" markerUnits="userSpaceOnUse" markerWidth="15" markerHeight="12" orient="auto" fill="#000000" stroke="#000000"> 	  		<path id="_DB53E0B7-32BB-4AEE-975A-3219C393159Eframe2" d="M 0 1 L 15 6 L 0 11z" fill="#000000" stroke="#000000" stroke-linejoin="round" stroke-width="2"/> 	  	</marker><marker id="_2C4ED552-902E-49BB-A5C4-A557F5E8EDDFstart" refX="1" refY="5" markerUnits="userSpaceOnUse" markerWidth="17" markerHeight="11" orient="auto" fill="#000000" stroke="#000000"> 	  		<path id="_2C4ED552-902E-49BB-A5C4-A557F5E8EDDFconditional" d="M 0 5 L 8 0 L 16 5 L 8 10 L 0 5" fill="white" stroke="#000000" stroke-width="1" display="none"/> 			<path id="_2C4ED552-902E-49BB-A5C4-A557F5E8EDDFdefault" d="M 5 0 L 11 10" fill="white" stroke="#000000" stroke-width="1" display="none"/> 	  	</marker><marker id="_2C4ED552-902E-49BB-A5C4-A557F5E8EDDFend" refX="15" refY="6" markerUnits="userSpaceOnUse" markerWidth="15" markerHeight="12" orient="auto" fill="#000000" stroke="#000000"> 	  		<path id="_2C4ED552-902E-49BB-A5C4-A557F5E8EDDFframe2" d="M 0 1 L 15 6 L 0 11z" fill="#000000" stroke="#000000" stroke-linejoin="round" stroke-width="2"/> 	  	</marker></defs><g stroke="none" font-family="Verdana, sans-serif" font-size-adjust="none" font-style="normal" font-variant="normal" font-weight="normal" line-heigth="normal" font-size="12"><g class="stencils" transform="translate(16, 16)"><g class="me"/><g class="children"><g id="_911F34AC-2E2D-4E00-9A79-2EAD1B1E7B6E" bpmn2nodeid="_23FBA326-86C7-47C1-8EC2-FD906F8E8E7D"><g class="stencils" transform="translate(40, 40)"><g class="me"><g pointer-events="painted" id="_911F34AC-2E2D-4E00-9A79-2EAD1B1E7B6E">         <defs id="_911F34AC-2E2D-4E00-9A79-2EAD1B1E7B6E__911F34AC-2E2D-4E00-9A79-2EAD1B1E7B6E_3"> 		<radialGradient id="_911F34AC-2E2D-4E00-9A79-2EAD1B1E7B6Ebackground" cx="0%" cy="10%" r="100%" fx="20%" fy="10%"> 			<stop offset="0%" stop-color="#ffffff" stop-opacity="1" id="_911F34AC-2E2D-4E00-9A79-2EAD1B1E7B6E__911F34AC-2E2D-4E00-9A79-2EAD1B1E7B6E_4"/> 			<stop id="_911F34AC-2E2D-4E00-9A79-2EAD1B1E7B6Efill_el" offset="100%" stop-color="#ffffff" stop-opacity="1"/> 		</radialGradient> 	</defs> 	   	 	<rect id="_911F34AC-2E2D-4E00-9A79-2EAD1B1E7B6Eborder" oryx:resize="vertical horizontal" x="0" y="0" width="631" height="150" stroke="#000000" stroke-width="1" fill="url(#_911F34AC-2E2D-4E00-9A79-2EAD1B1E7B6Ebackground) white"/> 	 	 	 	<path id="_911F34AC-2E2D-4E00-9A79-2EAD1B1E7B6Eframe2" style="fill:none;stroke-width:1" d=" M0 0  L0 150 " oryx:anchors="left top bottom" stroke="#000000"/> 	 	undefined 	     <text x="50" y="75" oryx:rotate="270" font-size="12" id="_911F34AC-2E2D-4E00-9A79-2EAD1B1E7B6Etext_name" oryx:align="middle center" oryx:anchors="left" oryx:fittoelem="frame" stroke="black" stroke-width="0pt" letter-spacing="-0.01px" fill="#000000" text-anchor="middle" transform="rotate(270 50 75)" visibility="inherit" oryx:fontSize="12"><tspan x="50" y="75" dy="5">Jefe Departamento</tspan></text>   </g></g><g class="children" style="overflow:hidden"><g id="_FE622CA8-8D09-4B5C-9CC6-BD5BFC8E7550" bpmn2nodeid="_7621912B-B331-4C5A-A3E7-79A8CE0496DC"><g class="stencils" transform="translate(30, 60)"><g class="me"><g pointer-events="fill" id="_FE622CA8-8D09-4B5C-9CC6-BD5BFC8E7550">        <defs id="_FE622CA8-8D09-4B5C-9CC6-BD5BFC8E7550__FE622CA8-8D09-4B5C-9CC6-BD5BFC8E7550_5"> 		<radialGradient id="_FE622CA8-8D09-4B5C-9CC6-BD5BFC8E7550background" cx="10%" cy="10%" r="100%" fx="10%" fy="10%"> 			<stop offset="0%" stop-color="#ffffff" stop-opacity="1" id="_FE622CA8-8D09-4B5C-9CC6-BD5BFC8E7550__FE622CA8-8D09-4B5C-9CC6-BD5BFC8E7550_6"/> 			<stop id="_FE622CA8-8D09-4B5C-9CC6-BD5BFC8E7550fill_el" offset="100%" stop-color="#9acd32" stop-opacity="1"/> 		</radialGradient> 	</defs> 	     <circle id="_FE622CA8-8D09-4B5C-9CC6-BD5BFC8E7550bg_frame" cx="15" cy="15" r="15" stroke="#000000" fill="url(#_FE622CA8-8D09-4B5C-9CC6-BD5BFC8E7550background) white" stroke-width="1" style="stroke-dasharray: 5.5, 3"/>      <circle id="_FE622CA8-8D09-4B5C-9CC6-BD5BFC8E7550frame" cx="15" cy="15" r="15" stroke="#000000" fill="none" stroke-width="1" display="inherit"/>  	<text font-size="11" id="_FE622CA8-8D09-4B5C-9CC6-BD5BFC8E7550text_name" x="15" y="32" oryx:align="top center" stroke="black" stroke-width="0pt" letter-spacing="-0.01px" fill="#000000" text-anchor="middle" transform="rotate(0 15 32)" visibility="inherit" oryx:fontSize="11"><tspan x="15" y="32" dy="11">Iniciar</tspan></text>   </g></g><g class="children" style="overflow:hidden"/><g class="edge"/></g><g class="controls"><g class="dockers"/><g class="magnets" transform="translate(30, 60)"><g pointer-events="all" display="none" transform="translate(7, 7)"><circle cx="8" cy="8" r="4" stroke="none" fill="red" fill-opacity="0.3"/></g></g></g></g><g id="_025C0636-208F-45EB-A9C6-5EB13EFBA529" bpmn2nodeid="_91F32ECD-B068-4E10-AD75-37BD4637ABAE"><g class="stencils" transform="translate(550, 60)"><g class="me"><g pointer-events="fill" id="_025C0636-208F-45EB-A9C6-5EB13EFBA529">      <defs id="_025C0636-208F-45EB-A9C6-5EB13EFBA529__025C0636-208F-45EB-A9C6-5EB13EFBA529_5"> 		<radialGradient id="_025C0636-208F-45EB-A9C6-5EB13EFBA529background" cx="10%" cy="10%" r="100%" fx="10%" fy="10%"> 			<stop offset="0%" stop-color="#ffffff" stop-opacity="1" id="_025C0636-208F-45EB-A9C6-5EB13EFBA529__025C0636-208F-45EB-A9C6-5EB13EFBA529_6"/> 			<stop id="_025C0636-208F-45EB-A9C6-5EB13EFBA529fill_el" offset="100%" stop-color="#ff6347" stop-opacity="1"/> 		</radialGradient> 	</defs> 	     <circle id="_025C0636-208F-45EB-A9C6-5EB13EFBA529bg_frame" cx="14" cy="14" r="14" stroke="#000000" fill="url(#_025C0636-208F-45EB-A9C6-5EB13EFBA529background) white" stroke-width="3"/> 	<text font-size="11" id="_025C0636-208F-45EB-A9C6-5EB13EFBA529text_name" x="14" y="30" oryx:align="top center" stroke="black" stroke-width="0pt" letter-spacing="-0.01px" fill="#000000" text-anchor="middle" transform="rotate(0 14 30)" visibility="inherit" oryx:fontSize="11"><tspan x="14" y="30" dy="11">Finalizar</tspan></text>   </g></g><g class="children" style="overflow:hidden"/><g class="edge"/></g><g class="controls"><g class="dockers"/><g class="magnets" transform="translate(550, 60)"><g pointer-events="all" display="none" transform="translate(6, 6)"><circle cx="8" cy="8" r="4" stroke="none" fill="red" fill-opacity="0.3"/></g></g></g></g><g id="_E963BD29-6660-4C75-B8F7-ACB1EF874378" bpmn2nodeid="_3BCD0E3F-4390-4DC0-9AF9-CD9525D8F09B"><g class="stencils" transform="translate(185, 43)"><g class="me"><g pointer-events="fill" oryx:minimumSize="50 40" id="_E963BD29-6660-4C75-B8F7-ACB1EF874378">   	<defs id="_E963BD29-6660-4C75-B8F7-ACB1EF874378__E963BD29-6660-4C75-B8F7-ACB1EF874378_17"> 		<radialGradient id="_E963BD29-6660-4C75-B8F7-ACB1EF874378background" cx="10%" cy="10%" r="100%" fx="10%" fy="10%"> 			<stop offset="0%" stop-color="#ffffff" stop-opacity="1" id="_E963BD29-6660-4C75-B8F7-ACB1EF874378__E963BD29-6660-4C75-B8F7-ACB1EF874378_18"/> 			<stop id="_E963BD29-6660-4C75-B8F7-ACB1EF874378fill_el" offset="100%" stop-color="#3366FF" stop-opacity="1"/> 		</radialGradient> 		<radialGradient id="_E963BD29-6660-4C75-B8F7-ACB1EF874378borderbackground" cx="10%" cy="10%" r="100%" fx="10%" fy="10%"> 			<stop offset="0%" stop-color="#ffffff" stop-opacity="1" id="_E963BD29-6660-4C75-B8F7-ACB1EF874378__E963BD29-6660-4C75-B8F7-ACB1EF874378_19"/> 			<stop id="_E963BD29-6660-4C75-B8F7-ACB1EF874378fill_border" offset="100%" stop-color="#000000" stop-opacity="1" stroke="#000000"/> 		</radialGradient> 	</defs> 	 	<rect id="_E963BD29-6660-4C75-B8F7-ACB1EF874378text_frame" oryx:anchors="bottom top right left" x="1" y="1" width="165" height="62" rx="10" ry="10" stroke="none" stroke-width="0" fill="none"/> 	<rect id="_E963BD29-6660-4C75-B8F7-ACB1EF874378bg_frame" oryx:resize="vertical horizontal" x="0" y="0" width="171" height="63" rx="10" ry="10" stroke="#000000" stroke-width="1" fill="url(#_E963BD29-6660-4C75-B8F7-ACB1EF874378background) #ffffcc"/> 		<text font-size="12" id="_E963BD29-6660-4C75-B8F7-ACB1EF874378text_name" x="85.5" y="31.5" oryx:align="middle center" oryx:fittoelem="text_frame" stroke="black" text-anchor="middle" stroke-width="0pt" letter-spacing="-0.01px" fill="#000000" transform="rotate(0 85.5 31.5)" visibility="inherit" oryx:fontSize="12"><tspan x="85.5" y="31.5" dy="5" id="ext-gen1474">Validar y Asignar Comunicacion</tspan></text>     <g id="_E963BD29-6660-4C75-B8F7-ACB1EF874378manualTask" transform="scale(0.7,0.7) translate(8,8)" display="none">     	<path oryx:anchors="top left" id="_E963BD29-6660-4C75-B8F7-ACB1EF874378frame" style="opacity:1;fill:none;fill-opacity:1;stroke-width:1" d="M0.5,3.751l4.083-3.25c0,0,11.166,0.083,12.083,0.083s-2.417,2.917-1.5,2.917     s11.667,0,12.584,0c1.166,1.708-0.168,3.167-0.834,3.667s0.875,1.917-1,4.417c-0.75,0.25,0.75,1.875-1.333,3.333     c-1.167,0.583,0.583,1.542-1.25,2.833c-1.167,0-20.833,0.083-20.833,0.083l-2-1.333V3.751z" stroke="#000000"/> 		<path id="_E963BD29-6660-4C75-B8F7-ACB1EF874378frame2" oryx:anchors="top left" style="opacity:1;fill:none;stroke-width:2" d="M 13.5 7 L 27 7" stroke="#000000"/> 		<path id="_E963BD29-6660-4C75-B8F7-ACB1EF874378frame3" oryx:anchors="top left" style="opacity:1;fill:none;stroke-width:2" d="M 13.5 11 L 26 11" stroke="#000000"/> 		<path id="_E963BD29-6660-4C75-B8F7-ACB1EF874378frame4" oryx:anchors="top left" style="opacity:1;fill:none;stroke-width:1.5" d="M 14 14.5 L 25 14.5" stroke="#000000"/> 		<path id="_E963BD29-6660-4C75-B8F7-ACB1EF874378frame5" oryx:anchors="top left" style="opacity:1;fill:none;stroke-width:1.5" d="M 8.2 3.1 L 15 3.1" stroke="#000000"/> 	</g> 	 	<g id="_E963BD29-6660-4C75-B8F7-ACB1EF874378businessRuleTask" transform="scale(0.7,0.7) translate(8,8)" display="none"> 		<rect id="_E963BD29-6660-4C75-B8F7-ACB1EF874378frame6" oryx:anchors="top left" x="0" y="0" width="22" height="4" style="opacity:1;fill:#B3B1B3;fill-opacity:1;" stroke="#000000"/> 		<rect id="_E963BD29-6660-4C75-B8F7-ACB1EF874378frame7" oryx:anchors="top left" x="0" y="4" style="opacity:1;fill:none;" width="22" height="12" stroke="#000000"/> 		<path id="_E963BD29-6660-4C75-B8F7-ACB1EF874378frame8" oryx:anchors="top left" style="opacity:1;fill:none;" d="M 0 10 L 22 10" stroke="#000000"/> 		<path id="_E963BD29-6660-4C75-B8F7-ACB1EF874378frame9" oryx:anchors="top left" style="opacity:1; fill:none;" d="M 7 4 L 7 16" stroke="#000000"/> 	</g> 	 	<g id="_E963BD29-6660-4C75-B8F7-ACB1EF874378scriptTask" transform="scale(0.7,0.7) translate(8,8)" display="none"> 		<path oryx:anchors="top left" id="_E963BD29-6660-4C75-B8F7-ACB1EF874378frame10" style="opacity:1;fill:none;" stroke="#000000" d="M6.402,0.5h14.5c0,0-5.833,2.833-5.833,5.583s4.417,6,4.417,9.167    s-4.167,5.083-4.167,5.083H0.235c0,0,5-2.667,5-5s-4.583-6.75-4.583-9.25S6.402,0.5,6.402,0.5z"/> 		<path oryx:anchors="top left" id="_E963BD29-6660-4C75-B8F7-ACB1EF874378frame11" style="opacity:1;fill:none;stroke-width:1.5" d="M 3.5 4.5 L 13.5 4.5" stroke="#000000"/> 		<path oryx:anchors="top left" id="_E963BD29-6660-4C75-B8F7-ACB1EF874378frame12" style="opacity:1;fill:none;stroke-width:1.5" d="M 3.8 8.5 L 13.8 8.5" stroke="#000000"/> 		<path oryx:anchors="top left" id="_E963BD29-6660-4C75-B8F7-ACB1EF874378frame13" style="opacity:1;fill:none;stroke-width:1.5" d="M 6.3 12.5 L 16.3 12.5" stroke="#000000"/> 		<path oryx:anchors="top left" id="_E963BD29-6660-4C75-B8F7-ACB1EF874378frame14" style="opacity:1;fill:none;stroke-width:1.5" d="M 6.5 16.5 L 16.5 16.5" stroke="#000000"/> 	</g> 	 	<g id="_E963BD29-6660-4C75-B8F7-ACB1EF874378userTask" transform="scale(0.7,0.7) translate(8,8)" display="inherit"> 		<path id="_E963BD29-6660-4C75-B8F7-ACB1EF874378frame15" oryx:anchors="top left" style="opacity:1;fill:#F4F6F7" stroke="#000000" d="M0.585,24.167h24.083v-7.833c0,0-2.333-3.917-7.083-5.167h-9.25    c-4.417,1.333-7.833,5.75-7.833,5.75L0.585,24.167z"/> 		<path id="_E963BD29-6660-4C75-B8F7-ACB1EF874378frame16" oryx:anchors="top left" style="opacity:1;fill:none" d="M 6 20 L 6 24" stroke="#000000"/> 		<path id="_E963BD29-6660-4C75-B8F7-ACB1EF874378frame17" oryx:anchors="top left" style="opacity:1;fill:none" d="M 20 20 L 20 24" stroke="#000000"/> 		<circle id="_E963BD29-6660-4C75-B8F7-ACB1EF874378frame18" oryx:anchors="top left" fill="black" cx="13.002" cy="5.916" r="5.417" stroke="#000000"/> 		<path id="_E963BD29-6660-4C75-B8F7-ACB1EF874378frame19" oryx:anchors="top left" style="opacity:1;fill:#F0EFF0;" stroke="#000000" d="M8.043,7.083c0,0,2.814-2.426,5.376-1.807s4.624-0.693,4.624-0.693    c0.25,1.688,0.042,3.75-1.458,5.584c0,0,1.083,0.75,1.083,1.5s0.125,1.875-1,3s-5.5,1.25-6.75,0S8.668,12.834,8.668,12    s0.583-1.25,1.25-1.917C8.835,9.5,7.419,7.708,8.043,7.083z"/> 	</g> 	 	<g id="_E963BD29-6660-4C75-B8F7-ACB1EF874378serviceTask" transform="scale(0.7,0.7) translate(8,8)" display="none"> 		<polygon oryx:anchors="top left" id="_E963BD29-6660-4C75-B8F7-ACB1EF874378frame20" style="opacity:1;fill:#ffffff" stroke="#000000" points="15.392,5.064 17.954,2.502 20.347,4.895 17.786,7.455     18.729,9.732 22.353,9.732 22.353,13.115 18.731,13.115 17.788,15.392 20.351,17.955 17.958,20.347 15.397,17.786 13.12,18.729     13.12,22.353 9.737,22.353 9.737,18.731 7.46,17.788 4.897,20.35 2.506,17.958 5.066,15.397 4.124,13.12 0.5,13.12 0.5,9.737     4.121,9.737 5.065,7.461 2.503,4.898 4.895,2.506 7.455,5.066 9.732,4.125 9.732,0.5 13.116,0.5 13.116,4.121 "/> 		<circle oryx:anchors="top left" id="_E963BD29-6660-4C75-B8F7-ACB1EF874378frame21" style="opacity:1;fill:none" stroke="#000000" cx="11.427" cy="11.426" r="3.714"/> 		<polygon oryx:anchors="top left" id="_E963BD29-6660-4C75-B8F7-ACB1EF874378frame22" style="opacity:1;fill:#ffffff" stroke="#000000" points="21.392,11.064 23.954,8.502 26.347,10.895 23.786,13.455     24.729,15.732 28.353,15.732 28.353,19.115 24.731,19.115 23.788,21.392 26.351,23.955 23.958,26.347 21.397,23.786 19.12,24.729     19.12,28.353 15.737,28.353 15.737,24.731 13.46,23.788 10.897,26.35 8.506,23.958 11.066,21.397 10.124,19.12 6.5,19.12     6.5,15.737 10.121,15.737 11.065,13.461 8.503,10.898 10.895,8.506 13.455,11.066 15.732,10.125 15.732,6.5 19.116,6.5     19.116,10.121 "/> 		<circle oryx:anchors="top left" id="_E963BD29-6660-4C75-B8F7-ACB1EF874378frame23" style="opacity:1;fill:none;" stroke="#000000" cx="17.427" cy="17.426" r="3.714"/> 	</g> 	 	<g id="_E963BD29-6660-4C75-B8F7-ACB1EF874378sendTask" display="none"> 		<path id="_E963BD29-6660-4C75-B8F7-ACB1EF874378stframe24" oryx:anchors="left top" stroke="#FFFFFF" fill="black" stroke-width="1" d="M8,11 L8,21 L24,21 L24,11 L16,17z"/> 		<path id="_E963BD29-6660-4C75-B8F7-ACB1EF874378stframe25" oryx:anchors="left top" stroke="#FFFFFF" fill="black" stroke-width="1" d="M7,10 L16,17 L25 10z"/> 	</g> 	 	<g id="_E963BD29-6660-4C75-B8F7-ACB1EF874378receiveTask" display="none"> 		<path id="_E963BD29-6660-4C75-B8F7-ACB1EF874378frame26" oryx:anchors="left top" stroke="#000000" fill="none" stroke-width="1" d="M8,11 L8,21 L24,21 L24,11z M8,11 L16,17 L24,11"/> 	</g> 	 	<g id="_E963BD29-6660-4C75-B8F7-ACB1EF874378none" display="inherit"/>  	<g id="_E963BD29-6660-4C75-B8F7-ACB1EF874378sequential" display="none">         <path oryx:anchors="bottom" fill="none" stroke="#000000" stroke-width="2" d=" M82.21 59  h10  M82.21 55  h10  M82.21 51  h10 " id="_E963BD29-6660-4C75-B8F7-ACB1EF874378__E963BD29-6660-4C75-B8F7-ACB1EF874378_20"/>     </g>   </g></g><g class="children" style="overflow:hidden"/><g class="edge"/></g><g class="controls"><g class="dockers"/><g class="magnets" transform="translate(185, 43)"><g pointer-events="all" display="none" transform="translate(-7, 7.75)"><circle cx="8" cy="8" r="4" stroke="none" fill="red" fill-opacity="0.3"/></g><g pointer-events="all" display="none" transform="translate(-7, 23.5)"><circle cx="8" cy="8" r="4" stroke="none" fill="red" fill-opacity="0.3"/></g><g pointer-events="all" display="none" transform="translate(-7, 39.25)"><circle cx="8" cy="8" r="4" stroke="none" fill="red" fill-opacity="0.3"/></g><g pointer-events="all" display="none" transform="translate(34.75, 54)"><circle cx="8" cy="8" r="4" stroke="none" fill="red" fill-opacity="0.3"/></g><g pointer-events="all" display="none" transform="translate(77.5, 54)"><circle cx="8" cy="8" r="4" stroke="none" fill="red" fill-opacity="0.3"/></g><g pointer-events="all" display="none" transform="translate(120.25, 54)"><circle cx="8" cy="8" r="4" stroke="none" fill="red" fill-opacity="0.3"/></g><g pointer-events="all" display="none" transform="translate(162, 7.75)"><circle cx="8" cy="8" r="4" stroke="none" fill="red" fill-opacity="0.3"/></g><g pointer-events="all" display="none" transform="translate(162, 23.5)"><circle cx="8" cy="8" r="4" stroke="none" fill="red" fill-opacity="0.3"/></g><g pointer-events="all" display="none" transform="translate(162, 39.25)"><circle cx="8" cy="8" r="4" stroke="none" fill="red" fill-opacity="0.3"/></g><g pointer-events="all" display="none" transform="translate(34.75, -7)"><circle cx="8" cy="8" r="4" stroke="none" fill="red" fill-opacity="0.3"/></g><g pointer-events="all" display="none" transform="translate(77.5, -7)"><circle cx="8" cy="8" r="4" stroke="none" fill="red" fill-opacity="0.3"/></g><g pointer-events="all" display="none" transform="translate(120.25, -7)"><circle cx="8" cy="8" r="4" stroke="none" fill="red" fill-opacity="0.3"/></g><g pointer-events="all" display="none" transform="translate(77.5, 23.5)"><circle cx="8" cy="8" r="4" stroke="none" fill="red" fill-opacity="0.3"/></g></g></g></g></g><g class="edge"/></g><g class="controls"><g class="dockers"/><g class="magnets" transform="translate(40, 40)"><g pointer-events="all" display="none" transform="translate(307.5, 67)"><circle cx="8" cy="8" r="4" stroke="none" fill="red" fill-opacity="0.3"/></g></g></g></g></g><g class="edge"><g id="_DB53E0B7-32BB-4AEE-975A-3219C393159E" bpmn2nodeid="_3D1B9CA7-EF31-4108-ADF7-FFB3DB822EE5"><g class="stencils"><g class="me"><g pointer-events="painted" bpmn2nodeid="_D22EE8E6-B28D-4326-8010-41C9439D7F72"><path id="_DB53E0B7-32BB-4AEE-975A-3219C393159E_1" d="M100.09374754181073 114.96653271055031L224.93750245818927 114.68971728944969 " stroke="#000000" fill="none" stroke-width="2" stroke-linecap="round" stroke-linejoin="round" marker-start="url(#_DB53E0B7-32BB-4AEE-975A-3219C393159Estart)" marker-end="url(#_DB53E0B7-32BB-4AEE-975A-3219C393159Eend)"/></g><text id="_DB53E0B7-32BB-4AEE-975A-3219C393159Etext_name" font-size="12" x="114.09374754181073" y="100.96653271055031" oryx:edgePosition="startTop" stroke-width="0pt" letter-spacing="-0.01px" fill="#000000" text-anchor="start" transform="rotate(359.8729585684765 100.09374754181073 114.96653271055031)" visibility="inherit" oryx:fontSize="12"/></g><g class="children" style="overflow:hidden"/><g class="edge"/></g><g class="controls"><g class="dockers"/><g class="magnets"/></g></g><g id="_2C4ED552-902E-49BB-A5C4-A557F5E8EDDF" bpmn2nodeid="_2D3A4607-E2A4-46DD-B333-99D0AD8714CA"><g class="stencils"><g class="me"><g pointer-events="painted" bpmn2nodeid="_A685D5BC-93B1-49F7-B263-153D94CC75F8"><path id="_2C4ED552-902E-49BB-A5C4-A557F5E8EDDF_1" d="M396.33984229891496 114.35376517495926L589.242188951085 114.02514107504074 " stroke="#000000" fill="none" stroke-width="2" stroke-linecap="round" stroke-linejoin="round" marker-start="url(#_2C4ED552-902E-49BB-A5C4-A557F5E8EDDFstart)" marker-end="url(#_2C4ED552-902E-49BB-A5C4-A557F5E8EDDFend)"/></g><text id="_2C4ED552-902E-49BB-A5C4-A557F5E8EDDFtext_name" font-size="12" x="410.33984229891496" y="100.35376517495926" oryx:edgePosition="startTop" stroke-width="0pt" letter-spacing="-0.01px" fill="#000000" text-anchor="start" transform="rotate(359.90239229286937 396.33984229891496 114.35376517495926)" visibility="inherit" oryx:fontSize="12"/></g><g class="children" style="overflow:hidden"/><g class="edge"/></g><g class="controls"><g class="dockers"/><g class="magnets"/></g></g></g><text id="_10FE34F3-19EA-47B7-B115-690F31D4CC9D" style="stroke-width:1;fill:rgb(177,194,214);font-family:arial;font-weight:bold" font-size="12" onclick="ORYX.Plugins.CanvasTitle.openTextualAnalysis()" onmouseover="ORYX.Plugins.CanvasTitle.addToolTip('_10FE34F3-19EA-47B7-B115-690F31D4CC9D')" transform="translate(10, 20)">documentos-tramites v.1.0 (proceso.documentos-tramites)</text></g></g></svg>