<svg xmlns="http://www.w3.org/2000/svg" xmlns:oryx="http://oryx-editor.org" id="_1A61C5C0-E748-4E13-8934-9AE4E339E3D1" width="843.875" height="423" xmlns:xlink="http://www.w3.org/1999/xlink" xmlns:svg="http://www.w3.org/2000/svg"><defs><marker id="_969DD38F-2503-4AAA-8CBA-B2D260C0CF7Bstart" refX="1" refY="5" markerUnits="userSpaceOnUse" markerWidth="17" markerHeight="11" orient="auto" fill="#000000" stroke="#000000"> 	  		<path id="_969DD38F-2503-4AAA-8CBA-B2D260C0CF7Bconditional" d="M 0 5 L 8 0 L 16 5 L 8 10 L 0 5" fill="white" stroke="#000000" stroke-width="1" display="none"/> 			<path id="_969DD38F-2503-4AAA-8CBA-B2D260C0CF7Bdefault" d="M 5 0 L 11 10" fill="white" stroke="#000000" stroke-width="1" display="none"/> 	  	</marker><marker id="_969DD38F-2503-4AAA-8CBA-B2D260C0CF7Bend" refX="15" refY="6" markerUnits="userSpaceOnUse" markerWidth="15" markerHeight="12" orient="auto" fill="#000000" stroke="#000000"> 	  		<path id="_969DD38F-2503-4AAA-8CBA-B2D260C0CF7Bframe2" d="M 0 1 L 15 6 L 0 11z" fill="#000000" stroke="#000000" stroke-linejoin="round" stroke-width="2"/> 	  	</marker><marker id="_A393848A-9443-43C1-A4DB-701E02AAF9EAstart" refX="1" refY="5" markerUnits="userSpaceOnUse" markerWidth="17" markerHeight="11" orient="auto" fill="#000000" stroke="#000000"> 	  		<path id="_A393848A-9443-43C1-A4DB-701E02AAF9EAconditional" d="M 0 5 L 8 0 L 16 5 L 8 10 L 0 5" fill="white" stroke="#000000" stroke-width="1" display="none"/> 			<path id="_A393848A-9443-43C1-A4DB-701E02AAF9EAdefault" d="M 5 0 L 11 10" fill="white" stroke="#000000" stroke-width="1" display="none"/> 	  	</marker><marker id="_A393848A-9443-43C1-A4DB-701E02AAF9EAend" refX="15" refY="6" markerUnits="userSpaceOnUse" markerWidth="15" markerHeight="12" orient="auto" fill="#000000" stroke="#000000"> 	  		<path id="_A393848A-9443-43C1-A4DB-701E02AAF9EAframe2" d="M 0 1 L 15 6 L 0 11z" fill="#000000" stroke="#000000" stroke-linejoin="round" stroke-width="2"/> 	  	</marker><marker id="_381F091A-14D2-424A-A8F6-F7FB449E62D4start" refX="1" refY="5" markerUnits="userSpaceOnUse" markerWidth="17" markerHeight="11" orient="auto" fill="#000000" stroke="#000000"> 	  		<path id="_381F091A-14D2-424A-A8F6-F7FB449E62D4conditional" d="M 0 5 L 8 0 L 16 5 L 8 10 L 0 5" fill="white" stroke="#000000" stroke-width="1" display="none"/> 			<path id="_381F091A-14D2-424A-A8F6-F7FB449E62D4default" d="M 5 0 L 11 10" fill="white" stroke="#000000" stroke-width="1" display="none"/> 	  	</marker><marker id="_381F091A-14D2-424A-A8F6-F7FB449E62D4end" refX="15" refY="6" markerUnits="userSpaceOnUse" markerWidth="15" markerHeight="12" orient="auto" fill="#000000" stroke="#000000"> 	  		<path id="_381F091A-14D2-424A-A8F6-F7FB449E62D4frame2" d="M 0 1 L 15 6 L 0 11z" fill="#000000" stroke="#000000" stroke-linejoin="round" stroke-width="2"/> 	  	</marker><marker id="_4FB0ECBC-B03B-4E48-B86D-AD5BBA8F46C3start" refX="1" refY="5" markerUnits="userSpaceOnUse" markerWidth="17" markerHeight="11" orient="auto" fill="#000000" stroke="#000000"> 	  		<path id="_4FB0ECBC-B03B-4E48-B86D-AD5BBA8F46C3conditional" d="M 0 5 L 8 0 L 16 5 L 8 10 L 0 5" fill="white" stroke="#000000" stroke-width="1" display="none"/> 			<path id="_4FB0ECBC-B03B-4E48-B86D-AD5BBA8F46C3default" d="M 5 0 L 11 10" fill="white" stroke="#000000" stroke-width="1" display="none"/> 	  	</marker><marker id="_4FB0ECBC-B03B-4E48-B86D-AD5BBA8F46C3end" refX="15" refY="6" markerUnits="userSpaceOnUse" markerWidth="15" markerHeight="12" orient="auto" fill="#000000" stroke="#000000"> 	  		<path id="_4FB0ECBC-B03B-4E48-B86D-AD5BBA8F46C3frame2" d="M 0 1 L 15 6 L 0 11z" fill="#000000" stroke="#000000" stroke-linejoin="round" stroke-width="2"/> 	  	</marker><marker id="_BCC1B6BC-E056-4D47-9ECE-B8DA253719E8start" refX="1" refY="5" markerUnits="userSpaceOnUse" markerWidth="17" markerHeight="11" orient="auto" fill="#000000" stroke="#000000"> 	  		<path id="_BCC1B6BC-E056-4D47-9ECE-B8DA253719E8conditional" d="M 0 5 L 8 0 L 16 5 L 8 10 L 0 5" fill="white" stroke="#000000" stroke-width="1" display="none"/> 			<path id="_BCC1B6BC-E056-4D47-9ECE-B8DA253719E8default" d="M 5 0 L 11 10" fill="white" stroke="#000000" stroke-width="1" display="none"/> 	  	</marker><marker id="_BCC1B6BC-E056-4D47-9ECE-B8DA253719E8end" refX="15" refY="6" markerUnits="userSpaceOnUse" markerWidth="15" markerHeight="12" orient="auto" fill="#000000" stroke="#000000"> 	  		<path id="_BCC1B6BC-E056-4D47-9ECE-B8DA253719E8frame2" d="M 0 1 L 15 6 L 0 11z" fill="#000000" stroke="#000000" stroke-linejoin="round" stroke-width="2"/> 	  	</marker></defs><g stroke="none" font-family="Verdana, sans-serif" font-size-adjust="none" font-style="normal" font-variant="normal" font-weight="normal" line-heigth="normal" font-size="12"><g class="stencils" transform="translate(17.875, 17)"><g class="me"/><g class="children"><g id="_A7558584-DBDB-4EB5-A6BE-AF954DB55509" bpmn2nodeid="_62A89253-A259-49F0-AC09-5C9091DB87CA"><g class="stencils" transform="translate(10, 40)"><g class="me"><g pointer-events="painted" id="_A7558584-DBDB-4EB5-A6BE-AF954DB55509">         <defs id="_A7558584-DBDB-4EB5-A6BE-AF954DB55509__A7558584-DBDB-4EB5-A6BE-AF954DB55509_3"> 		<radialGradient id="_A7558584-DBDB-4EB5-A6BE-AF954DB55509background" cx="0%" cy="10%" r="100%" fx="20%" fy="10%"> 			<stop offset="0%" stop-color="#ffffff" stop-opacity="1" id="_A7558584-DBDB-4EB5-A6BE-AF954DB55509__A7558584-DBDB-4EB5-A6BE-AF954DB55509_4"/> 			<stop id="_A7558584-DBDB-4EB5-A6BE-AF954DB55509fill_el" offset="100%" stop-color="#ffffff" stop-opacity="1"/> 		</radialGradient> 	</defs> 	   	 	<rect id="_A7558584-DBDB-4EB5-A6BE-AF954DB55509border" oryx:resize="vertical horizontal" x="0" y="0" width="791" height="150" stroke="#000000" stroke-width="1" fill="url(#_A7558584-DBDB-4EB5-A6BE-AF954DB55509background) white"/> 	 	 	 	<path id="_A7558584-DBDB-4EB5-A6BE-AF954DB55509frame2" style="fill:none;stroke-width:1" d=" M0 0  L0 150 " oryx:anchors="left top bottom" stroke="#000000"/> 	 	undefined 	     <text x="50" y="75" oryx:rotate="270" font-size="12" id="_A7558584-DBDB-4EB5-A6BE-AF954DB55509text_name" oryx:align="middle center" oryx:anchors="left" oryx:fittoelem="frame" stroke="black" stroke-width="0pt" letter-spacing="-0.01px" fill="#000000" text-anchor="middle" transform="rotate(270 50 75)" visibility="inherit" oryx:fontSize="12"><tspan x="50" y="75" dy="5">Proyector</tspan></text>   </g></g><g class="children" style="overflow:hidden"><g id="_BF7AF2C7-2071-43A8-B93C-DF2635D71FE1" bpmn2nodeid="_5527A555-9D48-44F0-839A-38A657219A80"><g class="stencils" transform="translate(70, 48)"><g class="me"><g pointer-events="fill" id="_BF7AF2C7-2071-43A8-B93C-DF2635D71FE1">        <defs id="_BF7AF2C7-2071-43A8-B93C-DF2635D71FE1__BF7AF2C7-2071-43A8-B93C-DF2635D71FE1_5"> 		<radialGradient id="_BF7AF2C7-2071-43A8-B93C-DF2635D71FE1background" cx="10%" cy="10%" r="100%" fx="10%" fy="10%"> 			<stop offset="0%" stop-color="#ffffff" stop-opacity="1" id="_BF7AF2C7-2071-43A8-B93C-DF2635D71FE1__BF7AF2C7-2071-43A8-B93C-DF2635D71FE1_6"/> 			<stop id="_BF7AF2C7-2071-43A8-B93C-DF2635D71FE1fill_el" offset="100%" stop-color="#9acd32" stop-opacity="1"/> 		</radialGradient> 	</defs> 	     <circle id="_BF7AF2C7-2071-43A8-B93C-DF2635D71FE1bg_frame" cx="15" cy="15" r="15" stroke="#000000" fill="url(#_BF7AF2C7-2071-43A8-B93C-DF2635D71FE1background) white" stroke-width="1" style="stroke-dasharray: 5.5, 3"/>      <circle id="_BF7AF2C7-2071-43A8-B93C-DF2635D71FE1frame" cx="15" cy="15" r="15" stroke="#000000" fill="none" stroke-width="1" display="inherit"/>  	<text font-size="11" id="_BF7AF2C7-2071-43A8-B93C-DF2635D71FE1text_name" x="15" y="32" oryx:align="top center" stroke="black" stroke-width="0pt" letter-spacing="-0.01px" fill="#000000" text-anchor="middle" transform="rotate(0 15 32)" visibility="inherit" oryx:fontSize="11"><tspan x="15" y="32" dy="11">Iniciar</tspan></text>   </g></g><g class="children" style="overflow:hidden"/><g class="edge"/></g><g class="controls"><g class="dockers"/><g class="magnets" transform="translate(70, 48)"><g pointer-events="all" display="none" transform="translate(7, 7)"><circle cx="8" cy="8" r="4" stroke="none" fill="red" fill-opacity="0.3"/></g></g></g></g><g id="_34063621-07C7-4C9F-B4E4-6C5946B8CB07" bpmn2nodeid="_F39F2A30-EA96-43F6-AE10-6B9A8C51371F"><g class="stencils" transform="translate(255, 46)"><g class="me"><g id="_34063621-07C7-4C9F-B4E4-6C5946B8CB07">      <defs id="_34063621-07C7-4C9F-B4E4-6C5946B8CB07__34063621-07C7-4C9F-B4E4-6C5946B8CB07_4"> 		<radialGradient id="_34063621-07C7-4C9F-B4E4-6C5946B8CB07background" cx="10%" cy="10%" r="100%" fx="10%" fy="10%"> 			<stop offset="0%" stop-color="#ffffff" stop-opacity="1" id="_34063621-07C7-4C9F-B4E4-6C5946B8CB07__34063621-07C7-4C9F-B4E4-6C5946B8CB07_5"/> 			<stop id="_34063621-07C7-4C9F-B4E4-6C5946B8CB07fill_el" offset="100%" stop-color="#f0e68c" stop-opacity="1"/> 		</radialGradient> 	</defs> 	     <path d=" M0 20.5  L20.5 0  L40 20.5  L20.5 40  z" id="_34063621-07C7-4C9F-B4E4-6C5946B8CB07bg_frame" fill="url(#_34063621-07C7-4C9F-B4E4-6C5946B8CB07background) white" style="stroke-width:1" stroke="#a67f00"/>     <circle id="_34063621-07C7-4C9F-B4E4-6C5946B8CB07frame" cx="20.5" cy="20.5" r="9.75" style="fill:none;stroke-width:2.5" stroke="#a67f00"/>      	<text id="_34063621-07C7-4C9F-B4E4-6C5946B8CB07text_name" x="30.5" y="30.5" oryx:align="left top" stroke-width="0pt" letter-spacing="-0.01px" fill="#000000" text-anchor="start" transform="rotate(0 30.5 30.5)" visibility="inherit" oryx:fontSize="12"/> 	   </g></g><g class="children" style="overflow:hidden"/><g class="edge"/></g><g class="controls"><g class="dockers"/><g class="magnets" transform="translate(255, 46)"><g pointer-events="all" display="none" transform="translate(12.5, 12.5)"><circle cx="8" cy="8" r="4" stroke="none" fill="red" fill-opacity="0.3"/></g></g></g></g><g id="_A4EC72F5-A9D3-458F-908D-5DAAF4B54FB3" bpmn2nodeid="_8A996FB9-F905-4C22-90E4-7418CE790566"><g class="stencils" transform="translate(360, 33)"><g class="me"><g pointer-events="fill" oryx:minimumSize="50 40" id="_A4EC72F5-A9D3-458F-908D-5DAAF4B54FB3">   	<defs id="_A4EC72F5-A9D3-458F-908D-5DAAF4B54FB3__A4EC72F5-A9D3-458F-908D-5DAAF4B54FB3_17"> 		<radialGradient id="_A4EC72F5-A9D3-458F-908D-5DAAF4B54FB3background" cx="10%" cy="10%" r="100%" fx="10%" fy="10%"> 			<stop offset="0%" stop-color="#ffffff" stop-opacity="1" id="_A4EC72F5-A9D3-458F-908D-5DAAF4B54FB3__A4EC72F5-A9D3-458F-908D-5DAAF4B54FB3_18"/> 			<stop id="_A4EC72F5-A9D3-458F-908D-5DAAF4B54FB3fill_el" offset="100%" stop-color="#fafad2" stop-opacity="1"/> 		</radialGradient> 		<radialGradient id="_A4EC72F5-A9D3-458F-908D-5DAAF4B54FB3borderbackground" cx="10%" cy="10%" r="100%" fx="10%" fy="10%"> 			<stop offset="0%" stop-color="#ffffff" stop-opacity="1" id="_A4EC72F5-A9D3-458F-908D-5DAAF4B54FB3__A4EC72F5-A9D3-458F-908D-5DAAF4B54FB3_19"/> 			<stop id="_A4EC72F5-A9D3-458F-908D-5DAAF4B54FB3fill_border" offset="100%" stop-color="#000000" stop-opacity="1" stroke="#000000"/> 		</radialGradient> 	</defs> 	 	<rect id="_A4EC72F5-A9D3-458F-908D-5DAAF4B54FB3text_frame" oryx:anchors="bottom top right left" x="1" y="1" width="164" height="65" rx="10" ry="10" stroke="none" stroke-width="0" fill="none"/> 	<rect id="_A4EC72F5-A9D3-458F-908D-5DAAF4B54FB3bg_frame" oryx:resize="vertical horizontal" x="0" y="0" width="170" height="66" rx="10" ry="10" stroke="#000000" stroke-width="1" fill="url(#_A4EC72F5-A9D3-458F-908D-5DAAF4B54FB3background) #ffffcc"/> 		<text font-size="12" id="_A4EC72F5-A9D3-458F-908D-5DAAF4B54FB3text_name" x="85" y="33" oryx:align="middle center" oryx:fittoelem="text_frame" stroke="black" text-anchor="middle" stroke-width="0pt" letter-spacing="-0.01px" fill="#000000" transform="rotate(0 85 33)" visibility="inherit" oryx:fontSize="12"><tspan x="85" y="33" dy="-1">Gestión Producción </tspan><tspan x="85" y="33" dy="11">Múltiples Documentos</tspan></text>     <g id="_A4EC72F5-A9D3-458F-908D-5DAAF4B54FB3manualTask" transform="scale(0.7,0.7) translate(8,8)" display="none">     	<path oryx:anchors="top left" id="_A4EC72F5-A9D3-458F-908D-5DAAF4B54FB3frame" style="opacity:1;fill:none;fill-opacity:1;stroke-width:1" d="M0.5,3.751l4.083-3.25c0,0,11.166,0.083,12.083,0.083s-2.417,2.917-1.5,2.917     s11.667,0,12.584,0c1.166,1.708-0.168,3.167-0.834,3.667s0.875,1.917-1,4.417c-0.75,0.25,0.75,1.875-1.333,3.333     c-1.167,0.583,0.583,1.542-1.25,2.833c-1.167,0-20.833,0.083-20.833,0.083l-2-1.333V3.751z" stroke="#000000"/> 		<path id="_A4EC72F5-A9D3-458F-908D-5DAAF4B54FB3frame2" oryx:anchors="top left" style="opacity:1;fill:none;stroke-width:2" d="M 13.5 7 L 27 7" stroke="#000000"/> 		<path id="_A4EC72F5-A9D3-458F-908D-5DAAF4B54FB3frame3" oryx:anchors="top left" style="opacity:1;fill:none;stroke-width:2" d="M 13.5 11 L 26 11" stroke="#000000"/> 		<path id="_A4EC72F5-A9D3-458F-908D-5DAAF4B54FB3frame4" oryx:anchors="top left" style="opacity:1;fill:none;stroke-width:1.5" d="M 14 14.5 L 25 14.5" stroke="#000000"/> 		<path id="_A4EC72F5-A9D3-458F-908D-5DAAF4B54FB3frame5" oryx:anchors="top left" style="opacity:1;fill:none;stroke-width:1.5" d="M 8.2 3.1 L 15 3.1" stroke="#000000"/> 	</g> 	 	<g id="_A4EC72F5-A9D3-458F-908D-5DAAF4B54FB3businessRuleTask" transform="scale(0.7,0.7) translate(8,8)" display="none"> 		<rect id="_A4EC72F5-A9D3-458F-908D-5DAAF4B54FB3frame6" oryx:anchors="top left" x="0" y="0" width="22" height="4" style="opacity:1;fill:#B3B1B3;fill-opacity:1;" stroke="#000000"/> 		<rect id="_A4EC72F5-A9D3-458F-908D-5DAAF4B54FB3frame7" oryx:anchors="top left" x="0" y="4" style="opacity:1;fill:none;" width="22" height="12" stroke="#000000"/> 		<path id="_A4EC72F5-A9D3-458F-908D-5DAAF4B54FB3frame8" oryx:anchors="top left" style="opacity:1;fill:none;" d="M 0 10 L 22 10" stroke="#000000"/> 		<path id="_A4EC72F5-A9D3-458F-908D-5DAAF4B54FB3frame9" oryx:anchors="top left" style="opacity:1; fill:none;" d="M 7 4 L 7 16" stroke="#000000"/> 	</g> 	 	<g id="_A4EC72F5-A9D3-458F-908D-5DAAF4B54FB3scriptTask" transform="scale(0.7,0.7) translate(8,8)" display="none"> 		<path oryx:anchors="top left" id="_A4EC72F5-A9D3-458F-908D-5DAAF4B54FB3frame10" style="opacity:1;fill:none;" stroke="#000000" d="M6.402,0.5h14.5c0,0-5.833,2.833-5.833,5.583s4.417,6,4.417,9.167    s-4.167,5.083-4.167,5.083H0.235c0,0,5-2.667,5-5s-4.583-6.75-4.583-9.25S6.402,0.5,6.402,0.5z"/> 		<path oryx:anchors="top left" id="_A4EC72F5-A9D3-458F-908D-5DAAF4B54FB3frame11" style="opacity:1;fill:none;stroke-width:1.5" d="M 3.5 4.5 L 13.5 4.5" stroke="#000000"/> 		<path oryx:anchors="top left" id="_A4EC72F5-A9D3-458F-908D-5DAAF4B54FB3frame12" style="opacity:1;fill:none;stroke-width:1.5" d="M 3.8 8.5 L 13.8 8.5" stroke="#000000"/> 		<path oryx:anchors="top left" id="_A4EC72F5-A9D3-458F-908D-5DAAF4B54FB3frame13" style="opacity:1;fill:none;stroke-width:1.5" d="M 6.3 12.5 L 16.3 12.5" stroke="#000000"/> 		<path oryx:anchors="top left" id="_A4EC72F5-A9D3-458F-908D-5DAAF4B54FB3frame14" style="opacity:1;fill:none;stroke-width:1.5" d="M 6.5 16.5 L 16.5 16.5" stroke="#000000"/> 	</g> 	 	<g id="_A4EC72F5-A9D3-458F-908D-5DAAF4B54FB3userTask" transform="scale(0.7,0.7) translate(8,8)" display="inherit"> 		<path id="_A4EC72F5-A9D3-458F-908D-5DAAF4B54FB3frame15" oryx:anchors="top left" style="opacity:1;fill:#F4F6F7" stroke="#000000" d="M0.585,24.167h24.083v-7.833c0,0-2.333-3.917-7.083-5.167h-9.25    c-4.417,1.333-7.833,5.75-7.833,5.75L0.585,24.167z"/> 		<path id="_A4EC72F5-A9D3-458F-908D-5DAAF4B54FB3frame16" oryx:anchors="top left" style="opacity:1;fill:none" d="M 6 20 L 6 24" stroke="#000000"/> 		<path id="_A4EC72F5-A9D3-458F-908D-5DAAF4B54FB3frame17" oryx:anchors="top left" style="opacity:1;fill:none" d="M 20 20 L 20 24" stroke="#000000"/> 		<circle id="_A4EC72F5-A9D3-458F-908D-5DAAF4B54FB3frame18" oryx:anchors="top left" fill="black" cx="13.002" cy="5.916" r="5.417" stroke="#000000"/> 		<path id="_A4EC72F5-A9D3-458F-908D-5DAAF4B54FB3frame19" oryx:anchors="top left" style="opacity:1;fill:#F0EFF0;" stroke="#000000" d="M8.043,7.083c0,0,2.814-2.426,5.376-1.807s4.624-0.693,4.624-0.693    c0.25,1.688,0.042,3.75-1.458,5.584c0,0,1.083,0.75,1.083,1.5s0.125,1.875-1,3s-5.5,1.25-6.75,0S8.668,12.834,8.668,12    s0.583-1.25,1.25-1.917C8.835,9.5,7.419,7.708,8.043,7.083z"/> 	</g> 	 	<g id="_A4EC72F5-A9D3-458F-908D-5DAAF4B54FB3serviceTask" transform="scale(0.7,0.7) translate(8,8)" display="none"> 		<polygon oryx:anchors="top left" id="_A4EC72F5-A9D3-458F-908D-5DAAF4B54FB3frame20" style="opacity:1;fill:#ffffff" stroke="#000000" points="15.392,5.064 17.954,2.502 20.347,4.895 17.786,7.455     18.729,9.732 22.353,9.732 22.353,13.115 18.731,13.115 17.788,15.392 20.351,17.955 17.958,20.347 15.397,17.786 13.12,18.729     13.12,22.353 9.737,22.353 9.737,18.731 7.46,17.788 4.897,20.35 2.506,17.958 5.066,15.397 4.124,13.12 0.5,13.12 0.5,9.737     4.121,9.737 5.065,7.461 2.503,4.898 4.895,2.506 7.455,5.066 9.732,4.125 9.732,0.5 13.116,0.5 13.116,4.121 "/> 		<circle oryx:anchors="top left" id="_A4EC72F5-A9D3-458F-908D-5DAAF4B54FB3frame21" style="opacity:1;fill:none" stroke="#000000" cx="11.427" cy="11.426" r="3.714"/> 		<polygon oryx:anchors="top left" id="_A4EC72F5-A9D3-458F-908D-5DAAF4B54FB3frame22" style="opacity:1;fill:#ffffff" stroke="#000000" points="21.392,11.064 23.954,8.502 26.347,10.895 23.786,13.455     24.729,15.732 28.353,15.732 28.353,19.115 24.731,19.115 23.788,21.392 26.351,23.955 23.958,26.347 21.397,23.786 19.12,24.729     19.12,28.353 15.737,28.353 15.737,24.731 13.46,23.788 10.897,26.35 8.506,23.958 11.066,21.397 10.124,19.12 6.5,19.12     6.5,15.737 10.121,15.737 11.065,13.461 8.503,10.898 10.895,8.506 13.455,11.066 15.732,10.125 15.732,6.5 19.116,6.5     19.116,10.121 "/> 		<circle oryx:anchors="top left" id="_A4EC72F5-A9D3-458F-908D-5DAAF4B54FB3frame23" style="opacity:1;fill:none;" stroke="#000000" cx="17.427" cy="17.426" r="3.714"/> 	</g> 	 	<g id="_A4EC72F5-A9D3-458F-908D-5DAAF4B54FB3sendTask" display="none"> 		<path id="_A4EC72F5-A9D3-458F-908D-5DAAF4B54FB3stframe24" oryx:anchors="left top" stroke="#FFFFFF" fill="black" stroke-width="1" d="M8,11 L8,21 L24,21 L24,11 L16,17z"/> 		<path id="_A4EC72F5-A9D3-458F-908D-5DAAF4B54FB3stframe25" oryx:anchors="left top" stroke="#FFFFFF" fill="black" stroke-width="1" d="M7,10 L16,17 L25 10z"/> 	</g> 	 	<g id="_A4EC72F5-A9D3-458F-908D-5DAAF4B54FB3receiveTask" display="none"> 		<path id="_A4EC72F5-A9D3-458F-908D-5DAAF4B54FB3frame26" oryx:anchors="left top" stroke="#000000" fill="none" stroke-width="1" d="M8,11 L8,21 L24,21 L24,11z M8,11 L16,17 L24,11"/> 	</g> 	 	<g id="_A4EC72F5-A9D3-458F-908D-5DAAF4B54FB3none" display="inherit"/>  	<g id="_A4EC72F5-A9D3-458F-908D-5DAAF4B54FB3sequential" display="none">         <path oryx:anchors="bottom" fill="none" stroke="#000000" stroke-width="2" d=" M81.7 62  h10  M81.7 58  h10  M81.7 54  h10 " id="_A4EC72F5-A9D3-458F-908D-5DAAF4B54FB3__A4EC72F5-A9D3-458F-908D-5DAAF4B54FB3_20"/>     </g>   </g></g><g class="children" style="overflow:hidden"/><g class="edge"/></g><g class="controls"><g class="dockers"/><g class="magnets" transform="translate(360, 33)"><g pointer-events="all" display="none" transform="translate(-7, 8.5)"><circle cx="8" cy="8" r="4" stroke="none" fill="red" fill-opacity="0.3"/></g><g pointer-events="all" display="none" transform="translate(-7, 25)"><circle cx="8" cy="8" r="4" stroke="none" fill="red" fill-opacity="0.3"/></g><g pointer-events="all" display="none" transform="translate(-7, 41.5)"><circle cx="8" cy="8" r="4" stroke="none" fill="red" fill-opacity="0.3"/></g><g pointer-events="all" display="none" transform="translate(34.5, 57)"><circle cx="8" cy="8" r="4" stroke="none" fill="red" fill-opacity="0.3"/></g><g pointer-events="all" display="none" transform="translate(77, 57)"><circle cx="8" cy="8" r="4" stroke="none" fill="red" fill-opacity="0.3"/></g><g pointer-events="all" display="none" transform="translate(119.5, 57)"><circle cx="8" cy="8" r="4" stroke="none" fill="red" fill-opacity="0.3"/></g><g pointer-events="all" display="none" transform="translate(161, 8.5)"><circle cx="8" cy="8" r="4" stroke="none" fill="red" fill-opacity="0.3"/></g><g pointer-events="all" display="none" transform="translate(161, 25)"><circle cx="8" cy="8" r="4" stroke="none" fill="red" fill-opacity="0.3"/></g><g pointer-events="all" display="none" transform="translate(161, 41.5)"><circle cx="8" cy="8" r="4" stroke="none" fill="red" fill-opacity="0.3"/></g><g pointer-events="all" display="none" transform="translate(34.5, -7)"><circle cx="8" cy="8" r="4" stroke="none" fill="red" fill-opacity="0.3"/></g><g pointer-events="all" display="none" transform="translate(77, -7)"><circle cx="8" cy="8" r="4" stroke="none" fill="red" fill-opacity="0.3"/></g><g pointer-events="all" display="none" transform="translate(119.5, -7)"><circle cx="8" cy="8" r="4" stroke="none" fill="red" fill-opacity="0.3"/></g><g pointer-events="all" display="none" transform="translate(77, 25)"><circle cx="8" cy="8" r="4" stroke="none" fill="red" fill-opacity="0.3"/></g></g></g></g><g id="_D2EA3C9F-175E-412A-B7A5-832B343FA739" bpmn2nodeid="_86A5CA88-0676-424E-AB3D-AFFCE0F25F3D"><g class="stencils" transform="translate(730, 48)"><g class="me"><g pointer-events="fill" id="_D2EA3C9F-175E-412A-B7A5-832B343FA739">      <defs id="_D2EA3C9F-175E-412A-B7A5-832B343FA739__D2EA3C9F-175E-412A-B7A5-832B343FA739_5"> 		<radialGradient id="_D2EA3C9F-175E-412A-B7A5-832B343FA739background" cx="10%" cy="10%" r="100%" fx="10%" fy="10%"> 			<stop offset="0%" stop-color="#ffffff" stop-opacity="1" id="_D2EA3C9F-175E-412A-B7A5-832B343FA739__D2EA3C9F-175E-412A-B7A5-832B343FA739_6"/> 			<stop id="_D2EA3C9F-175E-412A-B7A5-832B343FA739fill_el" offset="100%" stop-color="#ff6347" stop-opacity="1"/> 		</radialGradient> 	</defs> 	     <circle id="_D2EA3C9F-175E-412A-B7A5-832B343FA739bg_frame" cx="14" cy="14" r="14" stroke="#000000" fill="url(#_D2EA3C9F-175E-412A-B7A5-832B343FA739background) white" stroke-width="3"/> 	<text font-size="11" id="_D2EA3C9F-175E-412A-B7A5-832B343FA739text_name" x="14" y="30" oryx:align="top center" stroke="black" stroke-width="0pt" letter-spacing="-0.01px" fill="#000000" text-anchor="middle" transform="rotate(0 14 30)" visibility="inherit" oryx:fontSize="11"><tspan x="14" y="30" dy="11">Finalizar</tspan></text>   </g></g><g class="children" style="overflow:hidden"/><g class="edge"/></g><g class="controls"><g class="dockers"/><g class="magnets" transform="translate(730, 48)"><g pointer-events="all" display="none" transform="translate(6, 6)"><circle cx="8" cy="8" r="4" stroke="none" fill="red" fill-opacity="0.3"/></g></g></g></g></g><g class="edge"/></g><g class="controls"><g class="dockers"/><g class="magnets" transform="translate(10, 40)"><g pointer-events="all" display="none" transform="translate(387.5, 67)"><circle cx="8" cy="8" r="4" stroke="none" fill="red" fill-opacity="0.3"/></g></g></g></g><g id="_F3D912F8-5D32-40AB-8FBD-FECFF0DAB0CF" bpmn2nodeid="_017D9D9F-7E0F-4526-9577-C668621A2C39"><g class="stencils" transform="translate(10, 210)"><g class="me"><g pointer-events="painted" id="_F3D912F8-5D32-40AB-8FBD-FECFF0DAB0CF">         <defs id="_F3D912F8-5D32-40AB-8FBD-FECFF0DAB0CF__F3D912F8-5D32-40AB-8FBD-FECFF0DAB0CF_3"> 		<radialGradient id="_F3D912F8-5D32-40AB-8FBD-FECFF0DAB0CFbackground" cx="0%" cy="10%" r="100%" fx="20%" fy="10%"> 			<stop offset="0%" stop-color="#ffffff" stop-opacity="1" id="_F3D912F8-5D32-40AB-8FBD-FECFF0DAB0CF__F3D912F8-5D32-40AB-8FBD-FECFF0DAB0CF_4"/> 			<stop id="_F3D912F8-5D32-40AB-8FBD-FECFF0DAB0CFfill_el" offset="100%" stop-color="#ffffff" stop-opacity="1"/> 		</radialGradient> 	</defs> 	   	 	<rect id="_F3D912F8-5D32-40AB-8FBD-FECFF0DAB0CFborder" oryx:resize="vertical horizontal" x="0" y="0" width="791" height="171" stroke="#000000" stroke-width="1" fill="url(#_F3D912F8-5D32-40AB-8FBD-FECFF0DAB0CFbackground) white"/> 	 	 	 	<path id="_F3D912F8-5D32-40AB-8FBD-FECFF0DAB0CFframe2" style="fill:none;stroke-width:1" d=" M0 0  L0 171 " oryx:anchors="left top bottom" stroke="#000000"/> 	 	undefined 	     <text x="50" y="85.5" oryx:rotate="270" font-size="12" id="_F3D912F8-5D32-40AB-8FBD-FECFF0DAB0CFtext_name" oryx:align="middle center" oryx:anchors="left" oryx:fittoelem="frame" stroke="black" stroke-width="0pt" letter-spacing="-0.01px" fill="#000000" text-anchor="middle" transform="rotate(270 50 85.5)" visibility="inherit" oryx:fontSize="12"><tspan x="50" y="85.5" dy="5">Sistema</tspan></text>   </g></g><g class="children" style="overflow:hidden"><g id="_3C5F3826-0386-4E80-92C0-B0A1DED2FAED" bpmn2nodeid="_1CDAED6A-D71F-4CCF-B45F-97611D592F86"><g class="stencils" transform="translate(70, 65)"><g class="me"><g pointer-events="fill" id="_3C5F3826-0386-4E80-92C0-B0A1DED2FAED">      <defs id="_3C5F3826-0386-4E80-92C0-B0A1DED2FAED__3C5F3826-0386-4E80-92C0-B0A1DED2FAED_5"> 		<radialGradient id="_3C5F3826-0386-4E80-92C0-B0A1DED2FAEDbackground" cx="10%" cy="10%" r="100%" fx="10%" fy="10%"> 			<stop offset="0%" stop-color="#ffffff" stop-opacity="1" id="_3C5F3826-0386-4E80-92C0-B0A1DED2FAED__3C5F3826-0386-4E80-92C0-B0A1DED2FAED_6"/> 			<stop id="_3C5F3826-0386-4E80-92C0-B0A1DED2FAEDfill_el" offset="100%" stop-color="#9acd32" stop-opacity="1"/> 		</radialGradient> 	</defs> 	     <circle id="_3C5F3826-0386-4E80-92C0-B0A1DED2FAEDbg_frame" cx="15" cy="15" r="15" stroke="#000000" fill="url(#_3C5F3826-0386-4E80-92C0-B0A1DED2FAEDbackground) white" stroke-width="1" style="stroke-dasharray: 5.5, 3"/>      <circle id="_3C5F3826-0386-4E80-92C0-B0A1DED2FAEDframe" cx="15" cy="15" r="15" stroke="#000000" fill="none" stroke-width="1" display="inherit"/>      <path id="_3C5F3826-0386-4E80-92C0-B0A1DED2FAEDbody" d=" M7.7124971 20.247342  L22.333334 20.247342  L15.022915000000001 7.575951200000001  L7.7124971 20.247342  z" stroke="black" style="fill:none;stroke-width:1.4;stroke-miterlimit:4;stroke-dasharray:none"/> 	<text font-size="11" id="_3C5F3826-0386-4E80-92C0-B0A1DED2FAEDtext_name" x="15" y="32" oryx:align="top center" stroke="black" stroke-width="0pt" letter-spacing="-0.01px" fill="#000000" text-anchor="middle" transform="rotate(0 15 32)" visibility="inherit" oryx:fontSize="11"><tspan x="15" y="32" dy="11" id="ext-gen607">Iniciar Documentos en Trámite</tspan></text>   </g></g><g class="children" style="overflow:hidden"/><g class="edge"/></g><g class="controls"><g class="dockers"/><g class="magnets" transform="translate(70, 65)"><g pointer-events="all" display="none" transform="translate(7, 7)"><circle cx="8" cy="8" r="4" stroke="none" fill="red" fill-opacity="0.3"/></g></g></g></g><g id="_E3F5983F-DBB6-439C-AD6A-C829AEF5CE40" bpmn2nodeid="_0E5D9609-93F1-4530-A016-6CD208E5759A"><g class="stencils" transform="translate(210, 55)"><g class="me"><g pointer-events="fill" oryx:minimumSize="50 40" id="_E3F5983F-DBB6-439C-AD6A-C829AEF5CE40">   	<defs id="_E3F5983F-DBB6-439C-AD6A-C829AEF5CE40__E3F5983F-DBB6-439C-AD6A-C829AEF5CE40_17"> 		<radialGradient id="_E3F5983F-DBB6-439C-AD6A-C829AEF5CE40background" cx="10%" cy="10%" r="100%" fx="10%" fy="10%"> 			<stop offset="0%" stop-color="#ffffff" stop-opacity="1" id="_E3F5983F-DBB6-439C-AD6A-C829AEF5CE40__E3F5983F-DBB6-439C-AD6A-C829AEF5CE40_18"/> 			<stop id="_E3F5983F-DBB6-439C-AD6A-C829AEF5CE40fill_el" offset="100%" stop-color="#fafad2" stop-opacity="1"/> 		</radialGradient> 		<radialGradient id="_E3F5983F-DBB6-439C-AD6A-C829AEF5CE40borderbackground" cx="10%" cy="10%" r="100%" fx="10%" fy="10%"> 			<stop offset="0%" stop-color="#ffffff" stop-opacity="1" id="_E3F5983F-DBB6-439C-AD6A-C829AEF5CE40__E3F5983F-DBB6-439C-AD6A-C829AEF5CE40_19"/> 			<stop id="_E3F5983F-DBB6-439C-AD6A-C829AEF5CE40fill_border" offset="100%" stop-color="#000000" stop-opacity="1" stroke="#000000"/> 		</radialGradient> 	</defs> 	 	<rect id="_E3F5983F-DBB6-439C-AD6A-C829AEF5CE40text_frame" oryx:anchors="bottom top right left" x="1" y="1" width="104" height="49" rx="10" ry="10" stroke="none" stroke-width="0" fill="none"/> 	<rect id="_E3F5983F-DBB6-439C-AD6A-C829AEF5CE40bg_frame" oryx:resize="vertical horizontal" x="0" y="0" width="110.00000000000001" height="50" rx="10" ry="10" stroke="#000000" stroke-width="1" fill="url(#_E3F5983F-DBB6-439C-AD6A-C829AEF5CE40background) #ffffcc"/> 		<text font-size="12" id="_E3F5983F-DBB6-439C-AD6A-C829AEF5CE40text_name" x="55.00000000000001" y="25" oryx:align="middle center" oryx:fittoelem="text_frame" stroke="black" text-anchor="middle" stroke-width="0pt" letter-spacing="-0.01px" fill="#000000" transform="rotate(0 55.00000000000001 25)" visibility="inherit" oryx:fontSize="12"><tspan x="55.00000000000001" y="25" dy="5" id="ext-gen630">Iniciar Variables</tspan></text>     <g id="_E3F5983F-DBB6-439C-AD6A-C829AEF5CE40manualTask" transform="scale(0.7,0.7) translate(8,8)" display="none">     	<path oryx:anchors="top left" id="_E3F5983F-DBB6-439C-AD6A-C829AEF5CE40frame" style="opacity:1;fill:none;fill-opacity:1;stroke-width:1" d="M0.5,3.751l4.083-3.25c0,0,11.166,0.083,12.083,0.083s-2.417,2.917-1.5,2.917     s11.667,0,12.584,0c1.166,1.708-0.168,3.167-0.834,3.667s0.875,1.917-1,4.417c-0.75,0.25,0.75,1.875-1.333,3.333     c-1.167,0.583,0.583,1.542-1.25,2.833c-1.167,0-20.833,0.083-20.833,0.083l-2-1.333V3.751z" stroke="#000000"/> 		<path id="_E3F5983F-DBB6-439C-AD6A-C829AEF5CE40frame2" oryx:anchors="top left" style="opacity:1;fill:none;stroke-width:2" d="M 13.5 7 L 27 7" stroke="#000000"/> 		<path id="_E3F5983F-DBB6-439C-AD6A-C829AEF5CE40frame3" oryx:anchors="top left" style="opacity:1;fill:none;stroke-width:2" d="M 13.5 11 L 26 11" stroke="#000000"/> 		<path id="_E3F5983F-DBB6-439C-AD6A-C829AEF5CE40frame4" oryx:anchors="top left" style="opacity:1;fill:none;stroke-width:1.5" d="M 14 14.5 L 25 14.5" stroke="#000000"/> 		<path id="_E3F5983F-DBB6-439C-AD6A-C829AEF5CE40frame5" oryx:anchors="top left" style="opacity:1;fill:none;stroke-width:1.5" d="M 8.2 3.1 L 15 3.1" stroke="#000000"/> 	</g> 	 	<g id="_E3F5983F-DBB6-439C-AD6A-C829AEF5CE40businessRuleTask" transform="scale(0.7,0.7) translate(8,8)" display="none"> 		<rect id="_E3F5983F-DBB6-439C-AD6A-C829AEF5CE40frame6" oryx:anchors="top left" x="0" y="0" width="22" height="4" style="opacity:1;fill:#B3B1B3;fill-opacity:1;" stroke="#000000"/> 		<rect id="_E3F5983F-DBB6-439C-AD6A-C829AEF5CE40frame7" oryx:anchors="top left" x="0" y="4" style="opacity:1;fill:none;" width="22" height="12" stroke="#000000"/> 		<path id="_E3F5983F-DBB6-439C-AD6A-C829AEF5CE40frame8" oryx:anchors="top left" style="opacity:1;fill:none;" d="M 0 10 L 22 10" stroke="#000000"/> 		<path id="_E3F5983F-DBB6-439C-AD6A-C829AEF5CE40frame9" oryx:anchors="top left" style="opacity:1; fill:none;" d="M 7 4 L 7 16" stroke="#000000"/> 	</g> 	 	<g id="_E3F5983F-DBB6-439C-AD6A-C829AEF5CE40scriptTask" transform="scale(0.7,0.7) translate(8,8)" display="inherit"> 		<path oryx:anchors="top left" id="_E3F5983F-DBB6-439C-AD6A-C829AEF5CE40frame10" style="opacity:1;fill:none;" stroke="#000000" d="M6.402,0.5h14.5c0,0-5.833,2.833-5.833,5.583s4.417,6,4.417,9.167    s-4.167,5.083-4.167,5.083H0.235c0,0,5-2.667,5-5s-4.583-6.75-4.583-9.25S6.402,0.5,6.402,0.5z"/> 		<path oryx:anchors="top left" id="_E3F5983F-DBB6-439C-AD6A-C829AEF5CE40frame11" style="opacity:1;fill:none;stroke-width:1.5" d="M 3.5 4.5 L 13.5 4.5" stroke="#000000"/> 		<path oryx:anchors="top left" id="_E3F5983F-DBB6-439C-AD6A-C829AEF5CE40frame12" style="opacity:1;fill:none;stroke-width:1.5" d="M 3.8 8.5 L 13.8 8.5" stroke="#000000"/> 		<path oryx:anchors="top left" id="_E3F5983F-DBB6-439C-AD6A-C829AEF5CE40frame13" style="opacity:1;fill:none;stroke-width:1.5" d="M 6.3 12.5 L 16.3 12.5" stroke="#000000"/> 		<path oryx:anchors="top left" id="_E3F5983F-DBB6-439C-AD6A-C829AEF5CE40frame14" style="opacity:1;fill:none;stroke-width:1.5" d="M 6.5 16.5 L 16.5 16.5" stroke="#000000"/> 	</g> 	 	<g id="_E3F5983F-DBB6-439C-AD6A-C829AEF5CE40userTask" transform="scale(0.7,0.7) translate(8,8)" display="none"> 		<path id="_E3F5983F-DBB6-439C-AD6A-C829AEF5CE40frame15" oryx:anchors="top left" style="opacity:1;fill:#F4F6F7" stroke="#000000" d="M0.585,24.167h24.083v-7.833c0,0-2.333-3.917-7.083-5.167h-9.25    c-4.417,1.333-7.833,5.75-7.833,5.75L0.585,24.167z"/> 		<path id="_E3F5983F-DBB6-439C-AD6A-C829AEF5CE40frame16" oryx:anchors="top left" style="opacity:1;fill:none" d="M 6 20 L 6 24" stroke="#000000"/> 		<path id="_E3F5983F-DBB6-439C-AD6A-C829AEF5CE40frame17" oryx:anchors="top left" style="opacity:1;fill:none" d="M 20 20 L 20 24" stroke="#000000"/> 		<circle id="_E3F5983F-DBB6-439C-AD6A-C829AEF5CE40frame18" oryx:anchors="top left" fill="black" cx="13.002" cy="5.916" r="5.417" stroke="#000000"/> 		<path id="_E3F5983F-DBB6-439C-AD6A-C829AEF5CE40frame19" oryx:anchors="top left" style="opacity:1;fill:#F0EFF0;" stroke="#000000" d="M8.043,7.083c0,0,2.814-2.426,5.376-1.807s4.624-0.693,4.624-0.693    c0.25,1.688,0.042,3.75-1.458,5.584c0,0,1.083,0.75,1.083,1.5s0.125,1.875-1,3s-5.5,1.25-6.75,0S8.668,12.834,8.668,12    s0.583-1.25,1.25-1.917C8.835,9.5,7.419,7.708,8.043,7.083z"/> 	</g> 	 	<g id="_E3F5983F-DBB6-439C-AD6A-C829AEF5CE40serviceTask" transform="scale(0.7,0.7) translate(8,8)" display="none"> 		<polygon oryx:anchors="top left" id="_E3F5983F-DBB6-439C-AD6A-C829AEF5CE40frame20" style="opacity:1;fill:#ffffff" stroke="#000000" points="15.392,5.064 17.954,2.502 20.347,4.895 17.786,7.455     18.729,9.732 22.353,9.732 22.353,13.115 18.731,13.115 17.788,15.392 20.351,17.955 17.958,20.347 15.397,17.786 13.12,18.729     13.12,22.353 9.737,22.353 9.737,18.731 7.46,17.788 4.897,20.35 2.506,17.958 5.066,15.397 4.124,13.12 0.5,13.12 0.5,9.737     4.121,9.737 5.065,7.461 2.503,4.898 4.895,2.506 7.455,5.066 9.732,4.125 9.732,0.5 13.116,0.5 13.116,4.121 "/> 		<circle oryx:anchors="top left" id="_E3F5983F-DBB6-439C-AD6A-C829AEF5CE40frame21" style="opacity:1;fill:none" stroke="#000000" cx="11.427" cy="11.426" r="3.714"/> 		<polygon oryx:anchors="top left" id="_E3F5983F-DBB6-439C-AD6A-C829AEF5CE40frame22" style="opacity:1;fill:#ffffff" stroke="#000000" points="21.392,11.064 23.954,8.502 26.347,10.895 23.786,13.455     24.729,15.732 28.353,15.732 28.353,19.115 24.731,19.115 23.788,21.392 26.351,23.955 23.958,26.347 21.397,23.786 19.12,24.729     19.12,28.353 15.737,28.353 15.737,24.731 13.46,23.788 10.897,26.35 8.506,23.958 11.066,21.397 10.124,19.12 6.5,19.12     6.5,15.737 10.121,15.737 11.065,13.461 8.503,10.898 10.895,8.506 13.455,11.066 15.732,10.125 15.732,6.5 19.116,6.5     19.116,10.121 "/> 		<circle oryx:anchors="top left" id="_E3F5983F-DBB6-439C-AD6A-C829AEF5CE40frame23" style="opacity:1;fill:none;" stroke="#000000" cx="17.427" cy="17.426" r="3.714"/> 	</g> 	 	<g id="_E3F5983F-DBB6-439C-AD6A-C829AEF5CE40sendTask" display="none"> 		<path id="_E3F5983F-DBB6-439C-AD6A-C829AEF5CE40stframe24" oryx:anchors="left top" stroke="#FFFFFF" fill="black" stroke-width="1" d="M8,11 L8,21 L24,21 L24,11 L16,17z"/> 		<path id="_E3F5983F-DBB6-439C-AD6A-C829AEF5CE40stframe25" oryx:anchors="left top" stroke="#FFFFFF" fill="black" stroke-width="1" d="M7,10 L16,17 L25 10z"/> 	</g> 	 	<g id="_E3F5983F-DBB6-439C-AD6A-C829AEF5CE40receiveTask" display="none"> 		<path id="_E3F5983F-DBB6-439C-AD6A-C829AEF5CE40frame26" oryx:anchors="left top" stroke="#000000" fill="none" stroke-width="1" d="M8,11 L8,21 L24,21 L24,11z M8,11 L16,17 L24,11"/> 	</g> 	 	<g id="_E3F5983F-DBB6-439C-AD6A-C829AEF5CE40none" display="inherit"/>  	<g id="_E3F5983F-DBB6-439C-AD6A-C829AEF5CE40sequential" display="none">         <path oryx:anchors="bottom" fill="none" stroke="#000000" stroke-width="2" d=" M51.1 46  h10  M51.1 42  h10  M51.1 38  h10 " id="_E3F5983F-DBB6-439C-AD6A-C829AEF5CE40__E3F5983F-DBB6-439C-AD6A-C829AEF5CE40_20"/>     </g>   </g></g><g class="children" style="overflow:hidden"/><g class="edge"/></g><g class="controls"><g class="dockers"/><g class="magnets" transform="translate(210, 55)"><g pointer-events="all" display="none" transform="translate(-7, 4.5)"><circle cx="8" cy="8" r="4" stroke="none" fill="red" fill-opacity="0.3"/></g><g pointer-events="all" display="none" transform="translate(-7, 17)"><circle cx="8" cy="8" r="4" stroke="none" fill="red" fill-opacity="0.3"/></g><g pointer-events="all" display="none" transform="translate(-7, 29.5)"><circle cx="8" cy="8" r="4" stroke="none" fill="red" fill-opacity="0.3"/></g><g pointer-events="all" display="none" transform="translate(19.500000000000004, 41)"><circle cx="8" cy="8" r="4" stroke="none" fill="red" fill-opacity="0.3"/></g><g pointer-events="all" display="none" transform="translate(47.00000000000001, 41)"><circle cx="8" cy="8" r="4" stroke="none" fill="red" fill-opacity="0.3"/></g><g pointer-events="all" display="none" transform="translate(74.5, 41)"><circle cx="8" cy="8" r="4" stroke="none" fill="red" fill-opacity="0.3"/></g><g pointer-events="all" display="none" transform="translate(101, 4.5)"><circle cx="8" cy="8" r="4" stroke="none" fill="red" fill-opacity="0.3"/></g><g pointer-events="all" display="none" transform="translate(101, 17)"><circle cx="8" cy="8" r="4" stroke="none" fill="red" fill-opacity="0.3"/></g><g pointer-events="all" display="none" transform="translate(101, 29.5)"><circle cx="8" cy="8" r="4" stroke="none" fill="red" fill-opacity="0.3"/></g><g pointer-events="all" display="none" transform="translate(19.500000000000004, -7)"><circle cx="8" cy="8" r="4" stroke="none" fill="red" fill-opacity="0.3"/></g><g pointer-events="all" display="none" transform="translate(47.00000000000001, -7)"><circle cx="8" cy="8" r="4" stroke="none" fill="red" fill-opacity="0.3"/></g><g pointer-events="all" display="none" transform="translate(74.5, -7)"><circle cx="8" cy="8" r="4" stroke="none" fill="red" fill-opacity="0.3"/></g><g pointer-events="all" display="none" transform="translate(47.00000000000001, 17)"><circle cx="8" cy="8" r="4" stroke="none" fill="red" fill-opacity="0.3"/></g></g></g></g></g><g class="edge"/></g><g class="controls"><g class="dockers"/><g class="magnets" transform="translate(10, 210)"><g pointer-events="all" display="none" transform="translate(387.5, 77.5)"><circle cx="8" cy="8" r="4" stroke="none" fill="red" fill-opacity="0.3"/></g></g></g></g></g><g class="edge"><g id="_969DD38F-2503-4AAA-8CBA-B2D260C0CF7B" bpmn2nodeid="_C21FCBB6-5B81-43ED-A728-F142A36509DB"><g class="stencils"><g class="me"><g pointer-events="painted" bpmn2nodeid="_655EC229-DA4B-40D6-91B3-142D9BE59AC5"><path id="_969DD38F-2503-4AAA-8CBA-B2D260C0CF7B_1" d="M110.5307301143397 103.50099129401096L188 106 L265.0546875 106 " stroke="#000000" fill="none" stroke-width="2" stroke-linecap="round" stroke-linejoin="round" marker-start="url(#_969DD38F-2503-4AAA-8CBA-B2D260C0CF7Bstart)" marker-end="url(#_969DD38F-2503-4AAA-8CBA-B2D260C0CF7Bend)"/></g><text id="_969DD38F-2503-4AAA-8CBA-B2D260C0CF7Btext_name" font-size="12" x="124.5307301143397" y="89.50099129401096" oryx:edgePosition="startTop" stroke-width="0pt" letter-spacing="-0.01px" fill="#000000" text-anchor="start" transform="rotate(1.8476102659946037 110.5307301143397 103.50099129401096)" visibility="inherit" oryx:fontSize="12"/></g><g class="children" style="overflow:hidden"/><g class="edge"/></g><g class="controls"><g class="dockers"/><g class="magnets"/></g></g><g id="_A393848A-9443-43C1-A4DB-701E02AAF9EA" bpmn2nodeid="_B1E9C93E-7A7F-44DB-B16B-8B5FF773D0D3"><g class="stencils"><g class="me"><g pointer-events="painted" bpmn2nodeid="_20A6B037-9027-472D-B3D5-F7977603E1C7"><path id="_A393848A-9443-43C1-A4DB-701E02AAF9EA_1" d="M304.59375 106L369.6640625 106 " stroke="#000000" fill="none" stroke-width="2" stroke-linecap="round" stroke-linejoin="round" marker-start="url(#_A393848A-9443-43C1-A4DB-701E02AAF9EAstart)" marker-end="url(#_A393848A-9443-43C1-A4DB-701E02AAF9EAend)"/></g><text id="_A393848A-9443-43C1-A4DB-701E02AAF9EAtext_name" font-size="12" x="318.59375" y="92" oryx:edgePosition="startTop" stroke-width="0pt" letter-spacing="-0.01px" fill="#000000" text-anchor="start" transform="rotate(360 304.59375 106)" visibility="inherit" oryx:fontSize="12"/></g><g class="children" style="overflow:hidden"/><g class="edge"/></g><g class="controls"><g class="dockers"/><g class="magnets"/></g></g><g id="_381F091A-14D2-424A-A8F6-F7FB449E62D4" bpmn2nodeid="_CD0A34A8-D071-4738-8EC7-AC6AB84B2763"><g class="stencils"><g class="me"><g pointer-events="painted" bpmn2nodeid="_F4443654-3744-4A60-B4D5-EBF2ACA64E2A"><path id="_381F091A-14D2-424A-A8F6-F7FB449E62D4_1" d="M540.55078125 106L640 106 L739.6412400062082 102.50381614013304 " stroke="#000000" fill="none" stroke-width="2" stroke-linecap="round" stroke-linejoin="round" marker-start="url(#_381F091A-14D2-424A-A8F6-F7FB449E62D4start)" marker-end="url(#_381F091A-14D2-424A-A8F6-F7FB449E62D4end)"/></g><text id="_381F091A-14D2-424A-A8F6-F7FB449E62D4text_name" font-size="12" x="554.55078125" y="92" oryx:edgePosition="startTop" stroke-width="0pt" letter-spacing="-0.01px" fill="#000000" text-anchor="start" transform="rotate(360 540.55078125 106)" visibility="inherit" oryx:fontSize="12"/></g><g class="children" style="overflow:hidden"/><g class="edge"/></g><g class="controls"><g class="dockers"/><g class="magnets"/></g></g><g id="_4FB0ECBC-B03B-4E48-B86D-AD5BBA8F46C3" bpmn2nodeid="_0151CFC9-31E3-4B06-8BAC-077CE8CDAA28"><g class="stencils"><g class="me"><g pointer-events="painted" bpmn2nodeid="_3AA103F4-2BA0-410F-AB04-012D5ED2B487"><path id="_4FB0ECBC-B03B-4E48-B86D-AD5BBA8F46C3_1" d="M110.0625 290L219.15625 290 " stroke="#000000" fill="none" stroke-width="2" stroke-linecap="round" stroke-linejoin="round" marker-start="url(#_4FB0ECBC-B03B-4E48-B86D-AD5BBA8F46C3start)" marker-end="url(#_4FB0ECBC-B03B-4E48-B86D-AD5BBA8F46C3end)"/></g><text id="_4FB0ECBC-B03B-4E48-B86D-AD5BBA8F46C3text_name" font-size="12" x="124.0625" y="276" oryx:edgePosition="startTop" stroke-width="0pt" letter-spacing="-0.01px" fill="#000000" text-anchor="start" transform="rotate(360 110.0625 290)" visibility="inherit" oryx:fontSize="12"/></g><g class="children" style="overflow:hidden"/><g class="edge"/></g><g class="controls"><g class="dockers"/><g class="magnets"/></g></g><g id="_BCC1B6BC-E056-4D47-9ECE-B8DA253719E8" bpmn2nodeid="_E9141CD8-78AA-475D-BE77-41BD05608DE1"><g class="stencils"><g class="me"><g pointer-events="painted" bpmn2nodeid="_6429F987-0855-4B22-8407-C7EC7402B0BC"><path id="_BCC1B6BC-E056-4D47-9ECE-B8DA253719E8_1" d="M275 264.5625L275 198 L285 198 L285 125.6875 " stroke="#000000" fill="none" stroke-width="2" stroke-linecap="round" stroke-linejoin="round" marker-start="url(#_BCC1B6BC-E056-4D47-9ECE-B8DA253719E8start)" marker-end="url(#_BCC1B6BC-E056-4D47-9ECE-B8DA253719E8end)"/></g><text id="_BCC1B6BC-E056-4D47-9ECE-B8DA253719E8text_name" font-size="12" x="289" y="250.5625" oryx:edgePosition="startTop" stroke-width="0pt" letter-spacing="-0.01px" fill="#000000" text-anchor="start" transform="rotate(270 275 264.5625)" visibility="inherit" oryx:fontSize="12"/></g><g class="children" style="overflow:hidden"/><g class="edge"/></g><g class="controls"><g class="dockers"/><g class="magnets"/></g></g></g><text id="_CF74934F-9A01-45BC-8D4E-86EBC2DB3B9D" style="stroke-width:1;fill:rgb(177,194,214);font-family:arial;font-weight:bold" font-size="12" onclick="ORYX.Plugins.CanvasTitle.openTextualAnalysis()" onmouseover="ORYX.Plugins.CanvasTitle.addToolTip('_CF74934F-9A01-45BC-8D4E-86EBC2DB3B9D')" transform="translate(10, 20)">produccion-multiples-documentos v.1.0 (proceso.produccion-multiples-documentos)</text></g></g></svg>