<svg xmlns="http://www.w3.org/2000/svg" xmlns:oryx="http://oryx-editor.org" id="_0EC0A6F2-5C32-4DF1-A746-A761F4E48C56" width="844.7583618164062" height="422" xmlns:xlink="http://www.w3.org/1999/xlink" xmlns:svg="http://www.w3.org/2000/svg"><defs><marker id="_33A6E5E9-4007-4266-A3C5-9BF3CCD09D48start" refX="1" refY="5" markerUnits="userSpaceOnUse" markerWidth="17" markerHeight="11" orient="auto" fill="#000000" stroke="#000000"> 	  		<path id="_33A6E5E9-4007-4266-A3C5-9BF3CCD09D48conditional" d="M 0 5 L 8 0 L 16 5 L 8 10 L 0 5" fill="white" stroke="#000000" stroke-width="1" display="none"/> 			<path id="_33A6E5E9-4007-4266-A3C5-9BF3CCD09D48default" d="M 5 0 L 11 10" fill="white" stroke="#000000" stroke-width="1" display="none"/> 	  	</marker><marker id="_33A6E5E9-4007-4266-A3C5-9BF3CCD09D48end" refX="15" refY="6" markerUnits="userSpaceOnUse" markerWidth="15" markerHeight="12" orient="auto" fill="#000000" stroke="#000000"> 	  		<path id="_33A6E5E9-4007-4266-A3C5-9BF3CCD09D48frame2" d="M 0 1 L 15 6 L 0 11z" fill="#000000" stroke="#000000" stroke-linejoin="round" stroke-width="2"/> 	  	</marker><marker id="_E3EE06F5-A64E-4F60-AFB2-E7162068B148start" refX="1" refY="5" markerUnits="userSpaceOnUse" markerWidth="17" markerHeight="11" orient="auto" fill="#000000" stroke="#000000"> 	  		<path id="_E3EE06F5-A64E-4F60-AFB2-E7162068B148conditional" d="M 0 5 L 8 0 L 16 5 L 8 10 L 0 5" fill="white" stroke="#000000" stroke-width="1" display="none"/> 			<path id="_E3EE06F5-A64E-4F60-AFB2-E7162068B148default" d="M 5 0 L 11 10" fill="white" stroke="#000000" stroke-width="1" display="none"/> 	  	</marker><marker id="_E3EE06F5-A64E-4F60-AFB2-E7162068B148end" refX="15" refY="6" markerUnits="userSpaceOnUse" markerWidth="15" markerHeight="12" orient="auto" fill="#000000" stroke="#000000"> 	  		<path id="_E3EE06F5-A64E-4F60-AFB2-E7162068B148frame2" d="M 0 1 L 15 6 L 0 11z" fill="#000000" stroke="#000000" stroke-linejoin="round" stroke-width="2"/> 	  	</marker><marker id="_D8F26A02-59BD-4B92-B0C1-00162639AC0Astart" refX="1" refY="5" markerUnits="userSpaceOnUse" markerWidth="17" markerHeight="11" orient="auto" fill="#000000" stroke="#000000"> 	  		<path id="_D8F26A02-59BD-4B92-B0C1-00162639AC0Aconditional" d="M 0 5 L 8 0 L 16 5 L 8 10 L 0 5" fill="white" stroke="#000000" stroke-width="1" display="none"/> 			<path id="_D8F26A02-59BD-4B92-B0C1-00162639AC0Adefault" d="M 5 0 L 11 10" fill="white" stroke="#000000" stroke-width="1" display="none"/> 	  	</marker><marker id="_D8F26A02-59BD-4B92-B0C1-00162639AC0Aend" refX="15" refY="6" markerUnits="userSpaceOnUse" markerWidth="15" markerHeight="12" orient="auto" fill="#000000" stroke="#000000"> 	  		<path id="_D8F26A02-59BD-4B92-B0C1-00162639AC0Aframe2" d="M 0 1 L 15 6 L 0 11z" fill="#000000" stroke="#000000" stroke-linejoin="round" stroke-width="2"/> 	  	</marker><marker id="_2CEA50E6-DAD0-4093-A54D-EC57EC3367E6start" refX="1" refY="5" markerUnits="userSpaceOnUse" markerWidth="17" markerHeight="11" orient="auto" fill="#000000" stroke="#000000"> 	  		<path id="_2CEA50E6-DAD0-4093-A54D-EC57EC3367E6conditional" d="M 0 5 L 8 0 L 16 5 L 8 10 L 0 5" fill="white" stroke="#000000" stroke-width="1" display="none"/> 			<path id="_2CEA50E6-DAD0-4093-A54D-EC57EC3367E6default" d="M 5 0 L 11 10" fill="white" stroke="#000000" stroke-width="1" display="none"/> 	  	</marker><marker id="_2CEA50E6-DAD0-4093-A54D-EC57EC3367E6end" refX="15" refY="6" markerUnits="userSpaceOnUse" markerWidth="15" markerHeight="12" orient="auto" fill="#000000" stroke="#000000"> 	  		<path id="_2CEA50E6-DAD0-4093-A54D-EC57EC3367E6frame2" d="M 0 1 L 15 6 L 0 11z" fill="#000000" stroke="#000000" stroke-linejoin="round" stroke-width="2"/> 	  	</marker><marker id="_A6307801-D1D1-4EC5-A4F5-2CF2E6127AE4start" refX="1" refY="5" markerUnits="userSpaceOnUse" markerWidth="17" markerHeight="11" orient="auto" fill="#000000" stroke="#000000"> 	  		<path id="_A6307801-D1D1-4EC5-A4F5-2CF2E6127AE4conditional" d="M 0 5 L 8 0 L 16 5 L 8 10 L 0 5" fill="white" stroke="#000000" stroke-width="1" display="none"/> 			<path id="_A6307801-D1D1-4EC5-A4F5-2CF2E6127AE4default" d="M 5 0 L 11 10" fill="white" stroke="#000000" stroke-width="1" display="none"/> 	  	</marker><marker id="_A6307801-D1D1-4EC5-A4F5-2CF2E6127AE4end" refX="15" refY="6" markerUnits="userSpaceOnUse" markerWidth="15" markerHeight="12" orient="auto" fill="#000000" stroke="#000000"> 	  		<path id="_A6307801-D1D1-4EC5-A4F5-2CF2E6127AE4frame2" d="M 0 1 L 15 6 L 0 11z" fill="#000000" stroke="#000000" stroke-linejoin="round" stroke-width="2"/> 	  	</marker></defs><g stroke="none" font-family="Verdana, sans-serif" font-size-adjust="none" font-style="normal" font-variant="normal" font-weight="normal" line-heigth="normal" font-size="12"><g class="stencils" transform="translate(18.758333206176758, 16)"><g class="me"/><g class="children"><g id="_504DA3B9-E003-4C15-AEED-780D140439DA" bpmn2nodeid="_62A89253-A259-49F0-AC09-5C9091DB87CA"><g class="stencils" transform="translate(10, 40)"><g class="me"><g pointer-events="painted" id="_504DA3B9-E003-4C15-AEED-780D140439DA">         <defs id="_504DA3B9-E003-4C15-AEED-780D140439DA__504DA3B9-E003-4C15-AEED-780D140439DA_3"> 		<radialGradient id="_504DA3B9-E003-4C15-AEED-780D140439DAbackground" cx="0%" cy="10%" r="100%" fx="20%" fy="10%"> 			<stop offset="0%" stop-color="#ffffff" stop-opacity="1" id="_504DA3B9-E003-4C15-AEED-780D140439DA__504DA3B9-E003-4C15-AEED-780D140439DA_4"/> 			<stop id="_504DA3B9-E003-4C15-AEED-780D140439DAfill_el" offset="100%" stop-color="#ffffff" stop-opacity="1"/> 		</radialGradient> 	</defs> 	   	 	<rect id="_504DA3B9-E003-4C15-AEED-780D140439DAborder" oryx:resize="vertical horizontal" x="0" y="0" width="791" height="150" stroke="#000000" stroke-width="1" fill="url(#_504DA3B9-E003-4C15-AEED-780D140439DAbackground) white"/> 	 	 	 	<path id="_504DA3B9-E003-4C15-AEED-780D140439DAframe2" style="fill:none;stroke-width:1" d=" M0 0  L0 150 " oryx:anchors="left top bottom" stroke="#000000"/> 	 	undefined 	     <text x="50" y="75" oryx:rotate="270" font-size="12" id="_504DA3B9-E003-4C15-AEED-780D140439DAtext_name" oryx:align="middle center" oryx:anchors="left" oryx:fittoelem="frame" stroke="black" stroke-width="0pt" letter-spacing="-0.01px" fill="#000000" text-anchor="middle" transform="rotate(270 50 75)" visibility="inherit" oryx:fontSize="12"><tspan x="50" y="75" dy="5">Proyector</tspan></text>   </g></g><g class="children" style="overflow:hidden"><g id="_1FE8EAEA-C8D2-4F21-9B83-535058306B8C" bpmn2nodeid="_5527A555-9D48-44F0-839A-38A657219A80"><g class="stencils" transform="translate(70, 48)"><g class="me"><g pointer-events="fill" id="_1FE8EAEA-C8D2-4F21-9B83-535058306B8C">        <defs id="_1FE8EAEA-C8D2-4F21-9B83-535058306B8C__1FE8EAEA-C8D2-4F21-9B83-535058306B8C_5"> 		<radialGradient id="_1FE8EAEA-C8D2-4F21-9B83-535058306B8Cbackground" cx="10%" cy="10%" r="100%" fx="10%" fy="10%"> 			<stop offset="0%" stop-color="#ffffff" stop-opacity="1" id="_1FE8EAEA-C8D2-4F21-9B83-535058306B8C__1FE8EAEA-C8D2-4F21-9B83-535058306B8C_6"/> 			<stop id="_1FE8EAEA-C8D2-4F21-9B83-535058306B8Cfill_el" offset="100%" stop-color="#9acd32" stop-opacity="1"/> 		</radialGradient> 	</defs> 	     <circle id="_1FE8EAEA-C8D2-4F21-9B83-535058306B8Cbg_frame" cx="15" cy="15" r="15" stroke="#000000" fill="url(#_1FE8EAEA-C8D2-4F21-9B83-535058306B8Cbackground) white" stroke-width="1" style="stroke-dasharray: 5.5, 3"/>      <circle id="_1FE8EAEA-C8D2-4F21-9B83-535058306B8Cframe" cx="15" cy="15" r="15" stroke="#000000" fill="none" stroke-width="1" display="inherit"/>  	<text font-size="11" id="_1FE8EAEA-C8D2-4F21-9B83-535058306B8Ctext_name" x="15" y="32" oryx:align="top center" stroke="black" stroke-width="0pt" letter-spacing="-0.01px" fill="#000000" text-anchor="middle" transform="rotate(0 15 32)" visibility="inherit" oryx:fontSize="11"><tspan x="15" y="32" dy="11">Iniciar</tspan></text>   </g></g><g class="children" style="overflow:hidden"/><g class="edge"/></g><g class="controls"><g class="dockers"/><g class="magnets" transform="translate(70, 48)"><g pointer-events="all" display="none" transform="translate(7, 7)"><circle cx="8" cy="8" r="4" stroke="none" fill="red" fill-opacity="0.3"/></g></g></g></g><g id="_77ABB171-57D9-43B0-A1E1-C29B968E4571" bpmn2nodeid="_F39F2A30-EA96-43F6-AE10-6B9A8C51371F"><g class="stencils" transform="translate(255, 46)"><g class="me"><g id="_77ABB171-57D9-43B0-A1E1-C29B968E4571">      <defs id="_77ABB171-57D9-43B0-A1E1-C29B968E4571__77ABB171-57D9-43B0-A1E1-C29B968E4571_4"> 		<radialGradient id="_77ABB171-57D9-43B0-A1E1-C29B968E4571background" cx="10%" cy="10%" r="100%" fx="10%" fy="10%"> 			<stop offset="0%" stop-color="#ffffff" stop-opacity="1" id="_77ABB171-57D9-43B0-A1E1-C29B968E4571__77ABB171-57D9-43B0-A1E1-C29B968E4571_5"/> 			<stop id="_77ABB171-57D9-43B0-A1E1-C29B968E4571fill_el" offset="100%" stop-color="#f0e68c" stop-opacity="1"/> 		</radialGradient> 	</defs> 	     <path d=" M0 20.5  L20.5 0  L40 20.5  L20.5 40  z" id="_77ABB171-57D9-43B0-A1E1-C29B968E4571bg_frame" fill="url(#_77ABB171-57D9-43B0-A1E1-C29B968E4571background) white" style="stroke-width:1" stroke="#a67f00"/>     <circle id="_77ABB171-57D9-43B0-A1E1-C29B968E4571frame" cx="20.5" cy="20.5" r="9.75" style="fill:none;stroke-width:2.5" stroke="#a67f00"/>      	<text id="_77ABB171-57D9-43B0-A1E1-C29B968E4571text_name" x="30.5" y="30.5" oryx:align="left top" stroke-width="0pt" letter-spacing="-0.01px" fill="#000000" text-anchor="start" transform="rotate(0 30.5 30.5)" visibility="inherit" oryx:fontSize="12"/> 	   </g></g><g class="children" style="overflow:hidden"/><g class="edge"/></g><g class="controls"><g class="dockers"/><g class="magnets" transform="translate(255, 46)"><g pointer-events="all" display="none" transform="translate(12.5, 12.5)"><circle cx="8" cy="8" r="4" stroke="none" fill="red" fill-opacity="0.3"/></g></g></g></g><g id="_42C56D2A-BD14-499D-A9C2-EBA0A29EA249" bpmn2nodeid="_8A996FB9-F905-4C22-90E4-7418CE790566"><g class="stencils" transform="translate(360, 33)"><g class="me"><g pointer-events="fill" oryx:minimumSize="50 40" id="_42C56D2A-BD14-499D-A9C2-EBA0A29EA249">   	<defs id="_42C56D2A-BD14-499D-A9C2-EBA0A29EA249__42C56D2A-BD14-499D-A9C2-EBA0A29EA249_17"> 		<radialGradient id="_42C56D2A-BD14-499D-A9C2-EBA0A29EA249background" cx="10%" cy="10%" r="100%" fx="10%" fy="10%"> 			<stop offset="0%" stop-color="#ffffff" stop-opacity="1" id="_42C56D2A-BD14-499D-A9C2-EBA0A29EA249__42C56D2A-BD14-499D-A9C2-EBA0A29EA249_18"/> 			<stop id="_42C56D2A-BD14-499D-A9C2-EBA0A29EA249fill_el" offset="100%" stop-color="#33CCCC" stop-opacity="1"/> 		</radialGradient> 		<radialGradient id="_42C56D2A-BD14-499D-A9C2-EBA0A29EA249borderbackground" cx="10%" cy="10%" r="100%" fx="10%" fy="10%"> 			<stop offset="0%" stop-color="#ffffff" stop-opacity="1" id="_42C56D2A-BD14-499D-A9C2-EBA0A29EA249__42C56D2A-BD14-499D-A9C2-EBA0A29EA249_19"/> 			<stop id="_42C56D2A-BD14-499D-A9C2-EBA0A29EA249fill_border" offset="100%" stop-color="#000000" stop-opacity="1" stroke="#000000"/> 		</radialGradient> 	</defs> 	 	<rect id="_42C56D2A-BD14-499D-A9C2-EBA0A29EA249text_frame" oryx:anchors="bottom top right left" x="1" y="1" width="164" height="65" rx="10" ry="10" stroke="none" stroke-width="0" fill="none"/> 	<rect id="_42C56D2A-BD14-499D-A9C2-EBA0A29EA249bg_frame" oryx:resize="vertical horizontal" x="0" y="0" width="170" height="66" rx="10" ry="10" stroke="#000000" stroke-width="1" fill="url(#_42C56D2A-BD14-499D-A9C2-EBA0A29EA249background) #ffffcc"/> 		<text font-size="12" id="_42C56D2A-BD14-499D-A9C2-EBA0A29EA249text_name" x="85" y="33" oryx:align="middle center" oryx:fittoelem="text_frame" stroke="black" text-anchor="middle" stroke-width="0pt" letter-spacing="-0.01px" fill="#000000" transform="rotate(0 85 33)" visibility="inherit" oryx:fontSize="12"><tspan x="85" y="33" dy="-1">Gestión Producción </tspan><tspan x="85" y="33" dy="11">Múltiples Documentos</tspan></text>     <g id="_42C56D2A-BD14-499D-A9C2-EBA0A29EA249manualTask" transform="scale(0.7,0.7) translate(8,8)" display="none">     	<path oryx:anchors="top left" id="_42C56D2A-BD14-499D-A9C2-EBA0A29EA249frame" style="opacity:1;fill:none;fill-opacity:1;stroke-width:1" d="M0.5,3.751l4.083-3.25c0,0,11.166,0.083,12.083,0.083s-2.417,2.917-1.5,2.917     s11.667,0,12.584,0c1.166,1.708-0.168,3.167-0.834,3.667s0.875,1.917-1,4.417c-0.75,0.25,0.75,1.875-1.333,3.333     c-1.167,0.583,0.583,1.542-1.25,2.833c-1.167,0-20.833,0.083-20.833,0.083l-2-1.333V3.751z" stroke="#000000"/> 		<path id="_42C56D2A-BD14-499D-A9C2-EBA0A29EA249frame2" oryx:anchors="top left" style="opacity:1;fill:none;stroke-width:2" d="M 13.5 7 L 27 7" stroke="#000000"/> 		<path id="_42C56D2A-BD14-499D-A9C2-EBA0A29EA249frame3" oryx:anchors="top left" style="opacity:1;fill:none;stroke-width:2" d="M 13.5 11 L 26 11" stroke="#000000"/> 		<path id="_42C56D2A-BD14-499D-A9C2-EBA0A29EA249frame4" oryx:anchors="top left" style="opacity:1;fill:none;stroke-width:1.5" d="M 14 14.5 L 25 14.5" stroke="#000000"/> 		<path id="_42C56D2A-BD14-499D-A9C2-EBA0A29EA249frame5" oryx:anchors="top left" style="opacity:1;fill:none;stroke-width:1.5" d="M 8.2 3.1 L 15 3.1" stroke="#000000"/> 	</g> 	 	<g id="_42C56D2A-BD14-499D-A9C2-EBA0A29EA249businessRuleTask" transform="scale(0.7,0.7) translate(8,8)" display="none"> 		<rect id="_42C56D2A-BD14-499D-A9C2-EBA0A29EA249frame6" oryx:anchors="top left" x="0" y="0" width="22" height="4" style="opacity:1;fill:#B3B1B3;fill-opacity:1;" stroke="#000000"/> 		<rect id="_42C56D2A-BD14-499D-A9C2-EBA0A29EA249frame7" oryx:anchors="top left" x="0" y="4" style="opacity:1;fill:none;" width="22" height="12" stroke="#000000"/> 		<path id="_42C56D2A-BD14-499D-A9C2-EBA0A29EA249frame8" oryx:anchors="top left" style="opacity:1;fill:none;" d="M 0 10 L 22 10" stroke="#000000"/> 		<path id="_42C56D2A-BD14-499D-A9C2-EBA0A29EA249frame9" oryx:anchors="top left" style="opacity:1; fill:none;" d="M 7 4 L 7 16" stroke="#000000"/> 	</g> 	 	<g id="_42C56D2A-BD14-499D-A9C2-EBA0A29EA249scriptTask" transform="scale(0.7,0.7) translate(8,8)" display="none"> 		<path oryx:anchors="top left" id="_42C56D2A-BD14-499D-A9C2-EBA0A29EA249frame10" style="opacity:1;fill:none;" stroke="#000000" d="M6.402,0.5h14.5c0,0-5.833,2.833-5.833,5.583s4.417,6,4.417,9.167    s-4.167,5.083-4.167,5.083H0.235c0,0,5-2.667,5-5s-4.583-6.75-4.583-9.25S6.402,0.5,6.402,0.5z"/> 		<path oryx:anchors="top left" id="_42C56D2A-BD14-499D-A9C2-EBA0A29EA249frame11" style="opacity:1;fill:none;stroke-width:1.5" d="M 3.5 4.5 L 13.5 4.5" stroke="#000000"/> 		<path oryx:anchors="top left" id="_42C56D2A-BD14-499D-A9C2-EBA0A29EA249frame12" style="opacity:1;fill:none;stroke-width:1.5" d="M 3.8 8.5 L 13.8 8.5" stroke="#000000"/> 		<path oryx:anchors="top left" id="_42C56D2A-BD14-499D-A9C2-EBA0A29EA249frame13" style="opacity:1;fill:none;stroke-width:1.5" d="M 6.3 12.5 L 16.3 12.5" stroke="#000000"/> 		<path oryx:anchors="top left" id="_42C56D2A-BD14-499D-A9C2-EBA0A29EA249frame14" style="opacity:1;fill:none;stroke-width:1.5" d="M 6.5 16.5 L 16.5 16.5" stroke="#000000"/> 	</g> 	 	<g id="_42C56D2A-BD14-499D-A9C2-EBA0A29EA249userTask" transform="scale(0.7,0.7) translate(8,8)" display="inherit"> 		<path id="_42C56D2A-BD14-499D-A9C2-EBA0A29EA249frame15" oryx:anchors="top left" style="opacity:1;fill:#F4F6F7" stroke="#000000" d="M0.585,24.167h24.083v-7.833c0,0-2.333-3.917-7.083-5.167h-9.25    c-4.417,1.333-7.833,5.75-7.833,5.75L0.585,24.167z"/> 		<path id="_42C56D2A-BD14-499D-A9C2-EBA0A29EA249frame16" oryx:anchors="top left" style="opacity:1;fill:none" d="M 6 20 L 6 24" stroke="#000000"/> 		<path id="_42C56D2A-BD14-499D-A9C2-EBA0A29EA249frame17" oryx:anchors="top left" style="opacity:1;fill:none" d="M 20 20 L 20 24" stroke="#000000"/> 		<circle id="_42C56D2A-BD14-499D-A9C2-EBA0A29EA249frame18" oryx:anchors="top left" fill="black" cx="13.002" cy="5.916" r="5.417" stroke="#000000"/> 		<path id="_42C56D2A-BD14-499D-A9C2-EBA0A29EA249frame19" oryx:anchors="top left" style="opacity:1;fill:#F0EFF0;" stroke="#000000" d="M8.043,7.083c0,0,2.814-2.426,5.376-1.807s4.624-0.693,4.624-0.693    c0.25,1.688,0.042,3.75-1.458,5.584c0,0,1.083,0.75,1.083,1.5s0.125,1.875-1,3s-5.5,1.25-6.75,0S8.668,12.834,8.668,12    s0.583-1.25,1.25-1.917C8.835,9.5,7.419,7.708,8.043,7.083z"/> 	</g> 	 	<g id="_42C56D2A-BD14-499D-A9C2-EBA0A29EA249serviceTask" transform="scale(0.7,0.7) translate(8,8)" display="none"> 		<polygon oryx:anchors="top left" id="_42C56D2A-BD14-499D-A9C2-EBA0A29EA249frame20" style="opacity:1;fill:#ffffff" stroke="#000000" points="15.392,5.064 17.954,2.502 20.347,4.895 17.786,7.455     18.729,9.732 22.353,9.732 22.353,13.115 18.731,13.115 17.788,15.392 20.351,17.955 17.958,20.347 15.397,17.786 13.12,18.729     13.12,22.353 9.737,22.353 9.737,18.731 7.46,17.788 4.897,20.35 2.506,17.958 5.066,15.397 4.124,13.12 0.5,13.12 0.5,9.737     4.121,9.737 5.065,7.461 2.503,4.898 4.895,2.506 7.455,5.066 9.732,4.125 9.732,0.5 13.116,0.5 13.116,4.121 "/> 		<circle oryx:anchors="top left" id="_42C56D2A-BD14-499D-A9C2-EBA0A29EA249frame21" style="opacity:1;fill:none" stroke="#000000" cx="11.427" cy="11.426" r="3.714"/> 		<polygon oryx:anchors="top left" id="_42C56D2A-BD14-499D-A9C2-EBA0A29EA249frame22" style="opacity:1;fill:#ffffff" stroke="#000000" points="21.392,11.064 23.954,8.502 26.347,10.895 23.786,13.455     24.729,15.732 28.353,15.732 28.353,19.115 24.731,19.115 23.788,21.392 26.351,23.955 23.958,26.347 21.397,23.786 19.12,24.729     19.12,28.353 15.737,28.353 15.737,24.731 13.46,23.788 10.897,26.35 8.506,23.958 11.066,21.397 10.124,19.12 6.5,19.12     6.5,15.737 10.121,15.737 11.065,13.461 8.503,10.898 10.895,8.506 13.455,11.066 15.732,10.125 15.732,6.5 19.116,6.5     19.116,10.121 "/> 		<circle oryx:anchors="top left" id="_42C56D2A-BD14-499D-A9C2-EBA0A29EA249frame23" style="opacity:1;fill:none;" stroke="#000000" cx="17.427" cy="17.426" r="3.714"/> 	</g> 	 	<g id="_42C56D2A-BD14-499D-A9C2-EBA0A29EA249sendTask" display="none"> 		<path id="_42C56D2A-BD14-499D-A9C2-EBA0A29EA249stframe24" oryx:anchors="left top" stroke="#FFFFFF" fill="black" stroke-width="1" d="M8,11 L8,21 L24,21 L24,11 L16,17z"/> 		<path id="_42C56D2A-BD14-499D-A9C2-EBA0A29EA249stframe25" oryx:anchors="left top" stroke="#FFFFFF" fill="black" stroke-width="1" d="M7,10 L16,17 L25 10z"/> 	</g> 	 	<g id="_42C56D2A-BD14-499D-A9C2-EBA0A29EA249receiveTask" display="none"> 		<path id="_42C56D2A-BD14-499D-A9C2-EBA0A29EA249frame26" oryx:anchors="left top" stroke="#000000" fill="none" stroke-width="1" d="M8,11 L8,21 L24,21 L24,11z M8,11 L16,17 L24,11"/> 	</g> 	 	<g id="_42C56D2A-BD14-499D-A9C2-EBA0A29EA249none" display="inherit"/>  	<g id="_42C56D2A-BD14-499D-A9C2-EBA0A29EA249sequential" display="none">         <path oryx:anchors="bottom" fill="none" stroke="#000000" stroke-width="2" d=" M81.7 62  h10  M81.7 58  h10  M81.7 54  h10 " id="_42C56D2A-BD14-499D-A9C2-EBA0A29EA249__42C56D2A-BD14-499D-A9C2-EBA0A29EA249_20"/>     </g>   </g></g><g class="children" style="overflow:hidden"/><g class="edge"/></g><g class="controls"><g class="dockers"/><g class="magnets" transform="translate(360, 33)"><g pointer-events="all" display="none" transform="translate(-7, 8.5)"><circle cx="8" cy="8" r="4" stroke="none" fill="red" fill-opacity="0.3"/></g><g pointer-events="all" display="none" transform="translate(-7, 25)"><circle cx="8" cy="8" r="4" stroke="none" fill="red" fill-opacity="0.3"/></g><g pointer-events="all" display="none" transform="translate(-7, 41.5)"><circle cx="8" cy="8" r="4" stroke="none" fill="red" fill-opacity="0.3"/></g><g pointer-events="all" display="none" transform="translate(34.5, 57)"><circle cx="8" cy="8" r="4" stroke="none" fill="red" fill-opacity="0.3"/></g><g pointer-events="all" display="none" transform="translate(77, 57)"><circle cx="8" cy="8" r="4" stroke="none" fill="red" fill-opacity="0.3"/></g><g pointer-events="all" display="none" transform="translate(119.5, 57)"><circle cx="8" cy="8" r="4" stroke="none" fill="red" fill-opacity="0.3"/></g><g pointer-events="all" display="none" transform="translate(161, 8.5)"><circle cx="8" cy="8" r="4" stroke="none" fill="red" fill-opacity="0.3"/></g><g pointer-events="all" display="none" transform="translate(161, 25)"><circle cx="8" cy="8" r="4" stroke="none" fill="red" fill-opacity="0.3"/></g><g pointer-events="all" display="none" transform="translate(161, 41.5)"><circle cx="8" cy="8" r="4" stroke="none" fill="red" fill-opacity="0.3"/></g><g pointer-events="all" display="none" transform="translate(34.5, -7)"><circle cx="8" cy="8" r="4" stroke="none" fill="red" fill-opacity="0.3"/></g><g pointer-events="all" display="none" transform="translate(77, -7)"><circle cx="8" cy="8" r="4" stroke="none" fill="red" fill-opacity="0.3"/></g><g pointer-events="all" display="none" transform="translate(119.5, -7)"><circle cx="8" cy="8" r="4" stroke="none" fill="red" fill-opacity="0.3"/></g><g pointer-events="all" display="none" transform="translate(77, 25)"><circle cx="8" cy="8" r="4" stroke="none" fill="red" fill-opacity="0.3"/></g></g></g></g><g id="_43E1565D-2200-4B8C-BC39-6B9B50C7ED4A" bpmn2nodeid="_86A5CA88-0676-424E-AB3D-AFFCE0F25F3D"><g class="stencils" transform="translate(695, 52)"><g class="me"><g pointer-events="fill" id="_43E1565D-2200-4B8C-BC39-6B9B50C7ED4A">      <defs id="_43E1565D-2200-4B8C-BC39-6B9B50C7ED4A__43E1565D-2200-4B8C-BC39-6B9B50C7ED4A_5"> 		<radialGradient id="_43E1565D-2200-4B8C-BC39-6B9B50C7ED4Abackground" cx="10%" cy="10%" r="100%" fx="10%" fy="10%"> 			<stop offset="0%" stop-color="#ffffff" stop-opacity="1" id="_43E1565D-2200-4B8C-BC39-6B9B50C7ED4A__43E1565D-2200-4B8C-BC39-6B9B50C7ED4A_6"/> 			<stop id="_43E1565D-2200-4B8C-BC39-6B9B50C7ED4Afill_el" offset="100%" stop-color="#ff6347" stop-opacity="1"/> 		</radialGradient> 	</defs> 	     <circle id="_43E1565D-2200-4B8C-BC39-6B9B50C7ED4Abg_frame" cx="14" cy="14" r="14" stroke="#000000" fill="url(#_43E1565D-2200-4B8C-BC39-6B9B50C7ED4Abackground) white" stroke-width="3"/> 	<text font-size="11" id="_43E1565D-2200-4B8C-BC39-6B9B50C7ED4Atext_name" x="14" y="30" oryx:align="top center" stroke="black" stroke-width="0pt" letter-spacing="-0.01px" fill="#000000" text-anchor="middle" transform="rotate(0 14 30)" visibility="inherit" oryx:fontSize="11"><tspan x="14" y="30" dy="11">Finalizar</tspan></text>   </g></g><g class="children" style="overflow:hidden"/><g class="edge"/></g><g class="controls"><g class="dockers"/><g class="magnets" transform="translate(695, 52)"><g pointer-events="all" display="none" transform="translate(6, 6)"><circle cx="8" cy="8" r="4" stroke="none" fill="red" fill-opacity="0.3"/></g></g></g></g></g><g class="edge"/></g><g class="controls"><g class="dockers"/><g class="magnets" transform="translate(10, 40)"><g pointer-events="all" display="none" transform="translate(387.5, 67)"><circle cx="8" cy="8" r="4" stroke="none" fill="red" fill-opacity="0.3"/></g></g></g></g><g id="_1F58DCAC-22A9-4A51-8D3F-8651CF9A3F0E" bpmn2nodeid="_017D9D9F-7E0F-4526-9577-C668621A2C39"><g class="stencils" transform="translate(10, 210)"><g class="me"><g pointer-events="painted" id="_1F58DCAC-22A9-4A51-8D3F-8651CF9A3F0E">         <defs id="_1F58DCAC-22A9-4A51-8D3F-8651CF9A3F0E__1F58DCAC-22A9-4A51-8D3F-8651CF9A3F0E_3"> 		<radialGradient id="_1F58DCAC-22A9-4A51-8D3F-8651CF9A3F0Ebackground" cx="0%" cy="10%" r="100%" fx="20%" fy="10%"> 			<stop offset="0%" stop-color="#ffffff" stop-opacity="1" id="_1F58DCAC-22A9-4A51-8D3F-8651CF9A3F0E__1F58DCAC-22A9-4A51-8D3F-8651CF9A3F0E_4"/> 			<stop id="_1F58DCAC-22A9-4A51-8D3F-8651CF9A3F0Efill_el" offset="100%" stop-color="#ffffff" stop-opacity="1"/> 		</radialGradient> 	</defs> 	   	 	<rect id="_1F58DCAC-22A9-4A51-8D3F-8651CF9A3F0Eborder" oryx:resize="vertical horizontal" x="0" y="0" width="791" height="171" stroke="#000000" stroke-width="1" fill="url(#_1F58DCAC-22A9-4A51-8D3F-8651CF9A3F0Ebackground) white"/> 	 	 	 	<path id="_1F58DCAC-22A9-4A51-8D3F-8651CF9A3F0Eframe2" style="fill:none;stroke-width:1" d=" M0 0  L0 171 " oryx:anchors="left top bottom" stroke="#000000"/> 	 	undefined 	     <text x="50" y="85.5" oryx:rotate="270" font-size="12" id="_1F58DCAC-22A9-4A51-8D3F-8651CF9A3F0Etext_name" oryx:align="middle center" oryx:anchors="left" oryx:fittoelem="frame" stroke="black" stroke-width="0pt" letter-spacing="-0.01px" fill="#000000" text-anchor="middle" transform="rotate(270 50 85.5)" visibility="inherit" oryx:fontSize="12"><tspan x="50" y="85.5" dy="5">Sistema</tspan></text>   </g></g><g class="children" style="overflow:hidden"><g id="_0A755F87-3899-46AD-B21D-CB4BC7CC5E66" bpmn2nodeid="_1CDAED6A-D71F-4CCF-B45F-97611D592F86"><g class="stencils" transform="translate(70, 65)"><g class="me"><g pointer-events="fill" id="_0A755F87-3899-46AD-B21D-CB4BC7CC5E66">      <defs id="_0A755F87-3899-46AD-B21D-CB4BC7CC5E66__0A755F87-3899-46AD-B21D-CB4BC7CC5E66_5"> 		<radialGradient id="_0A755F87-3899-46AD-B21D-CB4BC7CC5E66background" cx="10%" cy="10%" r="100%" fx="10%" fy="10%"> 			<stop offset="0%" stop-color="#ffffff" stop-opacity="1" id="_0A755F87-3899-46AD-B21D-CB4BC7CC5E66__0A755F87-3899-46AD-B21D-CB4BC7CC5E66_6"/> 			<stop id="_0A755F87-3899-46AD-B21D-CB4BC7CC5E66fill_el" offset="100%" stop-color="#9acd32" stop-opacity="1"/> 		</radialGradient> 	</defs> 	     <circle id="_0A755F87-3899-46AD-B21D-CB4BC7CC5E66bg_frame" cx="15" cy="15" r="15" stroke="#000000" fill="url(#_0A755F87-3899-46AD-B21D-CB4BC7CC5E66background) white" stroke-width="1" style="stroke-dasharray: 5.5, 3"/>      <circle id="_0A755F87-3899-46AD-B21D-CB4BC7CC5E66frame" cx="15" cy="15" r="15" stroke="#000000" fill="none" stroke-width="1" display="inherit"/>      <path id="_0A755F87-3899-46AD-B21D-CB4BC7CC5E66body" d=" M7.7124971 20.247342  L22.333334 20.247342  L15.022915000000001 7.575951200000001  L7.7124971 20.247342  z" stroke="black" style="fill:none;stroke-width:1.4;stroke-miterlimit:4;stroke-dasharray:none"/> 	<text font-size="11" id="_0A755F87-3899-46AD-B21D-CB4BC7CC5E66text_name" x="15" y="32" oryx:align="top center" stroke="black" stroke-width="0pt" letter-spacing="-0.01px" fill="#000000" text-anchor="middle" transform="rotate(0 15 32)" visibility="inherit" oryx:fontSize="11"><tspan x="15" y="32" dy="11">Iniciar Documentos en Trámite</tspan></text>   </g></g><g class="children" style="overflow:hidden"/><g class="edge"/></g><g class="controls"><g class="dockers"/><g class="magnets" transform="translate(70, 65)"><g pointer-events="all" display="none" transform="translate(7, 7)"><circle cx="8" cy="8" r="4" stroke="none" fill="red" fill-opacity="0.3"/></g></g></g></g><g id="_8617D541-FA6D-4B45-BC1F-A7D792797CBB" bpmn2nodeid="_0E5D9609-93F1-4530-A016-6CD208E5759A"><g class="stencils" transform="translate(220, 55)"><g class="me"><g pointer-events="fill" oryx:minimumSize="50 40" id="_8617D541-FA6D-4B45-BC1F-A7D792797CBB">   	<defs id="_8617D541-FA6D-4B45-BC1F-A7D792797CBB__8617D541-FA6D-4B45-BC1F-A7D792797CBB_17"> 		<radialGradient id="_8617D541-FA6D-4B45-BC1F-A7D792797CBBbackground" cx="10%" cy="10%" r="100%" fx="10%" fy="10%"> 			<stop offset="0%" stop-color="#ffffff" stop-opacity="1" id="_8617D541-FA6D-4B45-BC1F-A7D792797CBB__8617D541-FA6D-4B45-BC1F-A7D792797CBB_18"/> 			<stop id="_8617D541-FA6D-4B45-BC1F-A7D792797CBBfill_el" offset="100%" stop-color="#C0C0C0" stop-opacity="1"/> 		</radialGradient> 		<radialGradient id="_8617D541-FA6D-4B45-BC1F-A7D792797CBBborderbackground" cx="10%" cy="10%" r="100%" fx="10%" fy="10%"> 			<stop offset="0%" stop-color="#ffffff" stop-opacity="1" id="_8617D541-FA6D-4B45-BC1F-A7D792797CBB__8617D541-FA6D-4B45-BC1F-A7D792797CBB_19"/> 			<stop id="_8617D541-FA6D-4B45-BC1F-A7D792797CBBfill_border" offset="100%" stop-color="#000000" stop-opacity="1" stroke="#000000"/> 		</radialGradient> 	</defs> 	 	<rect id="_8617D541-FA6D-4B45-BC1F-A7D792797CBBtext_frame" oryx:anchors="bottom top right left" x="1" y="1" width="104" height="49" rx="10" ry="10" stroke="none" stroke-width="0" fill="none"/> 	<rect id="_8617D541-FA6D-4B45-BC1F-A7D792797CBBbg_frame" oryx:resize="vertical horizontal" x="0" y="0" width="110.00000000000001" height="50" rx="10" ry="10" stroke="#000000" stroke-width="1" fill="url(#_8617D541-FA6D-4B45-BC1F-A7D792797CBBbackground) #ffffcc"/> 		<text font-size="12" id="_8617D541-FA6D-4B45-BC1F-A7D792797CBBtext_name" x="55.00000000000001" y="25" oryx:align="middle center" oryx:fittoelem="text_frame" stroke="black" text-anchor="middle" stroke-width="0pt" letter-spacing="-0.01px" fill="#000000" transform="rotate(0 55.00000000000001 25)" visibility="inherit" oryx:fontSize="12"><tspan x="55.00000000000001" y="25" dy="5" id="ext-gen607">Iniciar Variables</tspan></text>     <g id="_8617D541-FA6D-4B45-BC1F-A7D792797CBBmanualTask" transform="scale(0.7,0.7) translate(8,8)" display="none">     	<path oryx:anchors="top left" id="_8617D541-FA6D-4B45-BC1F-A7D792797CBBframe" style="opacity:1;fill:none;fill-opacity:1;stroke-width:1" d="M0.5,3.751l4.083-3.25c0,0,11.166,0.083,12.083,0.083s-2.417,2.917-1.5,2.917     s11.667,0,12.584,0c1.166,1.708-0.168,3.167-0.834,3.667s0.875,1.917-1,4.417c-0.75,0.25,0.75,1.875-1.333,3.333     c-1.167,0.583,0.583,1.542-1.25,2.833c-1.167,0-20.833,0.083-20.833,0.083l-2-1.333V3.751z" stroke="#000000"/> 		<path id="_8617D541-FA6D-4B45-BC1F-A7D792797CBBframe2" oryx:anchors="top left" style="opacity:1;fill:none;stroke-width:2" d="M 13.5 7 L 27 7" stroke="#000000"/> 		<path id="_8617D541-FA6D-4B45-BC1F-A7D792797CBBframe3" oryx:anchors="top left" style="opacity:1;fill:none;stroke-width:2" d="M 13.5 11 L 26 11" stroke="#000000"/> 		<path id="_8617D541-FA6D-4B45-BC1F-A7D792797CBBframe4" oryx:anchors="top left" style="opacity:1;fill:none;stroke-width:1.5" d="M 14 14.5 L 25 14.5" stroke="#000000"/> 		<path id="_8617D541-FA6D-4B45-BC1F-A7D792797CBBframe5" oryx:anchors="top left" style="opacity:1;fill:none;stroke-width:1.5" d="M 8.2 3.1 L 15 3.1" stroke="#000000"/> 	</g> 	 	<g id="_8617D541-FA6D-4B45-BC1F-A7D792797CBBbusinessRuleTask" transform="scale(0.7,0.7) translate(8,8)" display="none"> 		<rect id="_8617D541-FA6D-4B45-BC1F-A7D792797CBBframe6" oryx:anchors="top left" x="0" y="0" width="22" height="4" style="opacity:1;fill:#B3B1B3;fill-opacity:1;" stroke="#000000"/> 		<rect id="_8617D541-FA6D-4B45-BC1F-A7D792797CBBframe7" oryx:anchors="top left" x="0" y="4" style="opacity:1;fill:none;" width="22" height="12" stroke="#000000"/> 		<path id="_8617D541-FA6D-4B45-BC1F-A7D792797CBBframe8" oryx:anchors="top left" style="opacity:1;fill:none;" d="M 0 10 L 22 10" stroke="#000000"/> 		<path id="_8617D541-FA6D-4B45-BC1F-A7D792797CBBframe9" oryx:anchors="top left" style="opacity:1; fill:none;" d="M 7 4 L 7 16" stroke="#000000"/> 	</g> 	 	<g id="_8617D541-FA6D-4B45-BC1F-A7D792797CBBscriptTask" transform="scale(0.7,0.7) translate(8,8)" display="inherit"> 		<path oryx:anchors="top left" id="_8617D541-FA6D-4B45-BC1F-A7D792797CBBframe10" style="opacity:1;fill:none;" stroke="#000000" d="M6.402,0.5h14.5c0,0-5.833,2.833-5.833,5.583s4.417,6,4.417,9.167    s-4.167,5.083-4.167,5.083H0.235c0,0,5-2.667,5-5s-4.583-6.75-4.583-9.25S6.402,0.5,6.402,0.5z"/> 		<path oryx:anchors="top left" id="_8617D541-FA6D-4B45-BC1F-A7D792797CBBframe11" style="opacity:1;fill:none;stroke-width:1.5" d="M 3.5 4.5 L 13.5 4.5" stroke="#000000"/> 		<path oryx:anchors="top left" id="_8617D541-FA6D-4B45-BC1F-A7D792797CBBframe12" style="opacity:1;fill:none;stroke-width:1.5" d="M 3.8 8.5 L 13.8 8.5" stroke="#000000"/> 		<path oryx:anchors="top left" id="_8617D541-FA6D-4B45-BC1F-A7D792797CBBframe13" style="opacity:1;fill:none;stroke-width:1.5" d="M 6.3 12.5 L 16.3 12.5" stroke="#000000"/> 		<path oryx:anchors="top left" id="_8617D541-FA6D-4B45-BC1F-A7D792797CBBframe14" style="opacity:1;fill:none;stroke-width:1.5" d="M 6.5 16.5 L 16.5 16.5" stroke="#000000"/> 	</g> 	 	<g id="_8617D541-FA6D-4B45-BC1F-A7D792797CBBuserTask" transform="scale(0.7,0.7) translate(8,8)" display="none"> 		<path id="_8617D541-FA6D-4B45-BC1F-A7D792797CBBframe15" oryx:anchors="top left" style="opacity:1;fill:#F4F6F7" stroke="#000000" d="M0.585,24.167h24.083v-7.833c0,0-2.333-3.917-7.083-5.167h-9.25    c-4.417,1.333-7.833,5.75-7.833,5.75L0.585,24.167z"/> 		<path id="_8617D541-FA6D-4B45-BC1F-A7D792797CBBframe16" oryx:anchors="top left" style="opacity:1;fill:none" d="M 6 20 L 6 24" stroke="#000000"/> 		<path id="_8617D541-FA6D-4B45-BC1F-A7D792797CBBframe17" oryx:anchors="top left" style="opacity:1;fill:none" d="M 20 20 L 20 24" stroke="#000000"/> 		<circle id="_8617D541-FA6D-4B45-BC1F-A7D792797CBBframe18" oryx:anchors="top left" fill="black" cx="13.002" cy="5.916" r="5.417" stroke="#000000"/> 		<path id="_8617D541-FA6D-4B45-BC1F-A7D792797CBBframe19" oryx:anchors="top left" style="opacity:1;fill:#F0EFF0;" stroke="#000000" d="M8.043,7.083c0,0,2.814-2.426,5.376-1.807s4.624-0.693,4.624-0.693    c0.25,1.688,0.042,3.75-1.458,5.584c0,0,1.083,0.75,1.083,1.5s0.125,1.875-1,3s-5.5,1.25-6.75,0S8.668,12.834,8.668,12    s0.583-1.25,1.25-1.917C8.835,9.5,7.419,7.708,8.043,7.083z"/> 	</g> 	 	<g id="_8617D541-FA6D-4B45-BC1F-A7D792797CBBserviceTask" transform="scale(0.7,0.7) translate(8,8)" display="none"> 		<polygon oryx:anchors="top left" id="_8617D541-FA6D-4B45-BC1F-A7D792797CBBframe20" style="opacity:1;fill:#ffffff" stroke="#000000" points="15.392,5.064 17.954,2.502 20.347,4.895 17.786,7.455     18.729,9.732 22.353,9.732 22.353,13.115 18.731,13.115 17.788,15.392 20.351,17.955 17.958,20.347 15.397,17.786 13.12,18.729     13.12,22.353 9.737,22.353 9.737,18.731 7.46,17.788 4.897,20.35 2.506,17.958 5.066,15.397 4.124,13.12 0.5,13.12 0.5,9.737     4.121,9.737 5.065,7.461 2.503,4.898 4.895,2.506 7.455,5.066 9.732,4.125 9.732,0.5 13.116,0.5 13.116,4.121 "/> 		<circle oryx:anchors="top left" id="_8617D541-FA6D-4B45-BC1F-A7D792797CBBframe21" style="opacity:1;fill:none" stroke="#000000" cx="11.427" cy="11.426" r="3.714"/> 		<polygon oryx:anchors="top left" id="_8617D541-FA6D-4B45-BC1F-A7D792797CBBframe22" style="opacity:1;fill:#ffffff" stroke="#000000" points="21.392,11.064 23.954,8.502 26.347,10.895 23.786,13.455     24.729,15.732 28.353,15.732 28.353,19.115 24.731,19.115 23.788,21.392 26.351,23.955 23.958,26.347 21.397,23.786 19.12,24.729     19.12,28.353 15.737,28.353 15.737,24.731 13.46,23.788 10.897,26.35 8.506,23.958 11.066,21.397 10.124,19.12 6.5,19.12     6.5,15.737 10.121,15.737 11.065,13.461 8.503,10.898 10.895,8.506 13.455,11.066 15.732,10.125 15.732,6.5 19.116,6.5     19.116,10.121 "/> 		<circle oryx:anchors="top left" id="_8617D541-FA6D-4B45-BC1F-A7D792797CBBframe23" style="opacity:1;fill:none;" stroke="#000000" cx="17.427" cy="17.426" r="3.714"/> 	</g> 	 	<g id="_8617D541-FA6D-4B45-BC1F-A7D792797CBBsendTask" display="none"> 		<path id="_8617D541-FA6D-4B45-BC1F-A7D792797CBBstframe24" oryx:anchors="left top" stroke="#FFFFFF" fill="black" stroke-width="1" d="M8,11 L8,21 L24,21 L24,11 L16,17z"/> 		<path id="_8617D541-FA6D-4B45-BC1F-A7D792797CBBstframe25" oryx:anchors="left top" stroke="#FFFFFF" fill="black" stroke-width="1" d="M7,10 L16,17 L25 10z"/> 	</g> 	 	<g id="_8617D541-FA6D-4B45-BC1F-A7D792797CBBreceiveTask" display="none"> 		<path id="_8617D541-FA6D-4B45-BC1F-A7D792797CBBframe26" oryx:anchors="left top" stroke="#000000" fill="none" stroke-width="1" d="M8,11 L8,21 L24,21 L24,11z M8,11 L16,17 L24,11"/> 	</g> 	 	<g id="_8617D541-FA6D-4B45-BC1F-A7D792797CBBnone" display="inherit"/>  	<g id="_8617D541-FA6D-4B45-BC1F-A7D792797CBBsequential" display="none">         <path oryx:anchors="bottom" fill="none" stroke="#000000" stroke-width="2" d=" M51.1 46  h10  M51.1 42  h10  M51.1 38  h10 " id="_8617D541-FA6D-4B45-BC1F-A7D792797CBB__8617D541-FA6D-4B45-BC1F-A7D792797CBB_20"/>     </g>   </g></g><g class="children" style="overflow:hidden"/><g class="edge"/></g><g class="controls"><g class="dockers"/><g class="magnets" transform="translate(220, 55)"><g pointer-events="all" display="none" transform="translate(-7, 4.5)"><circle cx="8" cy="8" r="4" stroke="none" fill="red" fill-opacity="0.3"/></g><g pointer-events="all" display="none" transform="translate(-7, 17)"><circle cx="8" cy="8" r="4" stroke="none" fill="red" fill-opacity="0.3"/></g><g pointer-events="all" display="none" transform="translate(-7, 29.5)"><circle cx="8" cy="8" r="4" stroke="none" fill="red" fill-opacity="0.3"/></g><g pointer-events="all" display="none" transform="translate(19.500000000000004, 41)"><circle cx="8" cy="8" r="4" stroke="none" fill="red" fill-opacity="0.3"/></g><g pointer-events="all" display="none" transform="translate(47.00000000000001, 41)"><circle cx="8" cy="8" r="4" stroke="none" fill="red" fill-opacity="0.3"/></g><g pointer-events="all" display="none" transform="translate(74.5, 41)"><circle cx="8" cy="8" r="4" stroke="none" fill="red" fill-opacity="0.3"/></g><g pointer-events="all" display="none" transform="translate(101, 4.5)"><circle cx="8" cy="8" r="4" stroke="none" fill="red" fill-opacity="0.3"/></g><g pointer-events="all" display="none" transform="translate(101, 17)"><circle cx="8" cy="8" r="4" stroke="none" fill="red" fill-opacity="0.3"/></g><g pointer-events="all" display="none" transform="translate(101, 29.5)"><circle cx="8" cy="8" r="4" stroke="none" fill="red" fill-opacity="0.3"/></g><g pointer-events="all" display="none" transform="translate(19.500000000000004, -7)"><circle cx="8" cy="8" r="4" stroke="none" fill="red" fill-opacity="0.3"/></g><g pointer-events="all" display="none" transform="translate(47.00000000000001, -7)"><circle cx="8" cy="8" r="4" stroke="none" fill="red" fill-opacity="0.3"/></g><g pointer-events="all" display="none" transform="translate(74.5, -7)"><circle cx="8" cy="8" r="4" stroke="none" fill="red" fill-opacity="0.3"/></g><g pointer-events="all" display="none" transform="translate(47.00000000000001, 17)"><circle cx="8" cy="8" r="4" stroke="none" fill="red" fill-opacity="0.3"/></g></g></g></g></g><g class="edge"/></g><g class="controls"><g class="dockers"/><g class="magnets" transform="translate(10, 210)"><g pointer-events="all" display="none" transform="translate(387.5, 77.5)"><circle cx="8" cy="8" r="4" stroke="none" fill="red" fill-opacity="0.3"/></g></g></g></g></g><g class="edge"><g id="_33A6E5E9-4007-4266-A3C5-9BF3CCD09D48" bpmn2nodeid="_C21FCBB6-5B81-43ED-A728-F142A36509DB"><g class="stencils"><g class="me"><g pointer-events="painted" bpmn2nodeid="_0D69E1F4-8086-4C4F-9E0F-4688ACBC956C"><path id="_33A6E5E9-4007-4266-A3C5-9BF3CCD09D48_1" d="M110.5307301143397 103.50099129401096L188 106 L265.0546875 106 " stroke="#000000" fill="none" stroke-width="2" stroke-linecap="round" stroke-linejoin="round" marker-start="url(#_33A6E5E9-4007-4266-A3C5-9BF3CCD09D48start)" marker-end="url(#_33A6E5E9-4007-4266-A3C5-9BF3CCD09D48end)"/></g><text id="_33A6E5E9-4007-4266-A3C5-9BF3CCD09D48text_name" font-size="12" x="124.5307301143397" y="89.50099129401096" oryx:edgePosition="startTop" stroke-width="0pt" letter-spacing="-0.01px" fill="#000000" text-anchor="start" transform="rotate(1.8476102659946037 110.5307301143397 103.50099129401096)" visibility="inherit" oryx:fontSize="12"/></g><g class="children" style="overflow:hidden"/><g class="edge"/></g><g class="controls"><g class="dockers"/><g class="magnets"/></g></g><g id="_E3EE06F5-A64E-4F60-AFB2-E7162068B148" bpmn2nodeid="_B1E9C93E-7A7F-44DB-B16B-8B5FF773D0D3"><g class="stencils"><g class="me"><g pointer-events="painted" bpmn2nodeid="_60BEAF20-51EF-4F84-8795-995CFACF6E2A"><path id="_E3EE06F5-A64E-4F60-AFB2-E7162068B148_1" d="M304.59375 106L369.6640625 106 " stroke="#000000" fill="none" stroke-width="2" stroke-linecap="round" stroke-linejoin="round" marker-start="url(#_E3EE06F5-A64E-4F60-AFB2-E7162068B148start)" marker-end="url(#_E3EE06F5-A64E-4F60-AFB2-E7162068B148end)"/></g><text id="_E3EE06F5-A64E-4F60-AFB2-E7162068B148text_name" font-size="12" x="318.59375" y="92" oryx:edgePosition="startTop" stroke-width="0pt" letter-spacing="-0.01px" fill="#000000" text-anchor="start" transform="rotate(360 304.59375 106)" visibility="inherit" oryx:fontSize="12"/></g><g class="children" style="overflow:hidden"/><g class="edge"/></g><g class="controls"><g class="dockers"/><g class="magnets"/></g></g><g id="_D8F26A02-59BD-4B92-B0C1-00162639AC0A" bpmn2nodeid="_CD0A34A8-D071-4738-8EC7-AC6AB84B2763"><g class="stencils"><g class="me"><g pointer-events="painted" bpmn2nodeid="_789D48A3-F52C-4A8C-9DEB-B807315A8542"><path id="_D8F26A02-59BD-4B92-B0C1-00162639AC0A_1" d="M540.5625 106L704.59375 106 " stroke="#000000" fill="none" stroke-width="2" stroke-linecap="round" stroke-linejoin="round" marker-start="url(#_D8F26A02-59BD-4B92-B0C1-00162639AC0Astart)" marker-end="url(#_D8F26A02-59BD-4B92-B0C1-00162639AC0Aend)"/></g><text id="_D8F26A02-59BD-4B92-B0C1-00162639AC0Atext_name" font-size="12" x="554.5625" y="92" oryx:edgePosition="startTop" stroke-width="0pt" letter-spacing="-0.01px" fill="#000000" text-anchor="start" transform="rotate(360 540.5625 106)" visibility="inherit" oryx:fontSize="12"/></g><g class="children" style="overflow:hidden"/><g class="edge"/></g><g class="controls"><g class="dockers"/><g class="magnets"/></g></g><g id="_2CEA50E6-DAD0-4093-A54D-EC57EC3367E6" bpmn2nodeid="_0151CFC9-31E3-4B06-8BAC-077CE8CDAA28"><g class="stencils"><g class="me"><g pointer-events="painted" bpmn2nodeid="_051B9CB3-4B2A-4C80-9816-6BE6CF173246"><path id="_2CEA50E6-DAD0-4093-A54D-EC57EC3367E6_1" d="M110.84375 290L229.078125 290 " stroke="#000000" fill="none" stroke-width="2" stroke-linecap="round" stroke-linejoin="round" marker-start="url(#_2CEA50E6-DAD0-4093-A54D-EC57EC3367E6start)" marker-end="url(#_2CEA50E6-DAD0-4093-A54D-EC57EC3367E6end)"/></g><text id="_2CEA50E6-DAD0-4093-A54D-EC57EC3367E6text_name" font-size="12" x="124.84375" y="276" oryx:edgePosition="startTop" stroke-width="0pt" letter-spacing="-0.01px" fill="#000000" text-anchor="start" transform="rotate(360 110.84375 290)" visibility="inherit" oryx:fontSize="12"/></g><g class="children" style="overflow:hidden"/><g class="edge"/></g><g class="controls"><g class="dockers"/><g class="magnets"/></g></g><g id="_A6307801-D1D1-4EC5-A4F5-2CF2E6127AE4" bpmn2nodeid="_E9141CD8-78AA-475D-BE77-41BD05608DE1"><g class="stencils"><g class="me"><g pointer-events="painted" bpmn2nodeid="_410FFA45-4322-4BD4-BD3A-99A2502D588D"><path id="_A6307801-D1D1-4EC5-A4F5-2CF2E6127AE4_1" d="M285 264.5625L285 125.6875 " stroke="#000000" fill="none" stroke-width="2" stroke-linecap="round" stroke-linejoin="round" marker-start="url(#_A6307801-D1D1-4EC5-A4F5-2CF2E6127AE4start)" marker-end="url(#_A6307801-D1D1-4EC5-A4F5-2CF2E6127AE4end)"/></g><text id="_A6307801-D1D1-4EC5-A4F5-2CF2E6127AE4text_name" font-size="12" x="299" y="250.5625" oryx:edgePosition="startTop" stroke-width="0pt" letter-spacing="-0.01px" fill="#000000" text-anchor="start" transform="rotate(270 285 264.5625)" visibility="inherit" oryx:fontSize="12"/></g><g class="children" style="overflow:hidden"/><g class="edge"/></g><g class="controls"><g class="dockers"/><g class="magnets"/></g></g></g><text id="_11EAB30B-D329-4C31-8589-C150025A28BC" style="stroke-width:1;fill:rgb(177,194,214);font-family:arial;font-weight:bold" font-size="12" onclick="ORYX.Plugins.CanvasTitle.openTextualAnalysis()" onmouseover="ORYX.Plugins.CanvasTitle.addToolTip('_11EAB30B-D329-4C31-8589-C150025A28BC')" transform="translate(10, 20)">produccion-multiples-documentos v.1.0 (proceso.produccion-multiples-documentos)</text></g></g></svg>